<?xml version="1.0" encoding="UTF-8" standalone="no"?>
<!-- Created with Inkscape (http://www.inkscape.org/) -->

<svg
   xmlns:dc="http://purl.org/dc/elements/1.1/"
   xmlns:cc="http://creativecommons.org/ns#"
   xmlns:rdf="http://www.w3.org/1999/02/22-rdf-syntax-ns#"
   xmlns:svg="http://www.w3.org/2000/svg"
   xmlns="http://www.w3.org/2000/svg"
   xmlns:sodipodi="http://sodipodi.sourceforge.net/DTD/sodipodi-0.dtd"
   xmlns:inkscape="http://www.inkscape.org/namespaces/inkscape"
   width="173mm"
   height="173mm"
   viewBox="0 0 612.99212 612.99211"
   id="svg23890"
   version="1.1"
   inkscape:version="0.91 r13725"
   sodipodi:docname="back.svg">
  <defs
     id="defs23892">
    <marker
       style="overflow:visible"
       refY="0"
       refX="0"
       orient="auto"
       id="DistanceX">
      <path
         id="path23924"
         style="stroke:#000000;stroke-width:0.5"
         d="M 3,-3 -3,3 M 0,-5 0,5"
         inkscape:connector-curvature="0" />
    </marker>
    <pattern
       y="0"
       x="0"
       width="8"
       patternUnits="userSpaceOnUse"
       id="Hatch"
       height="8">
      <path
         id="path23927"
         stroke-width="0.25"
         stroke="#000000"
         linecap="square"
         d="M8 4 l-4,4" />
      <path
         id="path23929"
         stroke-width="0.25"
         stroke="#000000"
         linecap="square"
         d="M6 2 l-4,4" />
      <path
         id="path23931"
         stroke-width="0.25"
         stroke="#000000"
         linecap="square"
         d="M4 0 l-4,4" />
    </pattern>
    <marker
       style="overflow:visible"
       refY="0.0"
       refX="0.0"
       orient="auto"
       id="DistanceX-7">
      <path
         id="path29689-5"
         style="stroke:#000000; stroke-width:0.5"
         d="M 3,-3 L -3,3 M 0,-5 L  0,5" />
    </marker>
    <pattern
       y="0"
       x="0"
       width="8"
       patternUnits="userSpaceOnUse"
       id="Hatch-3"
       height="8">
      <path
         id="path29692"
         stroke-width="0.25"
         stroke="#000000"
         linecap="square"
         d="M8 4 l-4,4" />
      <path
         id="path29694"
         stroke-width="0.25"
         stroke="#000000"
         linecap="square"
         d="M6 2 l-4,4" />
      <path
         id="path29696"
         stroke-width="0.25"
         stroke="#000000"
         linecap="square"
         d="M4 0 l-4,4" />
    </pattern>
  </defs>
  <sodipodi:namedview
     id="base"
     pagecolor="#ffffff"
     bordercolor="#666666"
     borderopacity="1.0"
     inkscape:pageopacity="0.0"
     inkscape:pageshadow="2"
     inkscape:zoom="2.8"
     inkscape:cx="279.97719"
     inkscape:cy="323.48581"
     inkscape:document-units="mm"
     inkscape:current-layer="layer1"
     showgrid="false"
     inkscape:window-width="3726"
     inkscape:window-height="2118"
     inkscape:window-x="114"
     inkscape:window-y="42"
     inkscape:window-maximized="1"
     fit-margin-top="1"
     fit-margin-left="1"
     fit-margin-right="1"
     fit-margin-bottom="1" />
  <metadata
     id="metadata23895">
    <rdf:RDF>
      <cc:Work
         rdf:about="">
        <dc:format>image/svg+xml</dc:format>
        <dc:type
           rdf:resource="http://purl.org/dc/dcmitype/StillImage" />
        <dc:title></dc:title>
      </cc:Work>
    </rdf:RDF>
  </metadata>
  <g
     inkscape:label="Layer 1"
     inkscape:groupmode="layer"
     id="layer1"
     transform="translate(-71.918116,-47.430188)">
    <path
       inkscape:connector-curvature="0"
       d="m 668.5103,645.42726 1.65472,-1.838 1.52363,-1.9489 1.38189,-2.0504 1.23661,-2.1418 1.08425,-2.2229 0.92835,-2.2931 0.76535,-2.3522 0.59528,-2.3996 0.43228,-2.4357 0.25866,-2.4596 0.085,-2.4717 -0.085,-2.4716 -0.25868,-2.4597 -0.43228,-2.4357 -0.59528,-2.3996 -0.76535,-2.3522 -0.92835,-2.2931 -1.08425,-2.2229 -1.23661,-2.1418 -1.38189,-2.0504 -1.52363,-1.9489 -1.65472,-1.838 -0.43228,-0.4334 0,-0.019 -0.21614,-0.20925 -0.82914,-0.9189 -0.75827,-0.9745 -0.69448,-1.0252 -0.61654,-1.0709 -0.54213,-1.1114 -0.46417,-1.1466 -0.38268,-1.1761 -0.29763,-1.1998 -0.21615,-1.2179 -0.12755,-1.2297 -0.0425,-1.2359 -10e-6,-456.3298 0.0425,-1.23661 0.12756,-1.22953 0.21615,-1.2189 0.29763,-1.20118 0.38268,-1.17284 0.46417,-1.14803 0.54213,-1.1126 0.61654,-1.07007 0.69448,-1.02402 0.75827,-0.97441 0.82914,-0.92126 0.21614,-0.20905 0,-0.0177 0.43228,-0.43229 1.65472,-1.83898 1.52363,-1.94882 1.38189,-2.05157 1.23661,-2.14016 1.08425,-2.2252 0.92835,-2.29252 0.76535,-2.35275 0.59528,-2.39882 0.43228,-2.43426 0.25866,-2.45905 0.085,-2.47323 -0.085,-2.47323 -0.25868,-2.45905 -0.43228,-2.43425 -0.59528,-2.39882 -0.76535,-2.35276 -0.92835,-2.29252 -1.08425,-2.22519 -1.23661,-2.14016 -1.38189,-2.05158 -1.52363,-1.94882 -1.65472,-1.83897 -0.43228,-0.41811 0,-0.02128 -0.0248,2e-5 -1.32165,-1.27559 -1.89213,-1.59095 -2.00196,-1.45275 -2.09764,-1.31103 -2.18268,-1.1622 -2.26063,-1.0063 -2.32441,-0.84685 -2.37756,-0.68032 -2.42008,-0.51378 -2.44842,-0.3437 -2.46614,-0.17362 -2.47323,0 -2.46614,0.17362 -2.44843,0.3437 -2.42008,0.51378 -2.37756,0.68032 -2.3244,0.84685 -2.26063,1.0063 -2.18268,1.1622 -2.09764,1.31103 -2.00197,1.45275 -1.89212,1.59095 -1.32166,1.27559 -0.0354,0 -0.66262,0.63779 -0.94606,0.7937 -1.00276,0.72992 -1.04882,0.65552 -1.09134,0.57756 -1.13031,0.50314 -1.16221,0.4252 -1.187,0.34016 -1.25079,0.2622 0,5.5878 0.18425,0 0.36142,0.07792 0.34016,0.148845 0.30118,0.21969 0.24448,0.27637 0.1878,0.3189 0.11339,0.35079 0.039,0.3685 -0.039,0.36851 -0.11337,0.35433 -0.1878,0.31889 -0.24448,0.27638 -0.30118,0.21614 -0.34016,0.15237 -0.36142,0.07798 -0.3685,-2.5e-5 -0.36496,-0.07797 -0.33662,-0.152345 -0.30118,-0.21614 -0.24803,-0.27638 -0.18425,-0.31889 -0.11339,-0.35433 -0.039,-0.36851 -15.05904,0 -0.039,0.36851 -0.11337,0.35433 -0.18425,0.31889 -0.24804,0.27638 -0.30118,0.21614 -0.33661,0.15237 -0.36496,0.07798 -0.36851,-2.5e-5 -0.36141,-0.07797 -0.34016,-0.152345 -0.30118,-0.21614 -0.24449,-0.27638 -0.18779,-0.31889 -0.11339,-0.35433 -0.039,-0.36851 0.039,-0.3685 0.11338,-0.35079 0.18779,-0.3189 0.24449,-0.27637 0.30118,-0.21969 0.34016,-0.14882 0.36141,-0.07793 0.18426,-2.5e-5 0,-5.33622 -105.41339,0 0,5.33622 0.18425,0 0.36142,0.07792 0.34016,0.148845 0.30118,0.21969 0.24449,0.27637 0.18779,0.3189 0.11339,0.35079 0.039,0.3685 -0.039,0.36851 -0.11338,0.35433 -0.18779,0.31889 -0.24449,0.27638 -0.30118,0.21614 -0.34016,0.15237 -0.36142,0.07798 -0.3685,-2.5e-5 -0.36496,-0.07797 -0.33662,-0.152345 -0.30118,-0.21614 -0.24803,-0.27638 -0.18425,-0.31889 -0.11339,-0.35433 -0.039,-0.36851 -15.05905,0 -0.039,0.36851 -0.11338,0.35433 -0.18425,0.31889 -0.24803,0.27638 -0.30118,0.21614 -0.33662,0.15237 -0.36496,0.07798 -0.36957,-2.5e-5 -0.36212,-0.07797 -0.33839,-0.152345 -0.29976,-0.21614 -0.24768,-0.27638 -0.18531,-0.31889 -0.11445,-0.35433 -0.0386,-0.36851 0.0386,-0.3685 0.11447,-0.35079 0.18531,-0.3189 0.24768,-0.27637 0.29976,-0.21969 0.33839,-0.14882 0.36212,-0.07793 0.18532,-2.5e-5 0,-5.33622 -53.14961,0 0,5.33622 0.18532,0 0.36212,0.07792 0.33839,0.148845 0.29976,0.21969 0.24768,0.27637 0.18531,0.3189 0.11445,0.35079 0.0386,0.3685 -0.0386,0.36851 -0.11446,0.35433 -0.18531,0.31889 -0.24768,0.27638 -0.29976,0.21614 -0.33839,0.15237 -0.36212,0.07798 -0.37063,-2.5e-5 -0.36213,-0.07797 -0.33838,-0.152345 -0.29977,-0.21614 -0.24768,-0.27638 -0.18531,-0.31889 -0.11445,-0.35433 -0.0386,-0.36851 -15.05907,0 -0.0386,0.36851 -0.11446,0.35433 -0.18531,0.31889 -0.24768,0.27638 -0.29976,0.21614 -0.33839,0.15237 -0.36213,0.07798 -0.37063,-2.5e-5 -0.36212,-0.07797 -0.33839,-0.152345 -0.29976,-0.21614 -0.24768,-0.27638 -0.18531,-0.31889 -0.11445,-0.35433 -0.0386,-0.36851 0.0386,-0.3685 0.11446,-0.35079 0.18531,-0.3189 0.24768,-0.27637 0.29976,-0.21969 0.33839,-0.14882 0.36212,-0.07793 0.18532,-2.5e-5 0,-5.33622 -33.66142,0 0,5.33622 0.18532,0 0.36212,0.07792 0.33839,0.148845 0.29976,0.21969 0.24768,0.27637 0.18532,0.3189 0.11444,0.35079 0.0386,0.3685 -0.0386,0.36851 -0.11445,0.35433 -0.18532,0.31889 -0.24768,0.27638 -0.29976,0.21614 -0.33839,0.15237 -0.36212,0.07798 -0.37063,-2.5e-5 -0.36213,-0.07797 -0.33838,-0.152345 -0.29977,-0.21614 -0.24768,-0.27638 -0.18531,-0.31889 -0.11445,-0.35433 -0.0386,-0.36851 -15.05907,0 -0.0386,0.36851 -0.11446,0.35433 -0.18531,0.31889 -0.24768,0.27638 -0.29976,0.21614 -0.33839,0.15237 -0.36212,0.07798 -0.37063,-2.5e-5 -0.36213,-0.07797 -0.33839,-0.152345 -0.29976,-0.21614 -0.24768,-0.27638 -0.18531,-0.31889 -0.11445,-0.35433 -0.0386,-0.36851 0.0386,-0.3685 0.11446,-0.35079 0.18531,-0.3189 0.24768,-0.27637 0.29976,-0.21969 0.33839,-0.14882 0.36213,-0.07793 0.18531,-2.5e-5 0,-5.33622 -53.14961,0 0,5.33622 0.18532,0 0.36212,0.07792 0.33839,0.148845 0.29976,0.21969 0.24768,0.27637 0.18532,0.3189 0.11445,0.35079 0.0386,0.3685 -0.0386,0.36851 -0.11446,0.35433 -0.18532,0.31889 -0.24768,0.27638 -0.29976,0.21614 -0.33839,0.15237 -0.36212,0.07798 -0.37063,-2.5e-5 -0.36213,-0.07797 -0.33838,-0.152345 -0.29977,-0.21614 -0.24767,-0.27638 -0.18532,-0.31889 -0.11445,-0.35433 -0.0386,-0.36851 -15.05906,0 -0.0386,0.36851 -0.11446,0.35433 -0.18531,0.31889 -0.24768,0.27638 -0.29976,0.21614 -0.33839,0.15237 -0.36212,0.07798 -0.37063,-2.5e-5 -0.36213,-0.07797 -0.33839,-0.152345 -0.29976,-0.21614 -0.24768,-0.27638 -0.18531,-0.31889 -0.11445,-0.35433 -0.0386,-0.36851 0.0386,-0.3685 0.11446,-0.35079 0.18531,-0.3189 0.24768,-0.27637 0.29976,-0.21969 0.33839,-0.14882 0.36213,-0.07793 0.18531,-2.5e-5 0,-5.33622 -105.41338,0 0,5.33622 0.18531,0 0.36213,0.07792 0.33838,0.148845 0.29977,0.21969 0.24767,0.27637 0.18532,0.3189 0.11445,0.35079 0.0386,0.3685 -0.0386,0.36851 -0.11446,0.35433 -0.18532,0.31889 -0.24767,0.27638 -0.29977,0.21614 -0.33838,0.15237 -0.36213,0.07798 -0.37063,-2.5e-5 -0.36213,-0.07797 -0.33838,-0.152345 -0.29976,-0.21614 -0.24768,-0.27638 -0.18532,-0.31889 -0.11445,-0.35433 -0.0386,-0.36851 -15.05906,0 -0.0386,0.36851 -0.11446,0.35433 -0.18532,0.31889 -0.24768,0.27638 -0.29976,0.21614 -0.33835,0.15237 -0.36223,0.07798 -0.37042,-2.5e-5 -0.36227,-0.07797 -0.33838,-0.152345 -0.29963,-0.21614 -0.24781,-0.27638 -0.18521,-0.31889 -0.11442,-0.35433 -0.0388,-0.36851 0.0388,-0.3685 0.1144,-0.35079 0.18521,-0.3189 0.24781,-0.27637 0.29963,-0.21969 0.33838,-0.14882 0.36227,-0.07793 0.18517,-2.5e-5 0,-5.5878 -1.25082,-0.2622 -1.18871,-0.34016 -1.16199,-0.4252 -1.12975,-0.50314 -1.0918,-0.57756 -1.04875,-0.65552 -1.00038,-0.72992 -0.9473,-0.7937 -0.66118,-0.63779 -0.0349,0 -1.32231,-1.27559 -1.89461,-1.59095 -2.00083,-1.45275 -2.09736,-1.31103 -2.18374,-1.1622 -2.25935,-1.0063 -2.32405,-0.84685 -2.37742,-0.68032 -2.41909,-0.51378 -2.44917,-0.3437 -2.46715,-0.17362 -2.47312,0 -2.46715,0.17362 -2.44917,0.3437 -2.41909,0.51378 -2.37742,0.68032 -2.324051,0.84685 -2.259354,1.0063 -2.18367,1.1622 -2.097425,1.31103 -2.000834,1.45275 -1.894607,1.59095 -1.322291,1.27559 -0.02332,0 3e-6,0.02128 -0.433453,0.41809 -1.654866,1.83897 -1.522665,1.94882 -1.382988,2.05158 -1.236615,2.14016 -1.084181,2.22519 -0.926433,2.29252 -0.764291,2.35276 -0.598288,2.39882 -0.429519,2.43425 -0.258484,2.45905 -0.08635,2.47323 0.08635,2.47323 0.258485,2.45905 0.429519,2.43426 0.598288,2.39882 0.764291,2.35275 0.926433,2.29252 1.084181,2.2252 1.236615,2.14016 1.382988,2.05157 1.522665,1.94882 1.654866,1.83898 0.433453,0.43228 0,0.0177 0.216744,0.20906 0.827433,0.92126 0.761315,0.97441 0.691512,1.02402 0.618307,1.07007 0.542091,1.1126 0.463216,1.14803 0.38211,1.17284 0.299197,1.20118 0.214689,1.2189 0.129295,1.22953 0.04312,1.23661 10e-7,456.3298 -0.04312,1.2359 -0.129296,1.2297 -0.214689,1.2179 -0.299197,1.1998 -0.38211,1.1761 -0.463216,1.1466 -0.542091,1.1114 -0.618307,1.0709 -0.691512,1.0252 -0.761315,0.9745 -0.827433,0.9189 -0.216744,0.2093 0,0.019 -0.433453,0.43335 -1.654866,1.838 -1.522665,1.9489 -1.382988,2.0504 -1.236615,2.1418 -1.084181,2.2229 -0.926433,2.2931 -0.764291,2.3522 -0.598288,2.3996 -0.429519,2.4357 -0.258484,2.4597 -0.08635,2.4716 0.08635,2.4717 0.258485,2.4596 0.429519,2.4357 0.598288,2.3996 0.764291,2.3522 0.926433,2.2931 1.084181,2.2229 1.236615,2.1418 1.382988,2.0504 1.522665,1.9489 1.654866,1.838 0.433453,0.4185 0,0.0222 0.02332,2.5e-4 1.322289,1.277 1.894607,1.5897 2.000834,1.4537 2.097355,1.3106 2.18374,1.1611 2.259354,1.006 2.324051,0.8458 2.37742,0.6818 2.41909,0.5141 2.44917,0.3442 2.46715,0.1726 2.47312,0 2.46715,-0.1726 2.44917,-0.3442 2.41909,-0.5141 2.37742,-0.6818 2.32405,-0.8458 2.25935,-1.006 2.18374,-1.1611 2.09736,-1.3106 2.00083,-1.4537 1.89461,-1.5897 1.32229,-1.277 0.0349,0 0.6612,-0.6384 0.9473,-0.7949 1.00038,-0.7268 1.04875,-0.6553 1.0918,-0.5806 1.12975,-0.503 1.16199,-0.4229 1.18871,-0.3409 1.25082,-0.2629 0,-5.5879 -0.18517,0 -0.36227,-0.077 -0.33838,-0.1507 -0.29963,-0.2177 -0.24781,-0.2752 -0.18521,-0.3208 -0.11442,-0.3522 -0.0388,-0.3684 0.0388,-0.3683 0.1144,-0.3523 0.18521,-0.3207 0.24781,-0.2753 0.29963,-0.2177 0.33838,-0.1507 0.36227,-0.077 0.37042,5e-5 0.36223,0.0769 0.33835,0.15065 0.29976,0.2177 0.24768,0.2753 0.18532,0.3207 0.11445,0.3523 0.0386,0.3683 15.05906,0 0.0386,-0.3683 0.11446,-0.3523 0.18532,-0.3207 0.24768,-0.2753 0.29976,-0.2177 0.33838,-0.1507 0.36213,-0.077 0.37063,5e-5 0.36213,0.0769 0.33838,0.15065 0.29977,0.2177 0.24767,0.2753 0.18532,0.3207 0.11445,0.3523 0.0386,0.3683 -0.0386,0.3684 -0.11446,0.3522 -0.18532,0.3208 -0.24767,0.2752 -0.29977,0.2177 -0.33838,0.1507 -0.36213,0.077 -0.18531,0 0,5.3353 105.41338,0 0,-5.3353 -0.18531,0 -0.36213,-0.077 -0.33839,-0.1507 -0.29976,-0.2177 -0.24768,-0.2752 -0.18531,-0.3208 -0.11445,-0.3522 -0.0386,-0.3684 0.0386,-0.3683 0.11446,-0.3523 0.18531,-0.3207 0.24768,-0.2753 0.29976,-0.2177 0.33839,-0.1507 0.36213,-0.077 0.37063,5e-5 0.36212,0.0769 0.33839,0.15065 0.29976,0.2177 0.24768,0.2753 0.18531,0.3207 0.11445,0.3523 0.0386,0.3683 15.05907,0 0.0386,-0.3683 0.11446,-0.3523 0.18532,-0.3207 0.24767,-0.2753 0.29977,-0.2177 0.33838,-0.1507 0.36213,-0.077 0.37063,5e-5 0.36212,0.0769 0.33839,0.15065 0.29976,0.2177 0.24768,0.2753 0.18532,0.3207 0.11445,0.3523 0.0386,0.3683 -0.0386,0.3684 -0.11446,0.3522 -0.18532,0.3208 -0.24768,0.2752 -0.29976,0.2177 -0.33839,0.1507 -0.36212,0.077 -0.18532,0 0,5.3353 53.14961,0 0,-5.3353 -0.18531,0 -0.36213,-0.077 -0.33839,-0.1507 -0.29976,-0.2177 -0.24768,-0.2752 -0.18531,-0.3208 -0.11445,-0.3522 -0.0386,-0.3684 0.0386,-0.3683 0.11446,-0.3523 0.18531,-0.3207 0.24768,-0.2753 0.29976,-0.2177 0.33839,-0.1507 0.36213,-0.077 0.37063,5e-5 0.36212,0.0769 0.33839,0.15065 0.29976,0.2177 0.24768,0.2753 0.18531,0.3207 0.11445,0.3523 0.0386,0.3683 15.05907,0 0.0386,-0.3683 0.11446,-0.3523 0.18531,-0.3207 0.24768,-0.2753 0.29977,-0.2177 0.33838,-0.1507 0.36213,-0.077 0.37063,5e-5 0.36212,0.0769 0.33839,0.15065 0.29976,0.2177 0.24768,0.2753 0.18532,0.3207 0.11444,0.3523 0.0386,0.3683 -0.0386,0.3684 -0.11445,0.3522 -0.18532,0.3208 -0.24768,0.2752 -0.29976,0.2177 -0.33839,0.1507 -0.36212,0.077 -0.18532,0 0,5.3353 33.66142,0 0,-5.3353 -0.18532,0 -0.36212,-0.077 -0.33839,-0.1507 -0.29976,-0.2177 -0.24768,-0.2752 -0.18531,-0.3208 -0.11445,-0.3522 -0.0386,-0.3684 0.0386,-0.3683 0.11446,-0.3523 0.18531,-0.3207 0.24768,-0.2753 0.29976,-0.2177 0.33839,-0.1507 0.36212,-0.077 0.37063,5e-5 0.36213,0.0769 0.33839,0.15065 0.29976,0.2177 0.24768,0.2753 0.18531,0.3207 0.11445,0.3523 0.0386,0.3683 15.05907,0 0.0386,-0.3683 0.11446,-0.3523 0.18531,-0.3207 0.24768,-0.2753 0.29977,-0.2177 0.33838,-0.1507 0.36213,-0.077 0.37063,5e-5 0.36212,0.0769 0.33839,0.15065 0.29976,0.2177 0.24768,0.2753 0.18531,0.3207 0.11445,0.3523 0.0386,0.3683 -0.0386,0.3684 -0.11446,0.3522 -0.18531,0.3208 -0.24768,0.2752 -0.29976,0.2177 -0.33839,0.1507 -0.36212,0.077 -0.18532,0 0,5.3353 53.14961,0 0,-5.3353 -0.18532,0 -0.36212,-0.077 -0.33839,-0.1507 -0.29976,-0.2177 -0.24768,-0.2752 -0.18531,-0.3208 -0.11445,-0.3522 -0.0386,-0.3684 0.0386,-0.3683 0.11447,-0.3523 0.18531,-0.3207 0.24768,-0.2753 0.29976,-0.2177 0.33839,-0.1507 0.36212,-0.077 0.36957,5e-5 0.36496,0.0769 0.33662,0.15065 0.30118,0.2177 0.24803,0.2753 0.18425,0.3207 0.11339,0.3523 0.039,0.3683 15.05904,0 0.039,-0.3683 0.11337,-0.3523 0.18425,-0.3207 0.24803,-0.2753 0.30118,-0.2177 0.33662,-0.1507 0.36496,-0.077 0.3685,5e-5 0.36142,0.0769 0.34016,0.15065 0.30118,0.2177 0.24449,0.2753 0.18779,0.3207 0.11339,0.3523 0.039,0.3683 -0.039,0.3684 -0.11338,0.3522 -0.18779,0.3208 -0.24449,0.2752 -0.30118,0.2177 -0.34016,0.1507 -0.36142,0.077 -0.18425,0 0,5.3353 105.41339,0 0,-5.3353 -0.18426,0 -0.36141,-0.077 -0.34016,-0.1507 -0.30118,-0.2177 -0.24449,-0.2752 -0.18779,-0.3208 -0.11339,-0.3522 -0.039,-0.3684 0.039,-0.3683 0.11338,-0.3523 0.18779,-0.3207 0.24449,-0.2753 0.30118,-0.2177 0.34016,-0.1507 0.36141,-0.077 0.36851,5e-5 0.36496,0.0769 0.33661,0.15065 0.30118,0.2177 0.24804,0.2753 0.18425,0.3207 0.11338,0.3523 0.039,0.3683 15.05904,0 0.039,-0.3683 0.11338,-0.3523 0.18425,-0.3207 0.24803,-0.2753 0.30118,-0.2177 0.33662,-0.1507 0.36496,-0.077 0.3685,5e-5 0.36142,0.0769 0.34016,0.15065 0.30118,0.2177 0.24448,0.2753 0.1878,0.3207 0.11339,0.3523 0.039,0.3683 -0.039,0.3684 -0.11337,0.3522 -0.1878,0.3208 -0.24448,0.2752 -0.30118,0.2177 -0.34016,0.1507 -0.36142,0.077 -0.18425,0 0,5.5879 1.25079,0.2629 1.187,0.3409 1.16221,0.4229 1.13031,0.503 1.09134,0.5806 1.04882,0.6553 1.00276,0.7268 0.94606,0.7949 0.6626,0.6384 0.0354,0 1.32167,1.277 1.89212,1.5897 2.00197,1.4537 2.09764,1.3106 2.18268,1.1611 2.26063,1.006 2.3244,0.8458 2.37756,0.6818 2.42008,0.5141 2.44843,0.3442 2.46614,0.1726 2.47323,0 2.46614,-0.1726 2.44842,-0.3442 2.42008,-0.5141 2.37756,-0.6818 2.32441,-0.8458 2.26063,-1.006 2.18268,-1.1611 2.09764,-1.3106 2.00196,-1.4537 1.89213,-1.5897 1.32165,-1.277 0.0248,0 0,-0.0222 z"
       style="fill:none;stroke:#0000ff;stroke-opacity:1"
       id="path30408"
       sodipodi:nodetypes="ccccccccccccccccccccccccccccccccccccccccccccccccccccccccccccccccccccccccccccccccccccccccccccccccccccccccccccccccccccccccccccccccccccccccccccccccccccccccccccccccccccccccccccccccccccccccccccccccccccccccccccccccccccccccccccccccccccccccccccccccccccccccccccccccccccccccccccccccccccccccccccccccccccccccccccccccccccccccccccccccccccccccccccccccccccccccccccccccccccccccccccccccccccccccccccccccccccccccccccccccccccccccccccccccccccccccccccccccccccccccccccccccccccccccccccccccccccccccccccccccccccccccccccccccccccccccccccccccccccccccccccccccccccccccccccccccccccccccccccccccccccccccccccccccccccccccccccccccccccccccccccccccccccccccccccccccccccccccccccccccccccccccccccccccccccccccccccccccccccccccccccccccccccccccccccccccccccccccccccccccccccccccccccccccccccccccccccccccccccccccccccccccccccccccccccccccccccccccccccccccccccccccccccccccccccccccccccccccccccccccccccccccccccccccccccccccccccccccccccccccccccccccc" />
    <g
       id="g44955"
       style="stroke:#ff0000;stroke-opacity:1">
      <path
         sodipodi:nodetypes="ccccccccccccccccccccccccccccccc"
         id="path31514"
         style="fill:none;stroke:#ff0000;stroke-opacity:1"
         d="m 118.32485,86.29132 0.48072,1.47756 0.16257,1.54842 -0.16257,1.54843 -0.48072,1.47756 -0.77779,1.34645 -1.04088,1.15866 -1.25851,0.91418 -1.4211,0.63071 -1.52159,0.32598 -1.5555,0 -1.52159,-0.32598 -1.4211,-0.63071 -1.25851,-0.91418 -1.04088,-1.15866 -0.77779,-1.34645 -0.48072,-1.47756 -0.16257,-1.54843 0.16257,-1.54842 0.48072,-1.47756 0.77779,-1.34646 1.04088,-1.15866 1.25851,-0.91417 1.4211,-0.63071 1.52159,-0.32244 1.5555,0 1.52159,0.32244 1.4211,0.63071 1.25851,0.91417 1.04088,1.15866 z"
         inkscape:connector-curvature="0" />
      <path
         sodipodi:nodetypes="ccccccccccccccccccccccccccccccc"
         id="path31548"
         style="fill:none;stroke:#ff0000;stroke-opacity:1"
         d="m 635.58235,89.3173 0.16299,-1.54842 0.48189,-1.47756 0.77598,-1.34646 1.04174,-1.15866 1.25787,-0.91417 1.42087,-0.63071 1.52008,-0.32244 1.55551,0 1.52362,0.32244 1.42087,0.63071 1.25787,0.91417 1.04173,1.15866 0.77599,1.34646 0.48189,1.47756 0.16299,1.54842 -0.16299,1.54843 -0.48189,1.47756 -0.77599,1.34645 -1.04173,1.15866 -1.25787,0.91418 -1.42087,0.63071 -1.52362,0.32598 -1.55551,0 -1.52008,-0.32598 -1.42087,-0.63071 -1.25787,-0.91418 -1.04174,-1.15866 -0.77598,-1.34645 -0.48189,-1.47756 z"
         inkscape:connector-curvature="0" />
      <path
         sodipodi:nodetypes="ccccccccccccccccccccccccccccccc"
         id="path31600"
         style="fill:none;stroke:#ff0000;stroke-opacity:1"
         d="m 214.62577,143.54053 -0.66933,-0.74055 -0.49996,-0.86811 -0.30897,-0.94961 -0.10453,-0.99567 0.10453,-0.99567 0.30897,-0.9496 0.49996,-0.86457 0.66933,-0.74409 0.80894,-0.58819 0.91346,-0.40748 0.97831,-0.20906 0.99992,0 0.97831,0.20906 0.91347,0.40748 0.80893,0.58819 0.66933,0.74409 0.49996,0.86457 0.30898,0.9496 0.10453,0.99567 -0.10453,0.99567 -0.30898,0.94961 -0.49996,0.86811 -0.66933,0.74055 -0.80893,0.58819 -0.91347,0.40748 -0.97831,0.20905 -0.99992,0 -0.97831,-0.20905 -0.91346,-0.40748 z"
         inkscape:connector-curvature="0" />
      <path
         sodipodi:nodetypes="ccccccccccccccccccccccccccccccc"
         id="path31660"
         style="fill:none;stroke:#ff0000;stroke-opacity:1"
         d="m 356.35806,143.54053 -0.66933,-0.74055 -0.49997,-0.86811 -0.30897,-0.94961 -0.10453,-0.99567 0.10453,-0.99567 0.30897,-0.9496 0.49997,-0.86457 0.66933,-0.74409 0.80893,-0.58819 0.91347,-0.40748 0.9783,-0.20906 0.99993,0 0.9783,0.20906 0.91347,0.40748 0.80893,0.58819 0.66934,0.74409 0.49996,0.86457 0.30897,0.9496 0.10453,0.99567 -0.10453,0.99567 -0.30897,0.94961 -0.49996,0.86811 -0.66934,0.74055 -0.80893,0.58819 -0.91347,0.40748 -0.9783,0.20905 -0.99993,0 -0.9783,-0.20905 -0.91347,-0.40748 z"
         inkscape:connector-curvature="0" />
      <path
         sodipodi:nodetypes="ccccccccccccccccccccccccccccccc"
         id="path31720"
         style="fill:none;stroke:#ff0000;stroke-opacity:1"
         d="m 320.92499,143.54053 -0.66934,-0.74055 -0.49996,-0.86811 -0.30897,-0.94961 -0.10453,-0.99567 0.10453,-0.99567 0.30897,-0.9496 0.49996,-0.86457 0.66934,-0.74409 0.80893,-0.58819 0.91347,-0.40748 0.9783,-0.20906 0.99993,0 0.9783,0.20906 0.91347,0.40748 0.80893,0.58819 0.66933,0.74409 0.49997,0.86457 0.30897,0.9496 0.10453,0.99567 -0.10453,0.99567 -0.30897,0.94961 -0.49997,0.86811 -0.66933,0.74055 -0.80893,0.58819 -0.91347,0.40748 -0.9783,0.20905 -0.99993,0 -0.9783,-0.20905 -0.91347,-0.40748 z"
         inkscape:connector-curvature="0" />
      <path
         sodipodi:nodetypes="ccccccccccccccccccccccccccccccc"
         id="path31780"
         style="fill:none;stroke:#ff0000;stroke-opacity:1"
         d="m 285.49191,143.54053 -0.66933,-0.74055 -0.49996,-0.86811 -0.30897,-0.94961 -0.10453,-0.99567 0.10453,-0.99567 0.30897,-0.9496 0.49996,-0.86457 0.66933,-0.74409 0.80894,-0.58819 0.91347,-0.40748 0.9783,-0.20906 0.99992,0 0.97831,0.20906 0.91347,0.40748 0.80893,0.58819 0.66933,0.74409 0.49996,0.86457 0.30898,0.9496 0.10453,0.99567 -0.10453,0.99567 -0.30898,0.94961 -0.49996,0.86811 -0.66933,0.74055 -0.80893,0.58819 -0.91347,0.40748 -0.97831,0.20905 -0.99992,0 -0.9783,-0.20905 -0.91347,-0.40748 z"
         inkscape:connector-curvature="0" />
      <path
         sodipodi:nodetypes="ccccccccccccccccccccccccccccccc"
         id="path31868"
         style="fill:none;stroke:#ff0000;stroke-opacity:1"
         d="m 255.65125,135.84447 0.80893,0.58819 0.66933,0.74409 0.49996,0.86457 0.30898,0.9496 0.10453,0.99567 -0.10453,0.99567 -0.30898,0.94961 -0.49996,0.86811 -0.66933,0.74055 -0.80893,0.58819 -0.91347,0.40748 -0.97831,0.20905 -0.99992,0 -0.9783,-0.20905 -0.91347,-0.40748 -0.80894,-0.58819 -0.66933,-0.74055 -0.49996,-0.86811 -0.30897,-0.94961 -0.10453,-0.99567 0.10453,-0.99567 0.30897,-0.9496 0.49996,-0.86457 0.66933,-0.74409 0.80894,-0.58819 0.91347,-0.40748 0.9783,-0.20906 0.99992,0 0.97831,0.20906 z"
         inkscape:connector-curvature="0" />
      <path
         sodipodi:nodetypes="ccccccccccccccccccccccccccccccc"
         id="path31928"
         style="fill:none;stroke:#ff0000;stroke-opacity:1"
         d="m 397.38353,135.84447 0.80894,0.58819 0.66933,0.74409 0.49996,0.86457 0.30897,0.9496 0.10453,0.99567 -0.10453,0.99567 -0.30897,0.94961 -0.49996,0.86811 -0.66933,0.74055 -0.80894,0.58819 -0.91347,0.40748 -0.9783,0.20905 -0.99992,0 -0.97831,-0.20905 -0.91347,-0.40748 -0.80893,-0.58819 -0.66933,-0.74055 -0.49996,-0.86811 -0.30898,-0.94961 -0.10453,-0.99567 0.10453,-0.99567 0.30898,-0.9496 0.49996,-0.86457 0.66933,-0.74409 0.80893,-0.58819 0.91347,-0.40748 0.97831,-0.20906 0.99992,0 0.9783,0.20906 z"
         inkscape:connector-curvature="0" />
      <path
         sodipodi:nodetypes="ccccccccccccccccccccccccccccccc"
         id="path31976"
         style="fill:none;stroke:#ff0000;stroke-opacity:1"
         d="m 427.2242,136.43266 0.80894,-0.58819 0.91346,-0.40748 0.97831,-0.20906 0.99992,0 0.97831,0.20906 0.91346,0.40748 0.80894,0.58819 0.66933,0.74409 0.49996,0.86457 0.30897,0.9496 0.10453,0.99567 -0.10453,0.99567 -0.30897,0.94961 -0.49996,0.86811 -0.66933,0.74055 -0.80894,0.58819 -0.91346,0.40748 -0.97831,0.20905 -0.99992,0 -0.97831,-0.20905 -0.91346,-0.40748 -0.80894,-0.58819 -0.66933,-0.74055 -0.49996,-0.86811 -0.30898,-0.94961 -0.10453,-0.99567 0.10453,-0.99567 0.30898,-0.9496 0.49996,-0.86457 z"
         inkscape:connector-curvature="0" />
      <path
         sodipodi:nodetypes="ccccccccccccccccccccccccccccccc"
         id="path32048"
         style="fill:none;stroke:#ff0000;stroke-opacity:1"
         d="m 468.24967,135.84447 0.80787,0.58819 0.66969,0.74409 0.49961,0.86457 0.30826,0.9496 0.1063,0.99567 -0.1063,0.99567 -0.30826,0.94961 -0.49961,0.86811 -0.66969,0.74055 -0.80787,0.58819 -0.91417,0.40748 -0.97796,0.20905 -0.99956,0 -0.97831,-0.20905 -0.91346,-0.40748 -0.80894,-0.58819 -0.66933,-0.74055 -0.49996,-0.86811 -0.30898,-0.94961 -0.10453,-0.99567 0.10453,-0.99567 0.30898,-0.9496 0.49996,-0.86457 0.66933,-0.74409 0.80894,-0.58819 0.91346,-0.40748 0.97831,-0.20906 0.99956,0 0.97796,0.20906 z"
         inkscape:connector-curvature="0" />
      <path
         sodipodi:nodetypes="ccccccccccccccccccccccccccccccc"
         id="path32108"
         style="fill:none;stroke:#ff0000;stroke-opacity:1"
         d="m 503.68274,135.84447 0.80788,0.58819 0.66968,0.74409 0.49961,0.86457 0.30826,0.9496 0.1063,0.99567 -0.1063,0.99567 -0.30826,0.94961 -0.49961,0.86811 -0.66968,0.74055 -0.80788,0.58819 -0.91417,0.40748 -0.97795,0.20905 -0.99922,0 -0.97795,-0.20905 -0.91417,-0.40748 -0.80788,-0.58819 -0.66968,-0.74055 -0.49961,-0.86811 -0.31181,-0.94961 -0.10275,-0.99567 0.10275,-0.99567 0.31181,-0.9496 0.49961,-0.86457 0.66968,-0.74409 0.80788,-0.58819 0.91417,-0.40748 0.97795,-0.20906 0.99922,0 0.97795,0.20906 z"
         inkscape:connector-curvature="0" />
      <path
         sodipodi:nodetypes="ccccccccccccccccccccccccccccccc"
         id="path32168"
         style="fill:none;stroke:#ff0000;stroke-opacity:1"
         d="m 539.11581,135.84447 0.80788,0.58819 0.66968,0.74409 0.49961,0.86457 0.30827,0.9496 0.1063,0.99567 -0.1063,0.99567 -0.30827,0.94961 -0.49961,0.86811 -0.66968,0.74055 -0.80788,0.58819 -0.91417,0.40748 -0.97795,0.20905 -0.99922,0 -0.97795,-0.20905 -0.91417,-0.40748 -0.80788,-0.58819 -0.66968,-0.74055 -0.49961,-0.86811 -0.31181,-0.94961 -0.10275,-0.99567 0.10275,-0.99567 0.31181,-0.9496 0.49961,-0.86457 0.66968,-0.74409 0.80788,-0.58819 0.91417,-0.40748 0.97795,-0.20906 0.99922,0 0.97795,0.20906 z"
         inkscape:connector-curvature="0" />
      <path
         sodipodi:nodetypes="ccccccccccccccccccccccccccccccc"
         id="path32228"
         style="fill:none;stroke:#ff0000;stroke-opacity:1"
         d="m 184.7851,135.84447 0.80894,0.58819 0.66933,0.74409 0.49996,0.86457 0.30898,0.9496 0.10453,0.99567 -0.10453,0.99567 -0.30898,0.94961 -0.49996,0.86811 -0.66933,0.74055 -0.80894,0.58819 -0.91346,0.40748 -0.97831,0.20905 -0.99992,0 -0.97831,-0.20905 -0.91346,-0.40748 -0.80894,-0.58819 -0.66933,-0.74055 -0.49996,-0.86811 -0.30898,-0.94961 -0.10452,-0.99567 0.10452,-0.99567 0.30898,-0.9496 0.49996,-0.86457 0.66933,-0.74409 0.80894,-0.58819 0.91346,-0.40748 0.97831,-0.20906 0.99992,0 0.97831,0.20906 z"
         inkscape:connector-curvature="0" />
      <path
         sodipodi:nodetypes="ccccccccccccccccccccccccccccccc"
         id="path32288"
         style="fill:none;stroke:#ff0000;stroke-opacity:1"
         d="m 574.54888,135.84447 0.80788,0.58819 0.66968,0.74409 0.49961,0.86457 0.30827,0.9496 0.1063,0.99567 -0.1063,0.99567 -0.30827,0.94961 -0.49961,0.86811 -0.66968,0.74055 -0.80788,0.58819 -0.91417,0.40748 -0.97795,0.20905 -0.99922,0 -0.97795,-0.20905 -0.91417,-0.40748 -0.80788,-0.58819 -0.66968,-0.74055 -0.49961,-0.86811 -0.31181,-0.94961 -0.10275,-0.99567 0.10275,-0.99567 0.31181,-0.9496 0.49961,-0.86457 0.66968,-0.74409 0.80788,-0.58819 0.91417,-0.40748 0.97795,-0.20906 0.99922,0 0.97795,0.20906 z"
         inkscape:connector-curvature="0" />
      <path
         sodipodi:nodetypes="ccccccccccccccccccccccccccccccc"
         id="path32330"
         style="fill:none;stroke:#ff0000;stroke-opacity:1"
         d="m 602.90951,138.99092 0.31181,-0.9496 0.49961,-0.86457 0.66969,-0.74409 0.80787,-0.58819 0.91417,-0.40748 0.97796,-0.20906 0.99921,0 0.97795,0.20906 0.91417,0.40748 0.80788,0.58819 0.66968,0.74409 0.49961,0.86457 0.30827,0.9496 0.1063,0.99567 -0.1063,0.99567 -0.30827,0.94961 -0.49961,0.86811 -0.66968,0.74055 -0.80788,0.58819 -0.91417,0.40748 -0.97795,0.20905 -0.99921,0 -0.97796,-0.20905 -0.91417,-0.40748 -0.80787,-0.58819 -0.66969,-0.74055 -0.49961,-0.86811 -0.31181,-0.94961 -0.10275,-0.99567 z"
         inkscape:connector-curvature="0" />
      <path
         sodipodi:nodetypes="ccccccccccccccccccccccccccccccc"
         id="path32380"
         style="fill:none;stroke:#ff0000;stroke-opacity:1"
         d="m 143.75956,143.54053 -0.66912,-0.74055 -0.50003,-0.86811 -0.30905,-0.94961 -0.10449,-0.99567 0.10449,-0.99567 0.30905,-0.9496 0.50003,-0.86457 0.66912,-0.74409 0.80904,-0.58819 0.91357,-0.40748 0.97813,-0.20906 0.99996,0 0.97831,0.20906 0.91346,0.40748 0.80894,0.58819 0.66933,0.74409 0.49996,0.86457 0.30898,0.9496 0.10452,0.99567 -0.10452,0.99567 -0.30898,0.94961 -0.49996,0.86811 -0.66933,0.74055 -0.80894,0.58819 -0.91346,0.40748 -0.97831,0.20905 -0.99996,0 -0.97813,-0.20905 -0.91357,-0.40748 z"
         inkscape:connector-curvature="0" />
      <path
         sodipodi:nodetypes="ccccccccccccccccccccccccccccccc"
         id="path32482"
         style="fill:none;stroke:#ff0000;stroke-opacity:1"
         d="m 328.49562,177.36494 -0.49997,0.86811 -0.66933,0.74055 -0.80893,0.58819 -0.91347,0.40748 -0.9783,0.20906 -0.99993,0 -0.9783,-0.20906 -0.91347,-0.40748 -0.80893,-0.58819 -0.66934,-0.74055 -0.49996,-0.86811 -0.30897,-0.94961 -0.10453,-0.99567 0.10453,-0.99566 0.30897,-0.94961 0.49996,-0.86457 0.66934,-0.74409 0.80893,-0.58819 0.91347,-0.40748 0.9783,-0.20906 0.99993,0 0.9783,0.20906 0.91347,0.40748 0.80893,0.58819 0.66933,0.74409 0.49997,0.86457 0.30897,0.94961 0.10453,0.99566 -0.10453,0.99567 z"
         inkscape:connector-curvature="0" />
      <path
         sodipodi:nodetypes="ccccccccccccccccccccccccccccccc"
         id="path32508"
         style="fill:none;stroke:#ff0000;stroke-opacity:1"
         d="m 567.37369,175.41966 0.10275,-0.99566 0.31181,-0.94961 0.49961,-0.86457 0.66968,-0.74409 0.80788,-0.58819 0.91417,-0.40748 0.97795,-0.20906 0.99922,0 0.97795,0.20906 0.91417,0.40748 0.80788,0.58819 0.66968,0.74409 0.49961,0.86457 0.30827,0.94961 0.1063,0.99566 -0.1063,0.99567 -0.30827,0.94961 -0.49961,0.86811 -0.66968,0.74055 -0.80788,0.58819 -0.91417,0.40748 -0.97795,0.20906 -0.99922,0 -0.97795,-0.20906 -0.91417,-0.40748 -0.80788,-0.58819 -0.66968,-0.74055 -0.49961,-0.86811 -0.31181,-0.94961 z"
         inkscape:connector-curvature="0" />
      <path
         sodipodi:nodetypes="ccccccccccccccccccccccccccccccc"
         id="path32604"
         style="fill:none;stroke:#ff0000;stroke-opacity:1"
         d="m 363.42873,178.23305 -0.66934,0.74055 -0.80893,0.58819 -0.91347,0.40748 -0.9783,0.20906 -0.99993,0 -0.9783,-0.20906 -0.91347,-0.40748 -0.80893,-0.58819 -0.66933,-0.74055 -0.49997,-0.86811 -0.30897,-0.94961 -0.10453,-0.99567 0.10453,-0.99566 0.30897,-0.94961 0.49997,-0.86457 0.66933,-0.74409 0.80893,-0.58819 0.91347,-0.40748 0.9783,-0.20906 0.99993,0 0.9783,0.20906 0.91347,0.40748 0.80893,0.58819 0.66934,0.74409 0.49996,0.86457 0.30897,0.94961 0.10453,0.99566 -0.10453,0.99567 -0.30897,0.94961 z"
         inkscape:connector-curvature="0" />
      <path
         sodipodi:nodetypes="ccccccccccccccccccccccccccccccc"
         id="path32628"
         style="fill:none;stroke:#ff0000;stroke-opacity:1"
         d="m 142.17687,175.41966 0.10449,-0.99566 0.30905,-0.94961 0.50003,-0.86457 0.66912,-0.74409 0.80904,-0.58819 0.91357,-0.40748 0.97813,-0.20906 0.99996,0 0.97831,0.20906 0.91346,0.40748 0.80894,0.58819 0.66933,0.74409 0.49996,0.86457 0.30898,0.94961 0.10452,0.99566 -0.10452,0.99567 -0.30898,0.94961 -0.49996,0.86811 -0.66933,0.74055 -0.80894,0.58819 -0.91346,0.40748 -0.97831,0.20906 -0.99996,0 -0.97813,-0.20906 -0.91357,-0.40748 -0.80904,-0.58819 -0.66912,-0.74055 -0.50003,-0.86811 -0.30905,-0.94961 z"
         inkscape:connector-curvature="0" />
      <path
         sodipodi:nodetypes="ccccccccccccccccccccccccccccccc"
         id="path32724"
         style="fill:none;stroke:#ff0000;stroke-opacity:1"
         d="m 398.8618,178.23305 -0.66933,0.74055 -0.80894,0.58819 -0.91347,0.40748 -0.9783,0.20906 -0.99992,0 -0.97831,-0.20906 -0.91347,-0.40748 -0.80893,-0.58819 -0.66933,-0.74055 -0.49996,-0.86811 -0.30898,-0.94961 -0.10453,-0.99567 0.10453,-0.99566 0.30898,-0.94961 0.49996,-0.86457 0.66933,-0.74409 0.80893,-0.58819 0.91347,-0.40748 0.97831,-0.20906 0.99992,0 0.9783,0.20906 0.91347,0.40748 0.80894,0.58819 0.66933,0.74409 0.49996,0.86457 0.30897,0.94961 0.10453,0.99566 -0.10453,0.99567 -0.30897,0.94961 z"
         inkscape:connector-curvature="0" />
      <path
         sodipodi:nodetypes="ccccccccccccccccccccccccccccccc"
         id="path32784"
         style="fill:none;stroke:#ff0000;stroke-opacity:1"
         d="m 434.29487,178.23305 -0.66933,0.74055 -0.80894,0.58819 -0.91346,0.40748 -0.97831,0.20906 -0.99992,0 -0.97831,-0.20906 -0.91346,-0.40748 -0.80894,-0.58819 -0.66933,-0.74055 -0.49996,-0.86811 -0.30898,-0.94961 -0.10453,-0.99567 0.10453,-0.99566 0.30898,-0.94961 0.49996,-0.86457 0.66933,-0.74409 0.80894,-0.58819 0.91346,-0.40748 0.97831,-0.20906 0.99992,0 0.97831,0.20906 0.91346,0.40748 0.80894,0.58819 0.66933,0.74409 0.49996,0.86457 0.30897,0.94961 0.10453,0.99566 -0.10453,0.99567 -0.30897,0.94961 z"
         inkscape:connector-curvature="0" />
      <path
         sodipodi:nodetypes="ccccccccccccccccccccccccccccccc"
         id="path32820"
         style="fill:none;stroke:#ff0000;stroke-opacity:1"
         d="m 535.24652,170.87006 0.97795,-0.20906 0.99922,0 0.97795,0.20906 0.91417,0.40748 0.80788,0.58819 0.66968,0.74409 0.49961,0.86457 0.30827,0.94961 0.1063,0.99566 -0.1063,0.99567 -0.30827,0.94961 -0.49961,0.86811 -0.66968,0.74055 -0.80788,0.58819 -0.91417,0.40748 -0.97795,0.20906 -0.99922,0 -0.97795,-0.20906 -0.91417,-0.40748 -0.80788,-0.58819 -0.66968,-0.74055 -0.49961,-0.86811 -0.31181,-0.94961 -0.10275,-0.99567 0.10275,-0.99566 0.31181,-0.94961 0.49961,-0.86457 0.66968,-0.74409 0.80788,-0.58819 z"
         inkscape:connector-curvature="0" />
      <path
         sodipodi:nodetypes="ccccccccccccccccccccccccccccccc"
         id="path32870"
         style="fill:none;stroke:#ff0000;stroke-opacity:1"
         d="m 602.90951,174.424 0.31181,-0.94961 0.49961,-0.86457 0.66969,-0.74409 0.80787,-0.58819 0.91417,-0.40748 0.97796,-0.20906 0.99921,0 0.97795,0.20906 0.91417,0.40748 0.80788,0.58819 0.66968,0.74409 0.49961,0.86457 0.30827,0.94961 0.1063,0.99566 -0.1063,0.99567 -0.30827,0.94961 -0.49961,0.86811 -0.66968,0.74055 -0.80788,0.58819 -0.91417,0.40748 -0.97795,0.20906 -0.99921,0 -0.97796,-0.20906 -0.91417,-0.40748 -0.80787,-0.58819 -0.66969,-0.74055 -0.49961,-0.86811 -0.31181,-0.94961 -0.10275,-0.99567 z"
         inkscape:connector-curvature="0" />
      <path
         sodipodi:nodetypes="ccccccccccccccccccccccccccccccc"
         id="path32964"
         style="fill:none;stroke:#ff0000;stroke-opacity:1"
         d="m 292.56258,178.23305 -0.66933,0.74055 -0.80893,0.58819 -0.91347,0.40748 -0.97831,0.20906 -0.99992,0 -0.9783,-0.20906 -0.91347,-0.40748 -0.80894,-0.58819 -0.66933,-0.74055 -0.49996,-0.86811 -0.30897,-0.94961 -0.10453,-0.99567 0.10453,-0.99566 0.30897,-0.94961 0.49996,-0.86457 0.66933,-0.74409 0.80894,-0.58819 0.91347,-0.40748 0.9783,-0.20906 0.99992,0 0.97831,0.20906 0.91347,0.40748 0.80893,0.58819 0.66933,0.74409 0.49996,0.86457 0.30898,0.94961 0.10453,0.99566 -0.10453,0.99567 -0.30898,0.94961 z"
         inkscape:connector-curvature="0" />
      <path
         sodipodi:nodetypes="ccccccccccccccccccccccccccccccc"
         id="path32988"
         style="fill:none;stroke:#ff0000;stroke-opacity:1"
         d="m 177.60991,175.41966 0.10452,-0.99566 0.30898,-0.94961 0.49996,-0.86457 0.66933,-0.74409 0.80894,-0.58819 0.91346,-0.40748 0.97831,-0.20906 0.99992,0 0.97831,0.20906 0.91346,0.40748 0.80894,0.58819 0.66933,0.74409 0.49996,0.86457 0.30898,0.94961 0.10453,0.99566 -0.10453,0.99567 -0.30898,0.94961 -0.49996,0.86811 -0.66933,0.74055 -0.80894,0.58819 -0.91346,0.40748 -0.97831,0.20906 -0.99992,0 -0.97831,-0.20906 -0.91346,-0.40748 -0.80894,-0.58819 -0.66933,-0.74055 -0.49996,-0.86811 -0.30898,-0.94961 z"
         inkscape:connector-curvature="0" />
      <path
         sodipodi:nodetypes="ccccccccccccccccccccccccccccccc"
         id="path33060"
         style="fill:none;stroke:#ff0000;stroke-opacity:1"
         d="m 216.34817,170.87006 0.97831,-0.20906 0.99992,0 0.97831,0.20906 0.91347,0.40748 0.80893,0.58819 0.66933,0.74409 0.49996,0.86457 0.30898,0.94961 0.10453,0.99566 -0.10453,0.99567 -0.30898,0.94961 -0.49996,0.86811 -0.66933,0.74055 -0.80893,0.58819 -0.91347,0.40748 -0.97831,0.20906 -0.99992,0 -0.97831,-0.20906 -0.91346,-0.40748 -0.80894,-0.58819 -0.66933,-0.74055 -0.49996,-0.86811 -0.30897,-0.94961 -0.10453,-0.99567 0.10453,-0.99566 0.30897,-0.94961 0.49996,-0.86457 0.66933,-0.74409 0.80894,-0.58819 z"
         inkscape:connector-curvature="0" />
      <path
         sodipodi:nodetypes="ccccccccccccccccccccccccccccccc"
         id="path33144"
         style="fill:none;stroke:#ff0000;stroke-opacity:1"
         d="m 257.12951,178.23305 -0.66933,0.74055 -0.80893,0.58819 -0.91347,0.40748 -0.97831,0.20906 -0.99992,0 -0.9783,-0.20906 -0.91347,-0.40748 -0.80894,-0.58819 -0.66933,-0.74055 -0.49996,-0.86811 -0.30897,-0.94961 -0.10453,-0.99567 0.10453,-0.99566 0.30897,-0.94961 0.49996,-0.86457 0.66933,-0.74409 0.80894,-0.58819 0.91347,-0.40748 0.9783,-0.20906 0.99992,0 0.97831,0.20906 0.91347,0.40748 0.80893,0.58819 0.66933,0.74409 0.49996,0.86457 0.30898,0.94961 0.10453,0.99566 -0.10453,0.99567 -0.30898,0.94961 z"
         inkscape:connector-curvature="0" />
      <path
         sodipodi:nodetypes="ccccccccccccccccccccccccccccccc"
         id="path33170"
         style="fill:none;stroke:#ff0000;stroke-opacity:1"
         d="m 461.179,174.424 0.30898,-0.94961 0.49996,-0.86457 0.66933,-0.74409 0.80894,-0.58819 0.91346,-0.40748 0.97831,-0.20906 0.99956,0 0.97796,0.20906 0.91417,0.40748 0.80787,0.58819 0.66969,0.74409 0.49961,0.86457 0.30826,0.94961 0.1063,0.99566 -0.1063,0.99567 -0.30826,0.94961 -0.49961,0.86811 -0.66969,0.74055 -0.80787,0.58819 -0.91417,0.40748 -0.97796,0.20906 -0.99956,0 -0.97831,-0.20906 -0.91346,-0.40748 -0.80894,-0.58819 -0.66933,-0.74055 -0.49996,-0.86811 -0.30898,-0.94961 -0.10453,-0.99567 z"
         inkscape:connector-curvature="0" />
      <path
         sodipodi:nodetypes="ccccccccccccccccccccccccccccccc"
         id="path33264"
         style="fill:none;stroke:#ff0000;stroke-opacity:1"
         d="m 505.1603,178.23305 -0.66968,0.74055 -0.80788,0.58819 -0.91417,0.40748 -0.97795,0.20906 -0.99922,0 -0.97795,-0.20906 -0.91417,-0.40748 -0.80788,-0.58819 -0.66968,-0.74055 -0.49961,-0.86811 -0.31181,-0.94961 -0.10275,-0.99567 0.10275,-0.99566 0.31181,-0.94961 0.49961,-0.86457 0.66968,-0.74409 0.80788,-0.58819 0.91417,-0.40748 0.97795,-0.20906 0.99922,0 0.97795,0.20906 0.91417,0.40748 0.80788,0.58819 0.66968,0.74409 0.49961,0.86457 0.30826,0.94961 0.1063,0.99566 -0.1063,0.99567 -0.30826,0.94961 z"
         inkscape:connector-curvature="0" />
      <path
         sodipodi:nodetypes="ccccccccccccccccccccccccccccccc"
         id="path33306"
         style="fill:none;stroke:#ff0000;stroke-opacity:1"
         d="m 609.06778,206.30313 0.91417,0.40748 0.80788,0.58819 0.66968,0.74409 0.49961,0.86457 0.30827,0.94961 0.1063,0.99566 -0.1063,0.99567 -0.30827,0.94961 -0.49961,0.86811 -0.66968,0.74055 -0.80788,0.58819 -0.91417,0.40748 -0.97795,0.20906 -0.99921,0 -0.97796,-0.20906 -0.91417,-0.40748 -0.80787,-0.58819 -0.66969,-0.74055 -0.49961,-0.86811 -0.31181,-0.94961 -0.10275,-0.99567 0.10275,-0.99566 0.31181,-0.94961 0.49961,-0.86457 0.66969,-0.74409 0.80787,-0.58819 0.91417,-0.40748 0.97796,-0.20906 0.99921,0 z"
         inkscape:connector-curvature="0" />
      <path
         sodipodi:nodetypes="ccccccccccccccccccccccccccccccc"
         id="path33356"
         style="fill:none;stroke:#ff0000;stroke-opacity:1"
         d="m 285.49191,207.2988 0.80894,-0.58819 0.91347,-0.40748 0.9783,-0.20906 0.99992,0 0.97831,0.20906 0.91347,0.40748 0.80893,0.58819 0.66933,0.74409 0.49996,0.86457 0.30898,0.94961 0.10453,0.99566 -0.10453,0.99567 -0.30898,0.94961 -0.49996,0.86811 -0.66933,0.74055 -0.80893,0.58819 -0.91347,0.40748 -0.97831,0.20906 -0.99992,0 -0.9783,-0.20906 -0.91347,-0.40748 -0.80894,-0.58819 -0.66933,-0.74055 -0.49996,-0.86811 -0.30897,-0.94961 -0.10453,-0.99567 0.10453,-0.99566 0.30897,-0.94961 0.49996,-0.86457 z"
         inkscape:connector-curvature="0" />
      <path
         sodipodi:nodetypes="ccccccccccccccccccccccccccccccc"
         id="path33448"
         style="fill:none;stroke:#ff0000;stroke-opacity:1"
         d="m 149.35203,214.99486 -0.91346,0.40748 -0.97831,0.20906 -0.99996,0 -0.97813,-0.20906 -0.91357,-0.40748 -0.80904,-0.58819 -0.66912,-0.74055 -0.50003,-0.86811 -0.30905,-0.94961 -0.10449,-0.99567 0.10449,-0.99566 0.30905,-0.94961 0.50003,-0.86457 0.66912,-0.74409 0.80904,-0.58819 0.91357,-0.40748 0.97813,-0.20906 0.99996,0 0.97831,0.20906 0.91346,0.40748 0.80894,0.58819 0.66933,0.74409 0.49996,0.86457 0.30898,0.94961 0.10452,0.99566 -0.10452,0.99567 -0.30898,0.94961 -0.49996,0.86811 -0.66933,0.74055 z"
         inkscape:connector-curvature="0" />
      <path
         sodipodi:nodetypes="ccccccccccccccccccccccccccccccc"
         id="path33500"
         style="fill:none;stroke:#ff0000;stroke-opacity:1"
         d="m 576.83432,211.8484 -0.30827,0.94961 -0.49961,0.86811 -0.66968,0.74055 -0.80788,0.58819 -0.91417,0.40748 -0.97795,0.20906 -0.99922,0 -0.97795,-0.20906 -0.91417,-0.40748 -0.80788,-0.58819 -0.66968,-0.74055 -0.49961,-0.86811 -0.31181,-0.94961 -0.10275,-0.99567 0.10275,-0.99566 0.31181,-0.94961 0.49961,-0.86457 0.66968,-0.74409 0.80788,-0.58819 0.91417,-0.40748 0.97795,-0.20906 0.99922,0 0.97795,0.20906 0.91417,0.40748 0.80788,0.58819 0.66968,0.74409 0.49961,0.86457 0.30827,0.94961 0.1063,0.99566 z"
         inkscape:connector-curvature="0" />
      <path
         sodipodi:nodetypes="ccccccccccccccccccccccccccccccc"
         id="path33568"
         style="fill:none;stroke:#ff0000;stroke-opacity:1"
         d="m 539.11581,214.99486 -0.91417,0.40748 -0.97795,0.20906 -0.99922,0 -0.97795,-0.20906 -0.91417,-0.40748 -0.80788,-0.58819 -0.66968,-0.74055 -0.49961,-0.86811 -0.31181,-0.94961 -0.10275,-0.99567 0.10275,-0.99566 0.31181,-0.94961 0.49961,-0.86457 0.66968,-0.74409 0.80788,-0.58819 0.91417,-0.40748 0.97795,-0.20906 0.99922,0 0.97795,0.20906 0.91417,0.40748 0.80788,0.58819 0.66968,0.74409 0.49961,0.86457 0.30827,0.94961 0.1063,0.99566 -0.1063,0.99567 -0.30827,0.94961 -0.49961,0.86811 -0.66968,0.74055 z"
         inkscape:connector-curvature="0" />
      <path
         sodipodi:nodetypes="ccccccccccccccccccccccccccccccc"
         id="path33620"
         style="fill:none;stroke:#ff0000;stroke-opacity:1"
         d="m 187.07231,211.8484 -0.30898,0.94961 -0.49996,0.86811 -0.66933,0.74055 -0.80894,0.58819 -0.91346,0.40748 -0.97831,0.20906 -0.99992,0 -0.97831,-0.20906 -0.91346,-0.40748 -0.80894,-0.58819 -0.66933,-0.74055 -0.49996,-0.86811 -0.30898,-0.94961 -0.10452,-0.99567 0.10452,-0.99566 0.30898,-0.94961 0.49996,-0.86457 0.66933,-0.74409 0.80894,-0.58819 0.91346,-0.40748 0.97831,-0.20906 0.99992,0 0.97831,0.20906 0.91346,0.40748 0.80894,0.58819 0.66933,0.74409 0.49996,0.86457 0.30898,0.94961 0.10453,0.99566 z"
         inkscape:connector-curvature="0" />
      <path
         sodipodi:nodetypes="ccccccccccccccccccccccccccccccc"
         id="path33680"
         style="fill:none;stroke:#ff0000;stroke-opacity:1"
         d="m 505.96817,211.8484 -0.30826,0.94961 -0.49961,0.86811 -0.66968,0.74055 -0.80788,0.58819 -0.91417,0.40748 -0.97795,0.20906 -0.99922,0 -0.97795,-0.20906 -0.91417,-0.40748 -0.80788,-0.58819 -0.66968,-0.74055 -0.49961,-0.86811 -0.31181,-0.94961 -0.10275,-0.99567 0.10275,-0.99566 0.31181,-0.94961 0.49961,-0.86457 0.66968,-0.74409 0.80788,-0.58819 0.91417,-0.40748 0.97795,-0.20906 0.99922,0 0.97795,0.20906 0.91417,0.40748 0.80788,0.58819 0.66968,0.74409 0.49961,0.86457 0.30826,0.94961 0.1063,0.99566 z"
         inkscape:connector-curvature="0" />
      <path
         sodipodi:nodetypes="ccccccccccccccccccccccccccccccc"
         id="path33712"
         style="fill:none;stroke:#ff0000;stroke-opacity:1"
         d="m 461.48798,208.90746 0.49996,-0.86457 0.66933,-0.74409 0.80894,-0.58819 0.91346,-0.40748 0.97831,-0.20906 0.99956,0 0.97796,0.20906 0.91417,0.40748 0.80787,0.58819 0.66969,0.74409 0.49961,0.86457 0.30826,0.94961 0.1063,0.99566 -0.1063,0.99567 -0.30826,0.94961 -0.49961,0.86811 -0.66969,0.74055 -0.80787,0.58819 -0.91417,0.40748 -0.97796,0.20906 -0.99956,0 -0.97831,-0.20906 -0.91346,-0.40748 -0.80894,-0.58819 -0.66933,-0.74055 -0.49996,-0.86811 -0.30898,-0.94961 -0.10453,-0.99567 0.10453,-0.99566 z"
         inkscape:connector-curvature="0" />
      <path
         sodipodi:nodetypes="ccccccccccccccccccccccccccccccc"
         id="path33800"
         style="fill:none;stroke:#ff0000;stroke-opacity:1"
         d="m 435.1038,211.8484 -0.30897,0.94961 -0.49996,0.86811 -0.66933,0.74055 -0.80894,0.58819 -0.91346,0.40748 -0.97831,0.20906 -0.99992,0 -0.97831,-0.20906 -0.91346,-0.40748 -0.80894,-0.58819 -0.66933,-0.74055 -0.49996,-0.86811 -0.30898,-0.94961 -0.10453,-0.99567 0.10453,-0.99566 0.30898,-0.94961 0.49996,-0.86457 0.66933,-0.74409 0.80894,-0.58819 0.91346,-0.40748 0.97831,-0.20906 0.99992,0 0.97831,0.20906 0.91346,0.40748 0.80894,0.58819 0.66933,0.74409 0.49996,0.86457 0.30897,0.94961 0.10453,0.99566 z"
         inkscape:connector-curvature="0" />
      <path
         sodipodi:nodetypes="ccccccccccccccccccccccccccccccc"
         id="path33868"
         style="fill:none;stroke:#ff0000;stroke-opacity:1"
         d="m 220.21818,214.99486 -0.91347,0.40748 -0.97831,0.20906 -0.99992,0 -0.97831,-0.20906 -0.91346,-0.40748 -0.80894,-0.58819 -0.66933,-0.74055 -0.49996,-0.86811 -0.30897,-0.94961 -0.10453,-0.99567 0.10453,-0.99566 0.30897,-0.94961 0.49996,-0.86457 0.66933,-0.74409 0.80894,-0.58819 0.91346,-0.40748 0.97831,-0.20906 0.99992,0 0.97831,0.20906 0.91347,0.40748 0.80893,0.58819 0.66933,0.74409 0.49996,0.86457 0.30898,0.94961 0.10453,0.99566 -0.10453,0.99567 -0.30898,0.94961 -0.49996,0.86811 -0.66933,0.74055 z"
         inkscape:connector-curvature="0" />
      <path
         sodipodi:nodetypes="ccccccccccccccccccccccccccccccc"
         id="path33920"
         style="fill:none;stroke:#ff0000;stroke-opacity:1"
         d="m 399.67073,211.8484 -0.30897,0.94961 -0.49996,0.86811 -0.66933,0.74055 -0.80894,0.58819 -0.91347,0.40748 -0.9783,0.20906 -0.99992,0 -0.97831,-0.20906 -0.91347,-0.40748 -0.80893,-0.58819 -0.66933,-0.74055 -0.49996,-0.86811 -0.30898,-0.94961 -0.10453,-0.99567 0.10453,-0.99566 0.30898,-0.94961 0.49996,-0.86457 0.66933,-0.74409 0.80893,-0.58819 0.91347,-0.40748 0.97831,-0.20906 0.99992,0 0.9783,0.20906 0.91347,0.40748 0.80894,0.58819 0.66933,0.74409 0.49996,0.86457 0.30897,0.94961 0.10453,0.99566 z"
         inkscape:connector-curvature="0" />
      <path
         sodipodi:nodetypes="ccccccccccccccccccccccccccccccc"
         id="path33980"
         style="fill:none;stroke:#ff0000;stroke-opacity:1"
         d="m 328.80459,211.8484 -0.30897,0.94961 -0.49997,0.86811 -0.66933,0.74055 -0.80893,0.58819 -0.91347,0.40748 -0.9783,0.20906 -0.99993,0 -0.9783,-0.20906 -0.91347,-0.40748 -0.80893,-0.58819 -0.66934,-0.74055 -0.49996,-0.86811 -0.30897,-0.94961 -0.10453,-0.99567 0.10453,-0.99566 0.30897,-0.94961 0.49996,-0.86457 0.66934,-0.74409 0.80893,-0.58819 0.91347,-0.40748 0.9783,-0.20906 0.99993,0 0.9783,0.20906 0.91347,0.40748 0.80893,0.58819 0.66933,0.74409 0.49997,0.86457 0.30897,0.94961 0.10453,0.99566 z"
         inkscape:connector-curvature="0" />
      <path
         sodipodi:nodetypes="ccccccccccccccccccccccccccccccc"
         id="path34036"
         style="fill:none;stroke:#ff0000;stroke-opacity:1"
         d="m 364.23766,209.85707 0.10453,0.99566 -0.10453,0.99567 -0.30897,0.94961 -0.49996,0.86811 -0.66934,0.74055 -0.80893,0.58819 -0.91347,0.40748 -0.9783,0.20906 -0.99993,0 -0.9783,-0.20906 -0.91347,-0.40748 -0.80893,-0.58819 -0.66933,-0.74055 -0.49997,-0.86811 -0.30897,-0.94961 -0.10453,-0.99567 0.10453,-0.99566 0.30897,-0.94961 0.49997,-0.86457 0.66933,-0.74409 0.80893,-0.58819 0.91347,-0.40748 0.9783,-0.20906 0.99993,0 0.9783,0.20906 0.91347,0.40748 0.80893,0.58819 0.66934,0.74409 0.49996,0.86457 z"
         inkscape:connector-curvature="0" />
      <path
         sodipodi:nodetypes="ccccccccccccccccccccccccccccccc"
         id="path34100"
         style="fill:none;stroke:#ff0000;stroke-opacity:1"
         d="m 257.93845,211.8484 -0.30898,0.94961 -0.49996,0.86811 -0.66933,0.74055 -0.80893,0.58819 -0.91347,0.40748 -0.97831,0.20906 -0.99992,0 -0.9783,-0.20906 -0.91347,-0.40748 -0.80894,-0.58819 -0.66933,-0.74055 -0.49996,-0.86811 -0.30897,-0.94961 -0.10453,-0.99567 0.10453,-0.99566 0.30897,-0.94961 0.49996,-0.86457 0.66933,-0.74409 0.80894,-0.58819 0.91347,-0.40748 0.9783,-0.20906 0.99992,0 0.97831,0.20906 0.91347,0.40748 0.80893,0.58819 0.66933,0.74409 0.49996,0.86457 0.30898,0.94961 0.10453,0.99566 z"
         inkscape:connector-curvature="0" />
      <path
         sodipodi:nodetypes="ccccccccccccccccccccccccccccccc"
         id="path34156"
         style="fill:none;stroke:#ff0000;stroke-opacity:1"
         d="m 187.07231,245.29014 0.10453,0.99567 -0.10453,0.99567 -0.30898,0.9496 -0.49996,0.86811 -0.66933,0.74055 -0.80894,0.58819 -0.91346,0.40748 -0.97831,0.20906 -0.99992,0 -0.97831,-0.20906 -0.91346,-0.40748 -0.80894,-0.58819 -0.66933,-0.74055 -0.49996,-0.86811 -0.30898,-0.9496 -0.10452,-0.99567 0.10452,-0.99567 0.30898,-0.94961 0.49996,-0.86457 0.66933,-0.74409 0.80894,-0.58819 0.91346,-0.40748 0.97831,-0.20906 0.99992,0 0.97831,0.20906 0.91346,0.40748 0.80894,0.58819 0.66933,0.74409 0.49996,0.86457 z"
         inkscape:connector-curvature="0" />
      <path
         sodipodi:nodetypes="ccccccccccccccccccccccccccccccc"
         id="path34216"
         style="fill:none;stroke:#ff0000;stroke-opacity:1"
         d="m 435.1038,245.29014 0.10453,0.99567 -0.10453,0.99567 -0.30897,0.9496 -0.49996,0.86811 -0.66933,0.74055 -0.80894,0.58819 -0.91346,0.40748 -0.97831,0.20906 -0.99992,0 -0.97831,-0.20906 -0.91346,-0.40748 -0.80894,-0.58819 -0.66933,-0.74055 -0.49996,-0.86811 -0.30898,-0.9496 -0.10453,-0.99567 0.10453,-0.99567 0.30898,-0.94961 0.49996,-0.86457 0.66933,-0.74409 0.80894,-0.58819 0.91346,-0.40748 0.97831,-0.20906 0.99992,0 0.97831,0.20906 0.91346,0.40748 0.80894,0.58819 0.66933,0.74409 0.49996,0.86457 z"
         inkscape:connector-curvature="0" />
      <path
         sodipodi:nodetypes="ccccccccccccccccccccccccccccccc"
         id="path34242"
         style="fill:none;stroke:#ff0000;stroke-opacity:1"
         d="m 497.42172,249.09919 -0.49961,-0.86811 -0.31181,-0.9496 -0.10275,-0.99567 0.10275,-0.99567 0.31181,-0.94961 0.49961,-0.86457 0.66968,-0.74409 0.80788,-0.58819 0.91417,-0.40748 0.97795,-0.20906 0.99922,0 0.97795,0.20906 0.91417,0.40748 0.80788,0.58819 0.66968,0.74409 0.49961,0.86457 0.30826,0.94961 0.1063,0.99567 -0.1063,0.99567 -0.30826,0.9496 -0.49961,0.86811 -0.66968,0.74055 -0.80788,0.58819 -0.91417,0.40748 -0.97795,0.20906 -0.99922,0 -0.97795,-0.20906 -0.91417,-0.40748 -0.80788,-0.58819 z"
         inkscape:connector-curvature="0" />
      <path
         sodipodi:nodetypes="ccccccccccccccccccccccccccccccc"
         id="path34336"
         style="fill:none;stroke:#ff0000;stroke-opacity:1"
         d="m 470.5351,245.29014 0.1063,0.99567 -0.1063,0.99567 -0.30826,0.9496 -0.49961,0.86811 -0.66969,0.74055 -0.80787,0.58819 -0.91417,0.40748 -0.97796,0.20906 -0.99956,0 -0.97831,-0.20906 -0.91346,-0.40748 -0.80894,-0.58819 -0.66933,-0.74055 -0.49996,-0.86811 -0.30898,-0.9496 -0.10453,-0.99567 0.10453,-0.99567 0.30898,-0.94961 0.49996,-0.86457 0.66933,-0.74409 0.80894,-0.58819 0.91346,-0.40748 0.97831,-0.20906 0.99956,0 0.97796,0.20906 0.91417,0.40748 0.80787,0.58819 0.66969,0.74409 0.49961,0.86457 z"
         inkscape:connector-curvature="0" />
      <path
         sodipodi:nodetypes="ccccccccccccccccccccccccccccccc"
         id="path34396"
         style="fill:none;stroke:#ff0000;stroke-opacity:1"
         d="m 257.93845,245.29014 0.10453,0.99567 -0.10453,0.99567 -0.30898,0.9496 -0.49996,0.86811 -0.66933,0.74055 -0.80893,0.58819 -0.91347,0.40748 -0.97831,0.20906 -0.99992,0 -0.9783,-0.20906 -0.91347,-0.40748 -0.80894,-0.58819 -0.66933,-0.74055 -0.49996,-0.86811 -0.30897,-0.9496 -0.10453,-0.99567 0.10453,-0.99567 0.30897,-0.94961 0.49996,-0.86457 0.66933,-0.74409 0.80894,-0.58819 0.91347,-0.40748 0.9783,-0.20906 0.99992,0 0.97831,0.20906 0.91347,0.40748 0.80893,0.58819 0.66933,0.74409 0.49996,0.86457 z"
         inkscape:connector-curvature="0" />
      <path
         sodipodi:nodetypes="ccccccccccccccccccccccccccccccc"
         id="path34456"
         style="fill:none;stroke:#ff0000;stroke-opacity:1"
         d="m 364.23766,245.29014 0.10453,0.99567 -0.10453,0.99567 -0.30897,0.9496 -0.49996,0.86811 -0.66934,0.74055 -0.80893,0.58819 -0.91347,0.40748 -0.9783,0.20906 -0.99993,0 -0.9783,-0.20906 -0.91347,-0.40748 -0.80893,-0.58819 -0.66933,-0.74055 -0.49997,-0.86811 -0.30897,-0.9496 -0.10453,-0.99567 0.10453,-0.99567 0.30897,-0.94961 0.49997,-0.86457 0.66933,-0.74409 0.80893,-0.58819 0.91347,-0.40748 0.9783,-0.20906 0.99993,0 0.9783,0.20906 0.91347,0.40748 0.80893,0.58819 0.66934,0.74409 0.49996,0.86457 z"
         inkscape:connector-curvature="0" />
      <path
         sodipodi:nodetypes="ccccccccccccccccccccccccccccccc"
         id="path34490"
         style="fill:none;stroke:#ff0000;stroke-opacity:1"
         d="m 602.90951,245.29014 0.31181,-0.94961 0.49961,-0.86457 0.66969,-0.74409 0.80787,-0.58819 0.91417,-0.40748 0.97796,-0.20906 0.99921,0 0.97795,0.20906 0.91417,0.40748 0.80788,0.58819 0.66968,0.74409 0.49961,0.86457 0.30827,0.94961 0.1063,0.99567 -0.1063,0.99567 -0.30827,0.9496 -0.49961,0.86811 -0.66968,0.74055 -0.80788,0.58819 -0.91417,0.40748 -0.97795,0.20906 -0.99921,0 -0.97796,-0.20906 -0.91417,-0.40748 -0.80787,-0.58819 -0.66969,-0.74055 -0.49961,-0.86811 -0.31181,-0.9496 -0.10275,-0.99567 z"
         inkscape:connector-curvature="0" />
      <path
         sodipodi:nodetypes="ccccccccccccccccccccccccccccccc"
         id="path34556"
         style="fill:none;stroke:#ff0000;stroke-opacity:1"
         d="m 285.49191,242.73187 0.80894,-0.58819 0.91347,-0.40748 0.9783,-0.20906 0.99992,0 0.97831,0.20906 0.91347,0.40748 0.80893,0.58819 0.66933,0.74409 0.49996,0.86457 0.30898,0.94961 0.10453,0.99567 -0.10453,0.99567 -0.30898,0.9496 -0.49996,0.86811 -0.66933,0.74055 -0.80893,0.58819 -0.91347,0.40748 -0.97831,0.20906 -0.99992,0 -0.9783,-0.20906 -0.91347,-0.40748 -0.80894,-0.58819 -0.66933,-0.74055 -0.49996,-0.86811 -0.30897,-0.9496 -0.10453,-0.99567 0.10453,-0.99567 0.30897,-0.94961 0.49996,-0.86457 z"
         inkscape:connector-curvature="0" />
      <path
         sodipodi:nodetypes="ccccccccccccccccccccccccccccccc"
         id="path34636"
         style="fill:none;stroke:#ff0000;stroke-opacity:1"
         d="m 399.67073,245.29014 0.10453,0.99567 -0.10453,0.99567 -0.30897,0.9496 -0.49996,0.86811 -0.66933,0.74055 -0.80894,0.58819 -0.91347,0.40748 -0.9783,0.20906 -0.99992,0 -0.97831,-0.20906 -0.91347,-0.40748 -0.80893,-0.58819 -0.66933,-0.74055 -0.49996,-0.86811 -0.30898,-0.9496 -0.10453,-0.99567 0.10453,-0.99567 0.30898,-0.94961 0.49996,-0.86457 0.66933,-0.74409 0.80893,-0.58819 0.91347,-0.40748 0.97831,-0.20906 0.99992,0 0.9783,0.20906 0.91347,0.40748 0.80894,0.58819 0.66933,0.74409 0.49996,0.86457 z"
         inkscape:connector-curvature="0" />
      <path
         sodipodi:nodetypes="ccccccccccccccccccccccccccccccc"
         id="path34696"
         style="fill:none;stroke:#ff0000;stroke-opacity:1"
         d="m 151.63924,245.29014 0.10452,0.99567 -0.10452,0.99567 -0.30898,0.9496 -0.49996,0.86811 -0.66933,0.74055 -0.80894,0.58819 -0.91346,0.40748 -0.97831,0.20906 -0.99996,0 -0.97813,-0.20906 -0.91357,-0.40748 -0.80904,-0.58819 -0.66912,-0.74055 -0.50003,-0.86811 -0.30905,-0.9496 -0.10449,-0.99567 0.10449,-0.99567 0.30905,-0.94961 0.50003,-0.86457 0.66912,-0.74409 0.80904,-0.58819 0.91357,-0.40748 0.97813,-0.20906 0.99996,0 0.97831,0.20906 0.91346,0.40748 0.80894,0.58819 0.66933,0.74409 0.49996,0.86457 z"
         inkscape:connector-curvature="0" />
      <path
         sodipodi:nodetypes="ccccccccccccccccccccccccccccccc"
         id="path34756"
         style="fill:none;stroke:#ff0000;stroke-opacity:1"
         d="m 222.50538,245.29014 0.10453,0.99567 -0.10453,0.99567 -0.30898,0.9496 -0.49996,0.86811 -0.66933,0.74055 -0.80893,0.58819 -0.91347,0.40748 -0.97831,0.20906 -0.99992,0 -0.97831,-0.20906 -0.91346,-0.40748 -0.80894,-0.58819 -0.66933,-0.74055 -0.49996,-0.86811 -0.30897,-0.9496 -0.10453,-0.99567 0.10453,-0.99567 0.30897,-0.94961 0.49996,-0.86457 0.66933,-0.74409 0.80894,-0.58819 0.91346,-0.40748 0.97831,-0.20906 0.99992,0 0.97831,0.20906 0.91347,0.40748 0.80893,0.58819 0.66933,0.74409 0.49996,0.86457 z"
         inkscape:connector-curvature="0" />
      <path
         sodipodi:nodetypes="ccccccccccccccccccccccccccccccc"
         id="path34816"
         style="fill:none;stroke:#ff0000;stroke-opacity:1"
         d="m 576.83432,245.29014 0.1063,0.99567 -0.1063,0.99567 -0.30827,0.9496 -0.49961,0.86811 -0.66968,0.74055 -0.80788,0.58819 -0.91417,0.40748 -0.97795,0.20906 -0.99922,0 -0.97795,-0.20906 -0.91417,-0.40748 -0.80788,-0.58819 -0.66968,-0.74055 -0.49961,-0.86811 -0.31181,-0.9496 -0.10275,-0.99567 0.10275,-0.99567 0.31181,-0.94961 0.49961,-0.86457 0.66968,-0.74409 0.80788,-0.58819 0.91417,-0.40748 0.97795,-0.20906 0.99922,0 0.97795,0.20906 0.91417,0.40748 0.80788,0.58819 0.66968,0.74409 0.49961,0.86457 z"
         inkscape:connector-curvature="0" />
      <path
         sodipodi:nodetypes="ccccccccccccccccccccccccccccccc"
         id="path34874"
         style="fill:none;stroke:#ff0000;stroke-opacity:1"
         d="m 541.09298,244.34053 0.30827,0.94961 0.1063,0.99567 -0.1063,0.99567 -0.30827,0.9496 -0.49961,0.86811 -0.66968,0.74055 -0.80788,0.58819 -0.91417,0.40748 -0.97795,0.20906 -0.99922,0 -0.97795,-0.20906 -0.91417,-0.40748 -0.80788,-0.58819 -0.66968,-0.74055 -0.49961,-0.86811 -0.31181,-0.9496 -0.10275,-0.99567 0.10275,-0.99567 0.31181,-0.94961 0.49961,-0.86457 0.66968,-0.74409 0.80788,-0.58819 0.91417,-0.40748 0.97795,-0.20906 0.99922,0 0.97795,0.20906 0.91417,0.40748 0.80788,0.58819 0.66968,0.74409 z"
         inkscape:connector-curvature="0" />
      <path
         sodipodi:nodetypes="ccccccccccccccccccccccccccccccc"
         id="path34936"
         style="fill:none;stroke:#ff0000;stroke-opacity:1"
         d="m 328.80459,245.29014 0.10453,0.99567 -0.10453,0.99567 -0.30897,0.9496 -0.49997,0.86811 -0.66933,0.74055 -0.80893,0.58819 -0.91347,0.40748 -0.9783,0.20906 -0.99993,0 -0.9783,-0.20906 -0.91347,-0.40748 -0.80893,-0.58819 -0.66934,-0.74055 -0.49996,-0.86811 -0.30897,-0.9496 -0.10453,-0.99567 0.10453,-0.99567 0.30897,-0.94961 0.49996,-0.86457 0.66934,-0.74409 0.80893,-0.58819 0.91347,-0.40748 0.9783,-0.20906 0.99993,0 0.9783,0.20906 0.91347,0.40748 0.80893,0.58819 0.66933,0.74409 0.49997,0.86457 z"
         inkscape:connector-curvature="0" />
      <path
         sodipodi:nodetypes="ccccccccccccccccccccccccccccccc"
         id="path34988"
         style="fill:none;stroke:#ff0000;stroke-opacity:1"
         d="m 432.8166,277.5764 0.80894,0.58783 0.66933,0.74303 0.49996,0.86599 0.30897,0.95102 0.10453,0.99461 -0.10453,0.9946 -0.30897,0.95103 -0.49996,0.86598 -0.66933,0.74339 -0.80894,0.58748 -0.91346,0.40677 -0.97831,0.20799 -0.99992,0 -0.97831,-0.20799 -0.91346,-0.40677 -0.80894,-0.58748 -0.66933,-0.74339 -0.49996,-0.86598 -0.30898,-0.95103 -0.10453,-0.9946 0.10453,-0.99461 0.30898,-0.95102 0.49996,-0.86599 0.66933,-0.74303 0.80894,-0.58783 0.91346,-0.40677 0.97831,-0.208 0.99992,0 0.97831,0.208 z"
         inkscape:connector-curvature="0" />
      <path
         sodipodi:nodetypes="ccccccccccccccccccccccccccccccc"
         id="path35044"
         style="fill:none;stroke:#ff0000;stroke-opacity:1"
         d="m 395.49176,276.96163 0.9783,0.208 0.91347,0.40677 0.80894,0.58783 0.66933,0.74303 0.49996,0.86599 0.30897,0.95102 0.10453,0.99461 -0.10453,0.9946 -0.30897,0.95103 -0.49996,0.86598 -0.66933,0.74339 -0.80894,0.58748 -0.91347,0.40677 -0.9783,0.20799 -0.99992,0 -0.97831,-0.20799 -0.91347,-0.40677 -0.80893,-0.58748 -0.66933,-0.74339 -0.49996,-0.86598 -0.30898,-0.95103 -0.10453,-0.9946 0.10453,-0.99461 0.30898,-0.95102 0.49996,-0.86599 0.66933,-0.74303 0.80893,-0.58783 0.91347,-0.40677 0.97831,-0.208 z"
         inkscape:connector-curvature="0" />
      <path
         sodipodi:nodetypes="ccccccccccccccccccccccccccccccc"
         id="path35104"
         style="fill:none;stroke:#ff0000;stroke-opacity:1"
         d="m 218.3264,276.96163 0.97831,0.208 0.91347,0.40677 0.80893,0.58783 0.66933,0.74303 0.49996,0.86599 0.30898,0.95102 0.10453,0.99461 -0.10453,0.9946 -0.30898,0.95103 -0.49996,0.86598 -0.66933,0.74339 -0.80893,0.58748 -0.91347,0.40677 -0.97831,0.20799 -0.99992,0 -0.97831,-0.20799 -0.91346,-0.40677 -0.80894,-0.58748 -0.66933,-0.74339 -0.49996,-0.86598 -0.30897,-0.95103 -0.10453,-0.9946 0.10453,-0.99461 0.30897,-0.95102 0.49996,-0.86599 0.66933,-0.74303 0.80894,-0.58783 0.91346,-0.40677 0.97831,-0.208 z"
         inkscape:connector-curvature="0" />
      <path
         sodipodi:nodetypes="ccccccccccccccccccccccccccccccc"
         id="path35142"
         style="fill:none;stroke:#ff0000;stroke-opacity:1"
         d="m 320.25565,284.53049 -0.49996,-0.86598 -0.30897,-0.95103 -0.10453,-0.9946 0.10453,-0.99461 0.30897,-0.95102 0.49996,-0.86599 0.66934,-0.74303 0.80893,-0.58783 0.91347,-0.40677 0.9783,-0.208 0.99993,0 0.9783,0.208 0.91347,0.40677 0.80893,0.58783 0.66933,0.74303 0.49997,0.86599 0.30897,0.95102 0.10453,0.99461 -0.10453,0.9946 -0.30897,0.95103 -0.49997,0.86598 -0.66933,0.74339 -0.80893,0.58748 -0.91347,0.40677 -0.9783,0.20799 -0.99993,0 -0.9783,-0.20799 -0.91347,-0.40677 -0.80893,-0.58748 z"
         inkscape:connector-curvature="0" />
      <path
         sodipodi:nodetypes="ccccccccccccccccccccccccccccccc"
         id="path35214"
         style="fill:none;stroke:#ff0000;stroke-opacity:1"
         d="m 568.28786,278.90726 0.66968,-0.74303 0.80788,-0.58783 0.91417,-0.40677 0.97795,-0.208 0.99922,0 0.97795,0.208 0.91417,0.40677 0.80788,0.58783 0.66968,0.74303 0.49961,0.86599 0.30827,0.95102 0.1063,0.99461 -0.1063,0.9946 -0.30827,0.95103 -0.49961,0.86598 -0.66968,0.74339 -0.80788,0.58748 -0.91417,0.40677 -0.97795,0.20799 -0.99922,0 -0.97795,-0.20799 -0.91417,-0.40677 -0.80788,-0.58748 -0.66968,-0.74339 -0.49961,-0.86598 -0.31181,-0.95103 -0.10275,-0.9946 0.10275,-0.99461 0.31181,-0.95102 z"
         inkscape:connector-curvature="0" />
      <path
         sodipodi:nodetypes="ccccccccccccccccccccccccccccccc"
         id="path35310"
         style="fill:none;stroke:#ff0000;stroke-opacity:1"
         d="m 467.3355,286.26813 -0.97796,0.20799 -0.99956,0 -0.97831,-0.20799 -0.91346,-0.40677 -0.80894,-0.58748 -0.66933,-0.74339 -0.49996,-0.86598 -0.30898,-0.95103 -0.10453,-0.9946 0.10453,-0.99461 0.30898,-0.95102 0.49996,-0.86599 0.66933,-0.74303 0.80894,-0.58783 0.91346,-0.40677 0.97831,-0.208 0.99956,0 0.97796,0.208 0.91417,0.40677 0.80787,0.58783 0.66969,0.74303 0.49961,0.86599 0.30826,0.95102 0.1063,0.99461 -0.1063,0.9946 -0.30826,0.95103 -0.49961,0.86598 -0.66969,0.74339 -0.80787,0.58748 z"
         inkscape:connector-curvature="0" />
      <path
         sodipodi:nodetypes="ccccccccccccccccccccccccccccccc"
         id="path35348"
         style="fill:none;stroke:#ff0000;stroke-opacity:1"
         d="m 184.7851,277.5764 0.80894,0.58783 0.66933,0.74303 0.49996,0.86599 0.30898,0.95102 0.10453,0.99461 -0.10453,0.9946 -0.30898,0.95103 -0.49996,0.86598 -0.66933,0.74339 -0.80894,0.58748 -0.91346,0.40677 -0.97831,0.20799 -0.99992,0 -0.97831,-0.20799 -0.91346,-0.40677 -0.80894,-0.58748 -0.66933,-0.74339 -0.49996,-0.86598 -0.30898,-0.95103 -0.10452,-0.9946 0.10452,-0.99461 0.30898,-0.95102 0.49996,-0.86599 0.66933,-0.74303 0.80894,-0.58783 0.91346,-0.40677 0.97831,-0.208 0.99992,0 0.97831,0.208 z"
         inkscape:connector-curvature="0" />
      <path
         sodipodi:nodetypes="ccccccccccccccccccccccccccccccc"
         id="path35404"
         style="fill:none;stroke:#ff0000;stroke-opacity:1"
         d="m 608.08983,276.96163 0.97795,0.208 0.91417,0.40677 0.80788,0.58783 0.66968,0.74303 0.49961,0.86599 0.30827,0.95102 0.1063,0.99461 -0.1063,0.9946 -0.30827,0.95103 -0.49961,0.86598 -0.66968,0.74339 -0.80788,0.58748 -0.91417,0.40677 -0.97795,0.20799 -0.99921,0 -0.97796,-0.20799 -0.91417,-0.40677 -0.80787,-0.58748 -0.66969,-0.74339 -0.49961,-0.86598 -0.31181,-0.95103 -0.10275,-0.9946 0.10275,-0.99461 0.31181,-0.95102 0.49961,-0.86599 0.66969,-0.74303 0.80787,-0.58783 0.91417,-0.40677 0.97796,-0.208 z"
         inkscape:connector-curvature="0" />
      <path
         sodipodi:nodetypes="ccccccccccccccccccccccccccccccc"
         id="path35442"
         style="fill:none;stroke:#ff0000;stroke-opacity:1"
         d="m 497.42172,284.53049 -0.49961,-0.86598 -0.31181,-0.95103 -0.10275,-0.9946 0.10275,-0.99461 0.31181,-0.95102 0.49961,-0.86599 0.66968,-0.74303 0.80788,-0.58783 0.91417,-0.40677 0.97795,-0.208 0.99922,0 0.97795,0.208 0.91417,0.40677 0.80788,0.58783 0.66968,0.74303 0.49961,0.86599 0.30826,0.95102 0.1063,0.99461 -0.1063,0.9946 -0.30826,0.95103 -0.49961,0.86598 -0.66968,0.74339 -0.80788,0.58748 -0.91417,0.40677 -0.97795,0.20799 -0.99922,0 -0.97795,-0.20799 -0.91417,-0.40677 -0.80788,-0.58748 z"
         inkscape:connector-curvature="0" />
      <path
         sodipodi:nodetypes="ccccccccccccccccccccccccccccccc"
         id="path35538"
         style="fill:none;stroke:#ff0000;stroke-opacity:1"
         d="m 258.04298,281.71888 -0.10453,0.9946 -0.30898,0.95103 -0.49996,0.86598 -0.66933,0.74339 -0.80893,0.58748 -0.91347,0.40677 -0.97831,0.20799 -0.99992,0 -0.9783,-0.20799 -0.91347,-0.40677 -0.80894,-0.58748 -0.66933,-0.74339 -0.49996,-0.86598 -0.30897,-0.95103 -0.10453,-0.9946 0.10453,-0.99461 0.30897,-0.95102 0.49996,-0.86599 0.66933,-0.74303 0.80894,-0.58783 0.91347,-0.40677 0.9783,-0.208 0.99992,0 0.97831,0.208 0.91347,0.40677 0.80893,0.58783 0.66933,0.74303 0.49996,0.86599 0.30898,0.95102 z"
         inkscape:connector-curvature="0" />
      <path
         sodipodi:nodetypes="ccccccccccccccccccccccccccccccc"
         id="path35594"
         style="fill:none;stroke:#ff0000;stroke-opacity:1"
         d="m 541.09298,279.77325 0.30827,0.95102 0.1063,0.99461 -0.1063,0.9946 -0.30827,0.95103 -0.49961,0.86598 -0.66968,0.74339 -0.80788,0.58748 -0.91417,0.40677 -0.97795,0.20799 -0.99922,0 -0.97795,-0.20799 -0.91417,-0.40677 -0.80788,-0.58748 -0.66968,-0.74339 -0.49961,-0.86598 -0.31181,-0.95103 -0.10275,-0.9946 0.10275,-0.99461 0.31181,-0.95102 0.49961,-0.86599 0.66968,-0.74303 0.80788,-0.58783 0.91417,-0.40677 0.97795,-0.208 0.99922,0 0.97795,0.208 0.91417,0.40677 0.80788,0.58783 0.66968,0.74303 z"
         inkscape:connector-curvature="0" />
      <path
         sodipodi:nodetypes="ccccccccccccccccccccccccccccccc"
         id="path35670"
         style="fill:none;stroke:#ff0000;stroke-opacity:1"
         d="m 148.43857,286.26813 -0.97831,0.20799 -0.99996,0 -0.97813,-0.20799 -0.91357,-0.40677 -0.80904,-0.58748 -0.66912,-0.74339 -0.50003,-0.86598 -0.30905,-0.95103 -0.10449,-0.9946 0.10449,-0.99461 0.30905,-0.95102 0.50003,-0.86599 0.66912,-0.74303 0.80904,-0.58783 0.91357,-0.40677 0.97813,-0.208 0.99996,0 0.97831,0.208 0.91346,0.40677 0.80894,0.58783 0.66933,0.74303 0.49996,0.86599 0.30898,0.95102 0.10452,0.99461 -0.10452,0.9946 -0.30898,0.95103 -0.49996,0.86598 -0.66933,0.74339 -0.80894,0.58748 z"
         inkscape:connector-curvature="0" />
      <path
         sodipodi:nodetypes="ccccccccccccccccccccccccccccccc"
         id="path35730"
         style="fill:none;stroke:#ff0000;stroke-opacity:1"
         d="m 290.17085,286.26813 -0.97831,0.20799 -0.99992,0 -0.9783,-0.20799 -0.91347,-0.40677 -0.80894,-0.58748 -0.66933,-0.74339 -0.49996,-0.86598 -0.30897,-0.95103 -0.10453,-0.9946 0.10453,-0.99461 0.30897,-0.95102 0.49996,-0.86599 0.66933,-0.74303 0.80894,-0.58783 0.91347,-0.40677 0.9783,-0.208 0.99992,0 0.97831,0.208 0.91347,0.40677 0.80893,0.58783 0.66933,0.74303 0.49996,0.86599 0.30898,0.95102 0.10453,0.99461 -0.10453,0.9946 -0.30898,0.95103 -0.49996,0.86598 -0.66933,0.74339 -0.80893,0.58748 z"
         inkscape:connector-curvature="0" />
      <path
         sodipodi:nodetypes="ccccccccccccccccccccccccccccccc"
         id="path35754"
         style="fill:none;stroke:#ff0000;stroke-opacity:1"
         d="m 355.68873,278.90726 0.66933,-0.74303 0.80893,-0.58783 0.91347,-0.40677 0.9783,-0.208 0.99993,0 0.9783,0.208 0.91347,0.40677 0.80893,0.58783 0.66934,0.74303 0.49996,0.86599 0.30897,0.95102 0.10453,0.99461 -0.10453,0.9946 -0.30897,0.95103 -0.49996,0.86598 -0.66934,0.74339 -0.80893,0.58748 -0.91347,0.40677 -0.9783,0.20799 -0.99993,0 -0.9783,-0.20799 -0.91347,-0.40677 -0.80893,-0.58748 -0.66933,-0.74339 -0.49997,-0.86598 -0.30897,-0.95103 -0.10453,-0.9946 0.10453,-0.99461 0.30897,-0.95102 z"
         inkscape:connector-curvature="0" />
      <path
         sodipodi:nodetypes="ccccccccccccccccccccccccccccccc"
         id="path35846"
         style="fill:none;stroke:#ff0000;stroke-opacity:1"
         d="m 187.72782,323.07671 -1.34823,0.97973 -1.52256,0.67783 -1.63027,0.34654 -37.09985,0 -1.63027,-0.34654 -1.52256,-0.67783 -1.34841,-0.97973 -1.11525,-1.23874 -0.83332,-1.44319 -0.51505,-1.58527 -0.17419,-1.65756 0.17419,-1.65756 0.51505,-1.58492 0.83332,-1.44355 1.11525,-1.23874 1.34841,-0.97937 1.52256,-0.67818 1.63027,-0.34654 37.09985,0 1.63027,0.34654 1.52256,0.67818 1.34823,0.97937 1.11543,1.23874 0.83339,1.44355 0.51484,1.58492 0.17433,1.65756 -0.17433,1.65756 -0.51484,1.58527 -0.83339,1.44319 z"
         inkscape:connector-curvature="0" />
      <path
         sodipodi:nodetypes="ccccccccccccccccccccccccccccccc"
         id="path35866"
         style="fill:none;stroke:#ff0000;stroke-opacity:1"
         d="m 245.4614,318.80951 -0.17433,-1.65756 0.17433,-1.65756 0.51485,-1.58492 0.83338,-1.44355 1.11508,-1.23874 1.34858,-0.97937 1.52256,-0.67818 1.63028,-0.34654 37.09984,0 1.63028,0.34654 1.52255,0.67818 1.34823,0.97937 1.11544,1.23874 0.83338,1.44355 0.51485,1.58492 0.17432,1.65756 -0.17432,1.65756 -0.51485,1.58527 -0.83338,1.44319 -1.11544,1.23874 -1.34823,0.97973 -1.52255,0.67783 -1.63028,0.34654 -37.09984,0 -1.63028,-0.34654 -1.52256,-0.67783 -1.34858,-0.97973 -1.11508,-1.23874 -0.83338,-1.44319 z"
         inkscape:connector-curvature="0" />
      <path
         sodipodi:nodetypes="ccccccccccccccccccccccccccccccc"
         id="path35916"
         style="fill:none;stroke:#ff0000;stroke-opacity:1"
         d="m 357.09506,324.73427 -1.52255,-0.67783 -1.34859,-0.97973 -1.11508,-1.23874 -0.83338,-1.44319 -0.51484,-1.58527 -0.17434,-1.65756 0.17434,-1.65756 0.51484,-1.58492 0.83338,-1.44355 1.11508,-1.23874 1.34859,-0.97937 1.52255,-0.67818 1.63028,-0.34654 37.09984,0 1.63028,0.34654 1.52256,0.67818 1.34823,0.97937 1.11543,1.23874 0.83338,1.44355 0.51485,1.58492 0.17433,1.65756 -0.17433,1.65756 -0.51485,1.58527 -0.83338,1.44319 -1.11543,1.23874 -1.34823,0.97973 -1.52256,0.67783 -1.63028,0.34654 -37.09984,0 z"
         inkscape:connector-curvature="0" />
      <path
         sodipodi:nodetypes="ccccccccccccccccccccccccccccccc"
         id="path36026"
         style="fill:none;stroke:#ff0000;stroke-opacity:1"
         d="m 506.62723,323.07671 -1.35,0.97973 -1.52362,0.67783 -1.62992,0.34654 -37.09914,0 -1.63027,-0.34654 -1.52256,-0.67783 -1.34858,-0.97973 -1.11508,-1.23874 -0.83339,-1.44319 -0.51484,-1.58527 -0.17433,-1.65756 0.17433,-1.65756 0.51484,-1.58492 0.83339,-1.44355 1.11508,-1.23874 1.34858,-0.97937 1.52256,-0.67818 1.63027,-0.34654 37.09914,0 1.62992,0.34654 1.52362,0.67818 1.35,0.97937 1.1126,1.23874 0.83268,1.44355 0.51732,1.58492 0.17362,1.65756 -0.17362,1.65756 -0.51732,1.58527 -0.83268,1.44319 z"
         inkscape:connector-curvature="0" />
      <path
         sodipodi:nodetypes="ccccccccccccccccccccccccccccccc"
         id="path36072"
         style="fill:none;stroke:#ff0000;stroke-opacity:1"
         d="m 614.03904,312.46592 0.83268,1.44355 0.51732,1.58492 0.17362,1.65756 -0.17362,1.65756 -0.51732,1.58527 -0.83268,1.44319 -1.1126,1.23874 -1.35,0.97973 -1.52362,0.67783 -1.62992,0.34654 -37.09843,0 -1.62992,-0.34654 -1.52362,-0.67783 -1.35,-0.97973 -1.1126,-1.23874 -0.83267,-1.44319 -0.51733,-1.58527 -0.17362,-1.65756 0.17362,-1.65756 0.51733,-1.58492 0.83267,-1.44355 1.1126,-1.23874 1.35,-0.97937 1.52362,-0.67818 1.62992,-0.34654 37.09843,0 1.62992,0.34654 1.52362,0.67818 1.35,0.97937 z"
         inkscape:connector-curvature="0" />
      <path
         sodipodi:nodetypes="ccccccccccccccccccccccccccccccc"
         id="path36102"
         style="fill:none;stroke:#ff0000;stroke-opacity:1"
         d="m 320.25565,319.96356 -0.49996,-0.86598 -0.30897,-0.95103 -0.10453,-0.9946 0.10453,-0.99461 0.30897,-0.95102 0.49996,-0.86599 0.66934,-0.74303 0.80893,-0.58783 0.91347,-0.40678 0.9783,-0.20799 0.99993,0 0.9783,0.20799 0.91347,0.40678 0.80893,0.58783 0.66933,0.74303 0.49997,0.86599 0.30897,0.95102 0.10453,0.99461 -0.10453,0.9946 -0.30897,0.95103 -0.49997,0.86598 -0.66933,0.74303 -0.80893,0.58784 -0.91347,0.40677 -0.9783,0.20799 -0.99993,0 -0.9783,-0.20799 -0.91347,-0.40677 -0.80893,-0.58784 z"
         inkscape:connector-curvature="0" />
      <path
         sodipodi:nodetypes="ccccccccccccccccccccccccccccccc"
         id="path36162"
         style="fill:none;stroke:#ff0000;stroke-opacity:1"
         d="m 213.95644,319.96356 -0.49996,-0.86598 -0.30897,-0.95103 -0.10453,-0.9946 0.10453,-0.99461 0.30897,-0.95102 0.49996,-0.86599 0.66933,-0.74303 0.80894,-0.58783 0.91346,-0.40678 0.97831,-0.20799 0.99992,0 0.97831,0.20799 0.91347,0.40678 0.80893,0.58783 0.66933,0.74303 0.49996,0.86599 0.30898,0.95102 0.10453,0.99461 -0.10453,0.9946 -0.30898,0.95103 -0.49996,0.86598 -0.66933,0.74303 -0.80893,0.58784 -0.91347,0.40677 -0.97831,0.20799 -0.99992,0 -0.97831,-0.20799 -0.91346,-0.40677 -0.80894,-0.58784 z"
         inkscape:connector-curvature="0" />
      <path
         sodipodi:nodetypes="ccccccccccccccccccccccccccccccc"
         id="path36268"
         style="fill:none;stroke:#ff0000;stroke-opacity:1"
         d="m 432.8166,321.29443 -0.91346,0.40677 -0.97831,0.20799 -0.99992,0 -0.97831,-0.20799 -0.91346,-0.40677 -0.80894,-0.58784 -0.66933,-0.74303 -0.49996,-0.86598 -0.30898,-0.95103 -0.10453,-0.9946 0.10453,-0.99461 0.30898,-0.95102 0.49996,-0.86599 0.66933,-0.74303 0.80894,-0.58783 0.91346,-0.40678 0.97831,-0.20799 0.99992,0 0.97831,0.20799 0.91346,0.40678 0.80894,0.58783 0.66933,0.74303 0.49996,0.86599 0.30897,0.95102 0.10453,0.99461 -0.10453,0.9946 -0.30897,0.95103 -0.49996,0.86598 -0.66933,0.74303 z"
         inkscape:connector-curvature="0" />
      <path
         sodipodi:nodetypes="ccccccccccccccccccccccccccccccc"
         id="path36282"
         style="fill:none;stroke:#ff0000;stroke-opacity:1"
         d="m 532.85479,319.96356 -0.49961,-0.86598 -0.31181,-0.95103 -0.10275,-0.9946 0.10275,-0.99461 0.31181,-0.95102 0.49961,-0.86599 0.66968,-0.74303 0.80788,-0.58783 0.91417,-0.40678 0.97795,-0.20799 0.99922,0 0.97795,0.20799 0.91417,0.40678 0.80788,0.58783 0.66968,0.74303 0.49961,0.86599 0.30827,0.95102 0.1063,0.99461 -0.1063,0.9946 -0.30827,0.95103 -0.49961,0.86598 -0.66968,0.74303 -0.80788,0.58784 -0.91417,0.40677 -0.97795,0.20799 -0.99922,0 -0.97795,-0.20799 -0.91417,-0.40677 -0.80788,-0.58784 z"
         inkscape:connector-curvature="0" />
      <path
         sodipodi:nodetypes="ccccccccccccccccccccccccccccccc"
         id="path36348"
         style="fill:none;stroke:#ff0000;stroke-opacity:1"
         d="m 166.09416,394.39604 0.12401,-1.17886 0.36603,-1.12712 0.59279,-1.0265 0.793,-0.88051 0.95881,-0.69661 1.08284,-0.48225 1.15937,-0.24626 1.18488,0 1.15937,0.24626 1.08284,0.48225 0.95881,0.69661 0.793,0.88051 0.59279,1.0265 0.36603,1.12712 0.12401,1.17886 -0.12401,1.17886 -0.36603,1.12713 -0.59279,1.02649 -0.793,0.88051 -0.95881,0.69662 -1.08284,0.48224 -1.15937,0.24626 -1.18488,0 -1.15937,-0.24626 -1.08284,-0.48224 -0.95881,-0.69662 -0.793,-0.88051 -0.59279,-1.02649 -0.36603,-1.12713 z"
         inkscape:connector-curvature="0" />
      <path
         sodipodi:nodetypes="ccccccccccccccccccccccccccccccc"
         id="path36408"
         style="fill:none;stroke:#ff0000;stroke-opacity:1"
         d="m 520.7792,394.39604 0.12401,-1.17886 0.36496,-1.12712 0.59528,-1.0265 0.79016,-0.88051 0.96023,-0.69661 1.08426,-0.48225 1.15866,-0.24626 1.18346,0 1.15866,0.24626 1.08426,0.48225 0.96023,0.69661 0.79016,0.88051 0.59528,1.0265 0.36496,1.12712 0.12401,1.17886 -0.12401,1.17886 -0.36496,1.12713 -0.59528,1.02649 -0.79016,0.88051 -0.96023,0.69662 -1.08426,0.48224 -1.15866,0.24626 -1.18346,0 -1.15866,-0.24626 -1.08426,-0.48224 -0.96023,-0.69662 -0.79016,-0.88051 -0.59528,-1.02649 -0.36496,-1.12713 z"
         inkscape:connector-curvature="0" />
      <path
         sodipodi:nodetypes="ccccccccccccccccccccccccccccccc"
         id="path36470"
         style="fill:none;stroke:#ff0000;stroke-opacity:1"
         d="m 356.65144,398.36207 0.30898,-0.95103 0.49996,-0.86598 0.66933,-0.74303 0.80894,-0.58784 0.91346,-0.40677 0.97831,-0.20799 0.99992,0 0.97831,0.20799 0.91346,0.40677 0.80894,0.58784 0.66933,0.74303 0.49996,0.86598 0.30898,0.95103 0.10452,0.9946 -0.10452,0.99461 -0.30898,0.95102 -0.49996,0.86599 -0.66933,0.74338 -0.80894,0.58748 -0.91346,0.40677 -0.97831,0.208 -0.99992,0 -0.97831,-0.208 -0.91346,-0.40677 -0.80894,-0.58748 -0.66933,-0.74338 -0.49996,-0.86599 -0.30898,-0.95102 -0.10453,-0.99461 z"
         inkscape:connector-curvature="0" />
      <path
         sodipodi:nodetypes="ccccccccccccccccccccccccccccccc"
         id="path36522"
         style="fill:none;stroke:#ff0000;stroke-opacity:1"
         d="m 562.9729,402.16829 -0.49961,-0.86599 -0.31181,-0.95102 -0.10275,-0.99461 0.10275,-0.9946 0.31181,-0.95103 0.49961,-0.86598 0.66968,-0.74303 0.80788,-0.58784 0.91417,-0.40677 0.97795,-0.20799 0.99922,0 0.97795,0.20799 0.91417,0.40677 0.80788,0.58784 0.66968,0.74303 0.49961,0.86598 0.30827,0.95103 0.1063,0.9946 -0.1063,0.99461 -0.30827,0.95102 -0.49961,0.86599 -0.66968,0.74338 -0.80788,0.58748 -0.91417,0.40677 -0.97795,0.208 -0.99922,0 -0.97795,-0.208 -0.91417,-0.40677 -0.80788,-0.58748 z"
         inkscape:connector-curvature="0" />
      <path
         sodipodi:nodetypes="ccccccccccccccccccccccccccccccc"
         id="path36600"
         style="fill:none;stroke:#ff0000;stroke-opacity:1"
         d="m 146.98014,395.38214 1.15902,-0.24626 1.18523,0 1.15937,0.24626 1.08284,0.48225 0.95882,0.69661 0.79299,0.88051 0.5928,1.0265 0.36602,1.12748 0.12402,1.17851 -0.12402,1.17885 -0.36602,1.12713 -0.5928,1.02649 -0.79299,0.88052 -0.95882,0.69661 -1.08284,0.48225 -1.15937,0.24626 -1.18523,0 -1.15902,-0.24626 -1.08283,-0.48225 -0.95889,-0.69661 -0.79303,-0.88052 -0.59265,-1.02649 -0.36624,-1.12713 -0.12387,-1.17885 0.12387,-1.17851 0.36624,-1.12748 0.59265,-1.0265 0.79303,-0.88051 0.95889,-0.69661 z"
         inkscape:connector-curvature="0" />
      <path
         sodipodi:nodetypes="ccccccccccccccccccccccccccccccc"
         id="path36674"
         style="fill:none;stroke:#ff0000;stroke-opacity:1"
         d="m 293.87184,398.46801 0.36602,1.12748 0.12402,1.17851 -0.12402,1.17885 -0.36602,1.12713 -0.5928,1.02649 -0.79299,0.88052 -0.95882,0.69661 -1.08284,0.48225 -1.15937,0.24626 -1.18523,0 -1.15902,-0.24626 -1.08283,-0.48225 -0.95882,-0.69661 -0.79299,-0.88052 -0.5928,-1.02649 -0.36602,-1.12713 -0.12402,-1.17885 0.12402,-1.17851 0.36602,-1.12748 0.5928,-1.0265 0.79299,-0.88051 0.95882,-0.69661 1.08283,-0.48225 1.15902,-0.24626 1.18523,0 1.15937,0.24626 1.08284,0.48225 0.95882,0.69661 0.79299,0.88051 z"
         inkscape:connector-curvature="0" />
      <path
         sodipodi:nodetypes="ccccccccccccccccccccccccccccccc"
         id="path36710"
         style="fill:none;stroke:#ff0000;stroke-opacity:1"
         d="m 337.00522,409.87073 0.36638,-1.12713 0.59279,-1.02614 0.793,-0.88087 0.95882,-0.69661 1.08283,-0.48224 1.15902,-0.24626 1.18523,0 1.15937,0.24626 1.08284,0.48224 0.95882,0.69661 0.79299,0.88087 0.59279,1.02614 0.36603,1.12713 0.12401,1.17886 -0.12401,1.17885 -0.36603,1.12713 -0.59279,1.0265 -0.79299,0.88051 -0.95882,0.69697 -1.08284,0.48189 -1.15937,0.24625 -1.18523,0 -1.15902,-0.24625 -1.08283,-0.48189 -0.95882,-0.69697 -0.793,-0.88051 -0.59279,-1.0265 -0.36638,-1.12713 -0.12366,-1.17885 z"
         inkscape:connector-curvature="0" />
      <path
         sodipodi:nodetypes="ccccccccccccccccccccccccccccccc"
         id="path36808"
         style="fill:none;stroke:#ff0000;stroke-opacity:1"
         d="m 345.3855,514.81746 -1.08284,0.48224 -1.15937,0.24626 -1.18523,0 -1.15902,-0.24626 -1.08283,-0.48224 -0.95882,-0.69662 -0.793,-0.88051 -0.59279,-1.02649 -0.36638,-1.12713 -0.12366,-1.17886 0.12366,-1.1785 0.36638,-1.12748 0.59279,-1.02614 0.793,-0.88087 0.95882,-0.69661 1.08283,-0.48225 1.15902,-0.24626 1.18523,0 1.15937,0.24626 1.08284,0.48225 0.95882,0.69661 0.79299,0.88087 0.59279,1.02614 0.36603,1.12748 0.12401,1.1785 -0.12401,1.17886 -0.36603,1.12713 -0.59279,1.02649 -0.79299,0.88051 z"
         inkscape:connector-curvature="0" />
      <path
         sodipodi:nodetypes="ccccccccccccccccccccccccccccccc"
         id="path36830"
         style="fill:none;stroke:#ff0000;stroke-opacity:1"
         d="m 283.14731,554.08332 0.36602,-1.12712 0.5928,-1.02614 0.79299,-0.88087 0.95882,-0.69661 1.08283,-0.48225 1.15902,-0.24626 1.18523,0 1.15937,0.24626 1.08284,0.48225 0.95882,0.69661 0.79299,0.88087 0.5928,1.02614 0.36602,1.12712 0.12402,1.17886 -0.12402,1.17886 -0.36602,1.12713 -0.5928,1.02649 -0.79299,0.88052 -0.95882,0.69696 -1.08284,0.48189 -1.15937,0.24626 -1.18523,0 -1.15902,-0.24626 -1.08283,-0.48189 -0.95882,-0.69696 -0.79299,-0.88052 -0.5928,-1.02649 -0.36602,-1.12713 -0.12402,-1.17886 z"
         inkscape:connector-curvature="0" />
      <path
         sodipodi:nodetypes="ccccccccccccccccccccccccccccccc"
         id="path36898"
         style="fill:none;stroke:#ff0000;stroke-opacity:1"
         d="m 145.89731,550.35258 1.08283,-0.48225 1.15902,-0.24626 1.18523,0 1.15937,0.24626 1.08284,0.48225 0.95882,0.69661 0.79299,0.88087 0.5928,1.02614 0.36602,1.12712 0.12402,1.17886 -0.12402,1.17886 -0.36602,1.12713 -0.5928,1.02649 -0.79299,0.88052 -0.95882,0.69696 -1.08284,0.48189 -1.15937,0.24626 -1.18523,0 -1.15902,-0.24626 -1.08283,-0.48189 -0.95889,-0.69696 -0.79303,-0.88052 -0.59265,-1.02649 -0.36624,-1.12713 -0.12387,-1.17886 0.12387,-1.17886 0.36624,-1.12712 0.59265,-1.02614 0.79303,-0.88087 z"
         inkscape:connector-curvature="0" />
      <path
         sodipodi:nodetypes="ccccccccccccccccccccccccccccccccccccccccc"
         id="path37012"
         style="fill:none;stroke:#ff0000;stroke-opacity:1"
         d="m 523.14258,569.40426 -1.18346,0 -1.15866,-0.2463 -1.08425,-0.4822 -0.96024,-0.69665 -0.79016,-0.88051 -0.59527,-1.0265 -0.36496,-1.12712 -0.12402,-1.17886 0.12402,-1.1785 0.36496,-1.12748 0.59527,-1.0265 0.79016,-0.88051 0.96024,-0.69662 1.08425,-0.48224 1.15866,-0.24626 1.18346,0 1.15867,0.24626 0.19842,0.0879 0.19843,-0.0879 1.15866,-0.24624 1.18346,0 1.15866,0.24626 1.08426,0.48224 0.96023,0.69662 0.79016,0.88051 0.59528,1.0265 0.36496,1.12748 0.12401,1.1785 -0.12401,1.17886 -0.36496,1.12712 -0.59528,1.0265 -0.79016,0.88051 -0.96023,0.69665 -1.08426,0.4822 -1.15866,0.2463 -1.18346,0 -1.15866,-0.2463 -0.19843,-0.0878 -0.19842,0.088 z"
         inkscape:connector-curvature="0" />
      <path
         sodipodi:nodetypes="ccccccccccccccccccccccccccccccc"
         id="path37044"
         style="fill:none;stroke:#ff0000;stroke-opacity:1"
         d="m 361.83034,568.22147 0.97831,0.208 0.91346,0.40679 0.80894,0.5878 0.66933,0.743 0.49996,0.866 0.30898,0.9511 0.10452,0.9946 -0.10452,0.9946 -0.30898,0.951 -0.49996,0.866 -0.66933,0.7434 -0.80894,0.5874 -0.91346,0.4068 -0.97831,0.208 -0.99992,0 -0.97831,-0.208 -0.91346,-0.4068 -0.80894,-0.5874 -0.66933,-0.7434 -0.49996,-0.866 -0.30898,-0.951 -0.10453,-0.9946 0.10453,-0.9946 0.30898,-0.9511 0.49996,-0.866 0.66933,-0.743 0.80894,-0.5878 0.91346,-0.40679 0.97831,-0.208 z"
         inkscape:connector-curvature="0" />
      <path
         sodipodi:nodetypes="ccccccccccccccccccccccccccccccc"
         id="path37114"
         style="fill:none;stroke:#ff0000;stroke-opacity:1"
         d="m 571.21109,571.03306 0.30827,0.9511 0.1063,0.9946 -0.1063,0.9946 -0.30827,0.951 -0.49961,0.866 -0.66968,0.7434 -0.80788,0.5874 -0.91417,0.4068 -0.97795,0.208 -0.99922,0 -0.97795,-0.208 -0.91417,-0.4068 -0.80788,-0.5874 -0.66968,-0.7434 -0.49961,-0.866 -0.31181,-0.951 -0.10275,-0.9946 0.10275,-0.9946 0.31181,-0.9511 0.49961,-0.866 0.66968,-0.743 0.80788,-0.5878 0.91417,-0.40679 0.97795,-0.208 0.99922,0 0.97795,0.208 0.91417,0.40679 0.80788,0.5878 0.66968,0.743 z"
         inkscape:connector-curvature="0" />
      <path
         sodipodi:nodetypes="ccccccccccccccccccccccccccccccc"
         id="path37170"
         style="fill:none;stroke:#ff0000;stroke-opacity:1"
         d="m 175.55691,581.16726 0.793,0.8809 0.59279,1.0261 0.36603,1.1272 0.12401,1.1788 -0.12401,1.1787 -0.36603,1.1272 -0.59279,1.0264 -0.793,0.8808 -0.95881,0.6967 -1.08284,0.482 -1.15937,0.2465 -1.18488,0 -1.15937,-0.2465 -1.08284,-0.482 -0.95881,-0.6967 -0.793,-0.8808 -0.59279,-1.0264 -0.36603,-1.1272 -0.12401,-1.1787 0.12401,-1.1788 0.36603,-1.1272 0.59279,-1.0261 0.793,-0.8809 0.95881,-0.6966 1.08284,-0.4822 1.15937,-0.2463 1.18488,0 1.15937,0.2463 1.08284,0.4822 z"
         inkscape:connector-curvature="0" />
      <path
         sodipodi:nodetypes="ccccccccccccccccccccccccccccccc"
         id="path37214"
         style="fill:none;stroke:#ff0000;stroke-opacity:1"
         d="m 637.00321,616.43976 1.04174,-1.156 1.25787,-0.9144 1.42087,-0.6327 1.52008,-0.3235 1.55551,0 1.52362,0.3235 1.42087,0.6327 1.25787,0.9144 1.04173,1.156 0.77599,1.3471 0.48189,1.4795 0.16299,1.547 -0.16299,1.547 -0.48189,1.4795 -0.77599,1.3472 -1.04173,1.156 -1.25787,0.9143 -1.42087,0.6327 -1.52362,0.3235 -1.55551,0 -1.52008,-0.3235 -1.42087,-0.6327 -1.25787,-0.9143 -1.04174,-1.156 -0.77598,-1.3472 -0.48189,-1.4795 -0.16299,-1.547 0.16299,-1.547 0.48189,-1.4795 z"
         inkscape:connector-curvature="0" />
      <path
         sodipodi:nodetypes="ccccccccccccccccccccccccccccccc"
         id="path37266"
         style="fill:none;stroke:#ff0000;stroke-opacity:1"
         d="m 104.24889,622.36036 -0.16257,-1.547 0.16257,-1.547 0.48072,-1.4795 0.77779,-1.3471 1.04088,-1.156 1.25851,-0.9144 1.4211,-0.6327 1.52159,-0.3235 1.5555,0 1.52159,0.3235 1.4211,0.6327 1.25851,0.9144 1.04088,1.156 0.77779,1.3471 0.48072,1.4795 0.16257,1.547 -0.16257,1.547 -0.48072,1.4795 -0.77779,1.3472 -1.04088,1.156 -1.25851,0.9143 -1.4211,0.6327 -1.52159,0.3235 -1.5555,0 -1.52159,-0.3235 -1.4211,-0.6327 -1.25851,-0.9143 -1.04088,-1.156 -0.77779,-1.3472 z"
         inkscape:connector-curvature="0" />
    </g>
  </g>
</svg>
