  0
SECTION
  2
BLOCKS
  0
ENDSEC
  0
SECTION
  2
ENTITIES
  0
LINE
  8
0
 10
1.04527
 20
-9.94521
 11
1.73648
 21
-9.84807
  0
LINE
  8
0
 10
1.73648
 20
-9.84807
 11
2.4192
 21
-9.70296
  0
LINE
  8
0
 10
2.4192
 20
-9.70296
 11
3.09016
 21
-9.51056
  0
LINE
  8
0
 10
3.09016
 20
-9.51056
 11
3.74606
 21
-9.27184
  0
LINE
  8
0
 10
3.74606
 20
-9.27184
 11
4.3837
 21
-8.98793
  0
LINE
  8
0
 10
4.3837
 20
-8.98793
 11
5
 21
-8.66025
  0
LINE
  8
0
 10
5
 20
-8.66025
 11
5.59192
 21
-8.29037
  0
LINE
  8
0
 10
5.59192
 20
-8.29037
 11
6.1566
 21
-7.8801
  0
LINE
  8
0
 10
6.1566
 20
-7.8801
 11
6.6913
 21
-7.43144
  0
LINE
  8
0
 10
6.6913
 20
-7.43144
 11
7.19339
 21
-6.94658
  0
LINE
  8
0
 10
7.19339
 20
-6.94658
 11
7.66043
 21
-6.42787
  0
LINE
  8
0
 10
7.66043
 20
-6.42787
 11
8.09016
 21
-5.87784
  0
LINE
  8
0
 10
8.09016
 20
-5.87784
 11
8.48047
 21
-5.29918
  0
LINE
  8
0
 10
8.48047
 20
-5.29918
 11
8.82947
 21
-4.6947
  0
LINE
  8
0
 10
8.82947
 20
-4.6947
 11
9.13545
 21
-4.06735
  0
LINE
  8
0
 10
9.13545
 20
-4.06735
 11
9.39691
 21
-3.4202
  0
LINE
  8
0
 10
9.39691
 20
-3.4202
 11
9.61261
 21
-2.75636
  0
LINE
  8
0
 10
9.61261
 20
-2.75636
 11
9.78146
 21
-2.07912
  0
LINE
  8
0
 10
9.78146
 20
-2.07912
 11
9.90268
 21
-1.39172
  0
LINE
  8
0
 10
9.90268
 20
-1.39172
 11
9.97563
 21
-0.697556
  0
LINE
  8
0
 10
9.97563
 20
-0.697556
 11
10
 21
0
  0
LINE
  8
0
 10
10
 20
0
 11
9.97563
 21
0.697556
  0
LINE
  8
0
 10
9.97563
 20
0.697556
 11
9.90268
 21
1.39172
  0
LINE
  8
0
 10
9.90268
 20
1.39172
 11
9.78146
 21
2.07912
  0
LINE
  8
0
 10
9.78146
 20
2.07912
 11
9.61261
 21
2.75636
  0
LINE
  8
0
 10
9.61261
 20
2.75636
 11
4.8063
 21
21.3782
  0
LINE
  8
0
 10
4.8063
 20
21.3782
 11
4.69846
 21
21.7101
  0
LINE
  8
0
 10
4.69846
 20
21.7101
 11
4.56772
 21
22.0337
  0
LINE
  8
0
 10
4.56772
 20
22.0337
 11
4.41473
 21
22.3474
  0
LINE
  8
0
 10
4.41473
 20
22.3474
 11
4.24023
 21
22.6496
  0
LINE
  8
0
 10
4.24023
 20
22.6496
 11
4.04507
 21
22.9389
  0
LINE
  8
0
 10
4.04507
 20
22.9389
 11
3.83022
 21
23.2139
  0
LINE
  8
0
 10
3.83022
 20
23.2139
 11
3.59669
 21
23.4733
  0
LINE
  8
0
 10
3.59669
 20
23.4733
 11
3.34564
 21
23.7157
  0
LINE
  8
0
 10
3.34564
 20
23.7157
 11
3.07829
 21
23.94
  0
LINE
  8
0
 10
3.07829
 20
23.94
 11
2.79596
 21
24.1452
  0
LINE
  8
0
 10
2.79596
 20
24.1452
 11
2.5
 21
24.3301
  0
LINE
  8
0
 10
2.5
 20
24.3301
 11
2.19185
 21
24.494
  0
LINE
  8
0
 10
2.19185
 20
24.494
 11
1.87303
 21
24.6359
  0
LINE
  8
0
 10
1.87303
 20
24.6359
 11
1.54507
 21
24.7553
  0
LINE
  8
0
 10
1.54507
 20
24.7553
 11
1.20959
 21
24.8515
  0
LINE
  8
0
 10
1.20959
 20
24.8515
 11
0.86824
 21
24.924
  0
LINE
  8
0
 10
0.86824
 20
24.924
 11
0.522629
 21
24.9726
  0
LINE
  8
0
 10
0.522629
 20
24.9726
 11
0.174484
 21
24.9969
  0
LINE
  8
0
 10
0.174484
 20
24.9969
 11
-0.174484
 21
24.9969
  0
LINE
  8
0
 10
-0.174484
 20
24.9969
 11
-0.522629
 21
24.9726
  0
LINE
  8
0
 10
-0.522629
 20
24.9726
 11
-0.86824
 21
24.924
  0
LINE
  8
0
 10
-0.86824
 20
24.924
 11
-1.20959
 21
24.8515
  0
LINE
  8
0
 10
-1.20959
 20
24.8515
 11
-1.54507
 21
24.7553
  0
LINE
  8
0
 10
-1.54507
 20
24.7553
 11
-1.87303
 21
24.6359
  0
LINE
  8
0
 10
-1.87303
 20
24.6359
 11
-2.19185
 21
24.494
  0
LINE
  8
0
 10
-2.19185
 20
24.494
 11
-2.49998
 21
24.3301
  0
LINE
  8
0
 10
-2.49998
 20
24.3301
 11
-2.79596
 21
24.1452
  0
LINE
  8
0
 10
-2.79596
 20
24.1452
 11
-3.07829
 21
23.94
  0
LINE
  8
0
 10
-3.07829
 20
23.94
 11
-3.34564
 21
23.7157
  0
LINE
  8
0
 10
-3.34564
 20
23.7157
 11
-3.59669
 21
23.4733
  0
LINE
  8
0
 10
-3.59669
 20
23.4733
 11
-3.83022
 21
23.2139
  0
LINE
  8
0
 10
-3.83022
 20
23.2139
 11
-4.04507
 21
22.9389
  0
LINE
  8
0
 10
-4.04507
 20
22.9389
 11
-4.24023
 21
22.6496
  0
LINE
  8
0
 10
-4.24023
 20
22.6496
 11
-4.41473
 21
22.3474
  0
LINE
  8
0
 10
-4.41473
 20
22.3474
 11
-4.56772
 21
22.0337
  0
LINE
  8
0
 10
-4.56772
 20
22.0337
 11
-4.69846
 21
21.7101
  0
LINE
  8
0
 10
-4.69846
 20
21.7101
 11
-4.8063
 21
21.3782
  0
LINE
  8
0
 10
-4.8063
 20
21.3782
 11
-9.61261
 21
2.75636
  0
LINE
  8
0
 10
-9.61261
 20
2.75636
 11
-9.78146
 21
2.07912
  0
LINE
  8
0
 10
-9.78146
 20
2.07912
 11
-9.90268
 21
1.39172
  0
LINE
  8
0
 10
-9.90268
 20
1.39172
 11
-9.97563
 21
0.697556
  0
LINE
  8
0
 10
-9.97563
 20
0.697556
 11
-10
 21
0
  0
LINE
  8
0
 10
-10
 20
0
 11
-9.97563
 21
-0.697556
  0
LINE
  8
0
 10
-9.97563
 20
-0.697556
 11
-9.90268
 21
-1.39172
  0
LINE
  8
0
 10
-9.90268
 20
-1.39172
 11
-9.78146
 21
-2.07912
  0
LINE
  8
0
 10
-9.78146
 20
-2.07912
 11
-9.61261
 21
-2.75636
  0
LINE
  8
0
 10
-9.61261
 20
-2.75636
 11
-9.39691
 21
-3.4202
  0
LINE
  8
0
 10
-9.39691
 20
-3.4202
 11
-9.13545
 21
-4.06735
  0
LINE
  8
0
 10
-9.13545
 20
-4.06735
 11
-8.82947
 21
-4.6947
  0
LINE
  8
0
 10
-8.82947
 20
-4.6947
 11
-8.48047
 21
-5.29918
  0
LINE
  8
0
 10
-8.48047
 20
-5.29918
 11
-8.09016
 21
-5.87784
  0
LINE
  8
0
 10
-8.09016
 20
-5.87784
 11
-7.66043
 21
-6.42787
  0
LINE
  8
0
 10
-7.66043
 20
-6.42787
 11
-7.19339
 21
-6.94658
  0
LINE
  8
0
 10
-7.19339
 20
-6.94658
 11
-6.6913
 21
-7.43144
  0
LINE
  8
0
 10
-6.6913
 20
-7.43144
 11
-6.1566
 21
-7.8801
  0
LINE
  8
0
 10
-6.1566
 20
-7.8801
 11
-5.59192
 21
-8.29037
  0
LINE
  8
0
 10
-5.59192
 20
-8.29037
 11
-5
 21
-8.66025
  0
LINE
  8
0
 10
-5
 20
-8.66025
 11
-4.3837
 21
-8.98793
  0
LINE
  8
0
 10
-4.3837
 20
-8.98793
 11
-3.74606
 21
-9.27184
  0
LINE
  8
0
 10
-3.74606
 20
-9.27184
 11
-3.09016
 21
-9.51056
  0
LINE
  8
0
 10
-3.09016
 20
-9.51056
 11
-2.4192
 21
-9.70296
  0
LINE
  8
0
 10
-2.4192
 20
-9.70296
 11
-1.73648
 21
-9.84807
  0
LINE
  8
0
 10
-1.73648
 20
-9.84807
 11
-1.04527
 21
-9.94521
  0
LINE
  8
0
 10
-1.04527
 20
-9.94521
 11
-0.348984
 21
-9.9939
  0
LINE
  8
0
 10
-0.348984
 20
-9.9939
 11
0.348984
 21
-9.9939
  0
LINE
  8
0
 10
0.348984
 20
-9.9939
 11
1.04527
 21
-9.94521
  0
LINE
  8
0
 10
-1.37062
 20
5.43095
 11
-1.56708
 21
5.50244
  0
LINE
  8
0
 10
-1.56708
 20
5.50244
 11
-1.74437
 21
5.61324
  0
LINE
  8
0
 10
-1.74437
 20
5.61324
 11
-1.89474
 21
5.75845
  0
LINE
  8
0
 10
-1.89474
 20
5.75845
 11
-2.01166
 21
5.93178
  0
LINE
  8
0
 10
-2.01166
 20
5.93178
 11
-2.08997
 21
6.12561
  0
LINE
  8
0
 10
-2.08997
 20
6.12561
 11
-2.12627
 21
6.33148
  0
LINE
  8
0
 10
-2.12627
 20
6.33148
 11
-2.11897
 21
6.54042
  0
LINE
  8
0
 10
-2.11897
 20
6.54042
 11
-2.06841
 21
6.74326
  0
LINE
  8
0
 10
-2.06841
 20
6.74326
 11
-1.97676
 21
6.93117
  0
LINE
  8
0
 10
-1.97676
 20
6.93117
 11
-1.84804
 21
7.0959
  0
LINE
  8
0
 10
-1.84804
 20
7.0959
 11
-1.6879
 21
7.23029
  0
LINE
  8
0
 10
-1.6879
 20
7.23029
 11
-1.50331
 21
7.32843
  0
LINE
  8
0
 10
-1.50331
 20
7.32843
 11
-1.30235
 21
7.38605
  0
LINE
  8
0
 10
-1.30235
 20
7.38605
 11
-1.09381
 21
7.40063
  0
LINE
  8
0
 10
-1.09381
 20
7.40063
 11
-0.88678
 21
7.37154
  0
LINE
  8
0
 10
-0.88678
 20
7.37154
 11
-0.690338
 21
7.30003
  0
LINE
  8
0
 10
-0.690338
 20
7.30003
 11
-0.513046
 21
7.18925
  0
LINE
  8
0
 10
-0.513046
 20
7.18925
 11
-0.362656
 21
7.04404
  0
LINE
  8
0
 10
-0.362656
 20
7.04404
 11
-0.245758
 21
6.87071
  0
LINE
  8
0
 10
-0.245758
 20
6.87071
 11
-0.16745
 21
6.67688
  0
LINE
  8
0
 10
-0.16745
 20
6.67688
 11
-0.131134
 21
6.47099
  0
LINE
  8
0
 10
-0.131134
 20
6.47099
 11
-0.138443
 21
6.26207
  0
LINE
  8
0
 10
-0.138443
 20
6.26207
 11
-0.189011
 21
6.05922
  0
LINE
  8
0
 10
-0.189011
 20
6.05922
 11
-0.280655
 21
5.87132
  0
LINE
  8
0
 10
-0.280655
 20
5.87132
 11
-0.409363
 21
5.70659
  0
LINE
  8
0
 10
-0.409363
 20
5.70659
 11
-0.569519
 21
5.5722
  0
LINE
  8
0
 10
-0.569519
 20
5.5722
 11
-0.754105
 21
5.47406
  0
LINE
  8
0
 10
-0.754105
 20
5.47406
 11
-0.955063
 21
5.41643
  0
LINE
  8
0
 10
-0.955063
 20
5.41643
 11
-1.1636
 21
5.40186
  0
LINE
  8
0
 10
-1.1636
 20
5.40186
 11
-1.37062
 21
5.43095
  0
LINE
  8
0
 10
3.14546
 20
4.63463
 11
2.94098
 21
4.6781
  0
LINE
  8
0
 10
2.94098
 20
4.6781
 11
2.75
 21
4.76314
  0
LINE
  8
0
 10
2.75
 20
4.76314
 11
2.58086
 21
4.88602
  0
LINE
  8
0
 10
2.58086
 20
4.88602
 11
2.44098
 21
5.04137
  0
LINE
  8
0
 10
2.44098
 20
5.04137
 11
2.33644
 21
5.22243
  0
LINE
  8
0
 10
2.33644
 20
5.22243
 11
2.27185
 21
5.42125
  0
LINE
  8
0
 10
2.27185
 20
5.42125
 11
2.25
 21
5.62915
  0
LINE
  8
0
 10
2.25
 20
5.62915
 11
2.27185
 21
5.83707
  0
LINE
  8
0
 10
2.27185
 20
5.83707
 11
2.33644
 21
6.03589
  0
LINE
  8
0
 10
2.33644
 20
6.03589
 11
2.44098
 21
6.21695
  0
LINE
  8
0
 10
2.44098
 20
6.21695
 11
2.58086
 21
6.3723
  0
LINE
  8
0
 10
2.58086
 20
6.3723
 11
2.75
 21
6.49518
  0
LINE
  8
0
 10
2.75
 20
6.49518
 11
2.94098
 21
6.58022
  0
LINE
  8
0
 10
2.94098
 20
6.58022
 11
3.14546
 21
6.62367
  0
LINE
  8
0
 10
3.14546
 20
6.62367
 11
3.35452
 21
6.62367
  0
LINE
  8
0
 10
3.35452
 20
6.62367
 11
3.55901
 21
6.58022
  0
LINE
  8
0
 10
3.55901
 20
6.58022
 11
3.75
 21
6.49518
  0
LINE
  8
0
 10
3.75
 20
6.49518
 11
3.91913
 21
6.3723
  0
LINE
  8
0
 10
3.91913
 20
6.3723
 11
4.05901
 21
6.21695
  0
LINE
  8
0
 10
4.05901
 20
6.21695
 11
4.16354
 21
6.03589
  0
LINE
  8
0
 10
4.16354
 20
6.03589
 11
4.22813
 21
5.83707
  0
LINE
  8
0
 10
4.22813
 20
5.83707
 11
4.25
 21
5.62915
  0
LINE
  8
0
 10
4.25
 20
5.62915
 11
4.22813
 21
5.42125
  0
LINE
  8
0
 10
4.22813
 20
5.42125
 11
4.16354
 21
5.22243
  0
LINE
  8
0
 10
4.16354
 20
5.22243
 11
4.05901
 21
5.04137
  0
LINE
  8
0
 10
4.05901
 20
5.04137
 11
3.91913
 21
4.88602
  0
LINE
  8
0
 10
3.91913
 20
4.88602
 11
3.75
 21
4.76314
  0
LINE
  8
0
 10
3.75
 20
4.76314
 11
3.55901
 21
4.6781
  0
LINE
  8
0
 10
3.55901
 20
4.6781
 11
3.35452
 21
4.63463
  0
LINE
  8
0
 10
3.35452
 20
4.63463
 11
3.14546
 21
4.63463
  0
LINE
  8
0
 10
-5.15292
 20
3.1933
 11
-5.35388
 21
3.25093
  0
LINE
  8
0
 10
-5.35388
 20
3.25093
 11
-5.53847
 21
3.34908
  0
LINE
  8
0
 10
-5.53847
 20
3.34908
 11
-5.69862
 21
3.48346
  0
LINE
  8
0
 10
-5.69862
 20
3.48346
 11
-5.82733
 21
3.64819
  0
LINE
  8
0
 10
-5.82733
 20
3.64819
 11
-5.91898
 21
3.83609
  0
LINE
  8
0
 10
-5.91898
 20
3.83609
 11
-5.96954
 21
4.03894
  0
LINE
  8
0
 10
-5.96954
 20
4.03894
 11
-5.97685
 21
4.24786
  0
LINE
  8
0
 10
-5.97685
 20
4.24786
 11
-5.94054
 21
4.45375
  0
LINE
  8
0
 10
-5.94054
 20
4.45375
 11
-5.86223
 21
4.64758
  0
LINE
  8
0
 10
-5.86223
 20
4.64758
 11
-5.74533
 21
4.82089
  0
LINE
  8
0
 10
-5.74533
 20
4.82089
 11
-5.59494
 21
4.96613
  0
LINE
  8
0
 10
-5.59494
 20
4.96613
 11
-5.41765
 21
5.0769
  0
LINE
  8
0
 10
-5.41765
 20
5.0769
 11
-5.22121
 21
5.14841
  0
LINE
  8
0
 10
-5.22121
 20
5.14841
 11
-5.01418
 21
5.17751
  0
LINE
  8
0
 10
-5.01418
 20
5.17751
 11
-4.80563
 21
5.16292
  0
LINE
  8
0
 10
-4.80563
 20
5.16292
 11
-4.60468
 21
5.1053
  0
LINE
  8
0
 10
-4.60468
 20
5.1053
 11
-4.42009
 21
5.00716
  0
LINE
  8
0
 10
-4.42009
 20
5.00716
 11
-4.25995
 21
4.87277
  0
LINE
  8
0
 10
-4.25995
 20
4.87277
 11
-4.13123
 21
4.70804
  0
LINE
  8
0
 10
-4.13123
 20
4.70804
 11
-4.03958
 21
4.52013
  0
LINE
  8
0
 10
-4.03958
 20
4.52013
 11
-3.98901
 21
4.31729
  0
LINE
  8
0
 10
-3.98901
 20
4.31729
 11
-3.98172
 21
4.10835
  0
LINE
  8
0
 10
-3.98172
 20
4.10835
 11
-4.01802
 21
3.90248
  0
LINE
  8
0
 10
-4.01802
 20
3.90248
 11
-4.09633
 21
3.70863
  0
LINE
  8
0
 10
-4.09633
 20
3.70863
 11
-4.21324
 21
3.53532
  0
LINE
  8
0
 10
-4.21324
 20
3.53532
 11
-4.36362
 21
3.39011
  0
LINE
  8
0
 10
-4.36362
 20
3.39011
 11
-4.54091
 21
3.27931
  0
LINE
  8
0
 10
-4.54091
 20
3.27931
 11
-4.73737
 21
3.20781
  0
LINE
  8
0
 10
-4.73737
 20
3.20781
 11
-4.94438
 21
3.17873
  0
LINE
  8
0
 10
-4.94438
 20
3.17873
 11
-5.15292
 21
3.1933
  0
LINE
  8
0
 10
5.93434
 20
1.23831
 11
5.73338
 21
1.29594
  0
LINE
  8
0
 10
5.73338
 20
1.29594
 11
5.5488
 21
1.39409
  0
LINE
  8
0
 10
5.5488
 20
1.39409
 11
5.38866
 21
1.52846
  0
LINE
  8
0
 10
5.38866
 20
1.52846
 11
5.25995
 21
1.69321
  0
LINE
  8
0
 10
5.25995
 20
1.69321
 11
5.1683
 21
1.8811
  0
LINE
  8
0
 10
5.1683
 20
1.8811
 11
5.11772
 21
2.08395
  0
LINE
  8
0
 10
5.11772
 20
2.08395
 11
5.11043
 21
2.29288
  0
LINE
  8
0
 10
5.11043
 20
2.29288
 11
5.14673
 21
2.49876
  0
LINE
  8
0
 10
5.14673
 20
2.49876
 11
5.22505
 21
2.6926
  0
LINE
  8
0
 10
5.22505
 20
2.6926
 11
5.34195
 21
2.86591
  0
LINE
  8
0
 10
5.34195
 20
2.86591
 11
5.49234
 21
3.01114
  0
LINE
  8
0
 10
5.49234
 20
3.01114
 11
5.66962
 21
3.12192
  0
LINE
  8
0
 10
5.66962
 20
3.12192
 11
5.86607
 21
3.19342
  0
LINE
  8
0
 10
5.86607
 20
3.19342
 11
6.07309
 21
3.22252
  0
LINE
  8
0
 10
6.07309
 20
3.22252
 11
6.28165
 21
3.20793
  0
LINE
  8
0
 10
6.28165
 20
3.20793
 11
6.4826
 21
3.15031
  0
LINE
  8
0
 10
6.4826
 20
3.15031
 11
6.66719
 21
3.05215
  0
LINE
  8
0
 10
6.66719
 20
3.05215
 11
6.82733
 21
2.91779
  0
LINE
  8
0
 10
6.82733
 20
2.91779
 11
6.95604
 21
2.75304
  0
LINE
  8
0
 10
6.95604
 20
2.75304
 11
7.04768
 21
2.56514
  0
LINE
  8
0
 10
7.04768
 20
2.56514
 11
7.09827
 21
2.36229
  0
LINE
  8
0
 10
7.09827
 20
2.36229
 11
7.10556
 21
2.15337
  0
LINE
  8
0
 10
7.10556
 20
2.15337
 11
7.06926
 21
1.94748
  0
LINE
  8
0
 10
7.06926
 20
1.94748
 11
6.99094
 21
1.75365
  0
LINE
  8
0
 10
6.99094
 20
1.75365
 11
6.87404
 21
1.58034
  0
LINE
  8
0
 10
6.87404
 20
1.58034
 11
6.72366
 21
1.43512
  0
LINE
  8
0
 10
6.72366
 20
1.43512
 11
6.54637
 21
1.32433
  0
LINE
  8
0
 10
6.54637
 20
1.32433
 11
6.34991
 21
1.25282
  0
LINE
  8
0
 10
6.34991
 20
1.25282
 11
6.1429
 21
1.22374
  0
LINE
  8
0
 10
6.1429
 20
1.22374
 11
5.93434
 21
1.23831
  0
LINE
  8
0
 10
-0.219498
 20
-2.08849
 11
-0.648926
 21
-1.99721
  0
LINE
  8
0
 10
-0.648926
 20
-1.99721
 11
-1.04999
 21
-1.81865
  0
LINE
  8
0
 10
-1.04999
 20
-1.81865
 11
-1.40517
 21
-1.56059
  0
LINE
  8
0
 10
-1.40517
 20
-1.56059
 11
-1.69893
 21
-1.23434
  0
LINE
  8
0
 10
-1.69893
 20
-1.23434
 11
-1.91844
 21
-0.854141
  0
LINE
  8
0
 10
-1.91844
 20
-0.854141
 11
-2.05411
 21
-0.4366
  0
LINE
  8
0
 10
-2.05411
 20
-0.4366
 11
-2.09999
 21
0
  0
LINE
  8
0
 10
-2.09999
 20
0
 11
-2.05411
 21
0.4366
  0
LINE
  8
0
 10
-2.05411
 20
0.4366
 11
-1.91844
 21
0.854141
  0
LINE
  8
0
 10
-1.91844
 20
0.854141
 11
-1.69893
 21
1.23434
  0
LINE
  8
0
 10
-1.69893
 20
1.23434
 11
-1.40517
 21
1.56059
  0
LINE
  8
0
 10
-1.40517
 20
1.56059
 11
-1.04999
 21
1.81865
  0
LINE
  8
0
 10
-1.04999
 20
1.81865
 11
-0.648926
 21
1.99721
  0
LINE
  8
0
 10
-0.648926
 20
1.99721
 11
-0.219498
 21
2.08849
  0
LINE
  8
0
 10
-0.219498
 20
2.08849
 11
0.219498
 21
2.08849
  0
LINE
  8
0
 10
0.219498
 20
2.08849
 11
0.648926
 21
1.99721
  0
LINE
  8
0
 10
0.648926
 20
1.99721
 11
1.04999
 21
1.81865
  0
LINE
  8
0
 10
1.04999
 20
1.81865
 11
1.40517
 21
1.56059
  0
LINE
  8
0
 10
1.40517
 20
1.56059
 11
1.69893
 21
1.23434
  0
LINE
  8
0
 10
1.69893
 20
1.23434
 11
1.91844
 21
0.854141
  0
LINE
  8
0
 10
1.91844
 20
0.854141
 11
2.05411
 21
0.4366
  0
LINE
  8
0
 10
2.05411
 20
0.4366
 11
2.09999
 21
0
  0
LINE
  8
0
 10
2.09999
 20
0
 11
2.05411
 21
-0.4366
  0
LINE
  8
0
 10
2.05411
 20
-0.4366
 11
1.91844
 21
-0.854141
  0
LINE
  8
0
 10
1.91844
 20
-0.854141
 11
1.69893
 21
-1.23434
  0
LINE
  8
0
 10
1.69893
 20
-1.23434
 11
1.40517
 21
-1.56059
  0
LINE
  8
0
 10
1.40517
 20
-1.56059
 11
1.04999
 21
-1.81865
  0
LINE
  8
0
 10
1.04999
 20
-1.81865
 11
0.648926
 21
-1.99721
  0
LINE
  8
0
 10
0.648926
 20
-1.99721
 11
0.219498
 21
-2.08849
  0
LINE
  8
0
 10
0.219498
 20
-2.08849
 11
-0.219498
 21
-2.08849
  0
LINE
  8
0
 10
-6.60452
 20
-0.994507
 11
-6.80901
 21
-0.95105
  0
LINE
  8
0
 10
-6.80901
 20
-0.95105
 11
-7
 21
-0.866013
  0
LINE
  8
0
 10
-7
 20
-0.866013
 11
-7.16913
 21
-0.743134
  0
LINE
  8
0
 10
-7.16913
 20
-0.743134
 11
-7.30901
 21
-0.587784
  0
LINE
  8
0
 10
-7.30901
 20
-0.587784
 11
-7.41354
 21
-0.406723
  0
LINE
  8
0
 10
-7.41354
 20
-0.406723
 11
-7.47813
 21
-0.207901
  0
LINE
  8
0
 10
-7.47813
 20
-0.207901
 11
-7.5
 21
0
  0
LINE
  8
0
 10
-7.5
 20
0
 11
-7.47813
 21
0.207901
  0
LINE
  8
0
 10
-7.47813
 20
0.207901
 11
-7.41354
 21
0.406723
  0
LINE
  8
0
 10
-7.41354
 20
0.406723
 11
-7.30901
 21
0.587784
  0
LINE
  8
0
 10
-7.30901
 20
0.587784
 11
-7.16913
 21
0.743134
  0
LINE
  8
0
 10
-7.16913
 20
0.743134
 11
-7
 21
0.866013
  0
LINE
  8
0
 10
-7
 20
0.866013
 11
-6.80901
 21
0.95105
  0
LINE
  8
0
 10
-6.80901
 20
0.95105
 11
-6.60452
 21
0.994507
  0
LINE
  8
0
 10
-6.60452
 20
0.994507
 11
-6.39546
 21
0.994507
  0
LINE
  8
0
 10
-6.39546
 20
0.994507
 11
-6.19098
 21
0.95105
  0
LINE
  8
0
 10
-6.19098
 20
0.95105
 11
-6
 21
0.866013
  0
LINE
  8
0
 10
-6
 20
0.866013
 11
-5.83086
 21
0.743134
  0
LINE
  8
0
 10
-5.83086
 20
0.743134
 11
-5.69098
 21
0.587784
  0
LINE
  8
0
 10
-5.69098
 20
0.587784
 11
-5.58644
 21
0.406723
  0
LINE
  8
0
 10
-5.58644
 20
0.406723
 11
-5.52185
 21
0.207901
  0
LINE
  8
0
 10
-5.52185
 20
0.207901
 11
-5.5
 21
0
  0
LINE
  8
0
 10
-5.5
 20
0
 11
-5.52185
 21
-0.207901
  0
LINE
  8
0
 10
-5.52185
 20
-0.207901
 11
-5.58644
 21
-0.406723
  0
LINE
  8
0
 10
-5.58644
 20
-0.406723
 11
-5.69098
 21
-0.587784
  0
LINE
  8
0
 10
-5.69098
 20
-0.587784
 11
-5.83086
 21
-0.743134
  0
LINE
  8
0
 10
-5.83086
 20
-0.743134
 11
-6
 21
-0.866013
  0
LINE
  8
0
 10
-6
 20
-0.866013
 11
-6.19098
 21
-0.95105
  0
LINE
  8
0
 10
-6.19098
 20
-0.95105
 11
-6.39546
 21
-0.994507
  0
LINE
  8
0
 10
-6.39546
 20
-0.994507
 11
-6.60452
 21
-0.994507
  0
LINE
  8
0
 10
5.86607
 20
-3.19342
 11
5.66962
 21
-3.12192
  0
LINE
  8
0
 10
5.66962
 20
-3.12192
 11
5.49234
 21
-3.01114
  0
LINE
  8
0
 10
5.49234
 20
-3.01114
 11
5.34195
 21
-2.86591
  0
LINE
  8
0
 10
5.34195
 20
-2.86591
 11
5.22505
 21
-2.6926
  0
LINE
  8
0
 10
5.22505
 20
-2.6926
 11
5.14673
 21
-2.49876
  0
LINE
  8
0
 10
5.14673
 20
-2.49876
 11
5.11043
 21
-2.29288
  0
LINE
  8
0
 10
5.11043
 20
-2.29288
 11
5.11772
 21
-2.08395
  0
LINE
  8
0
 10
5.11772
 20
-2.08395
 11
5.1683
 21
-1.8811
  0
LINE
  8
0
 10
5.1683
 20
-1.8811
 11
5.25995
 21
-1.69321
  0
LINE
  8
0
 10
5.25995
 20
-1.69321
 11
5.38866
 21
-1.52846
  0
LINE
  8
0
 10
5.38866
 20
-1.52846
 11
5.5488
 21
-1.39409
  0
LINE
  8
0
 10
5.5488
 20
-1.39409
 11
5.73338
 21
-1.29594
  0
LINE
  8
0
 10
5.73338
 20
-1.29594
 11
5.93434
 21
-1.23831
  0
LINE
  8
0
 10
5.93434
 20
-1.23831
 11
6.1429
 21
-1.22374
  0
LINE
  8
0
 10
6.1429
 20
-1.22374
 11
6.34991
 21
-1.25282
  0
LINE
  8
0
 10
6.34991
 20
-1.25282
 11
6.54637
 21
-1.32433
  0
LINE
  8
0
 10
6.54637
 20
-1.32433
 11
6.72366
 21
-1.43512
  0
LINE
  8
0
 10
6.72366
 20
-1.43512
 11
6.87404
 21
-1.58034
  0
LINE
  8
0
 10
6.87404
 20
-1.58034
 11
6.99094
 21
-1.75365
  0
LINE
  8
0
 10
6.99094
 20
-1.75365
 11
7.06926
 21
-1.94748
  0
LINE
  8
0
 10
7.06926
 20
-1.94748
 11
7.10556
 21
-2.15337
  0
LINE
  8
0
 10
7.10556
 20
-2.15337
 11
7.09827
 21
-2.36229
  0
LINE
  8
0
 10
7.09827
 20
-2.36229
 11
7.04768
 21
-2.56514
  0
LINE
  8
0
 10
7.04768
 20
-2.56514
 11
6.95604
 21
-2.75304
  0
LINE
  8
0
 10
6.95604
 20
-2.75304
 11
6.82733
 21
-2.91779
  0
LINE
  8
0
 10
6.82733
 20
-2.91779
 11
6.66719
 21
-3.05215
  0
LINE
  8
0
 10
6.66719
 20
-3.05215
 11
6.4826
 21
-3.15031
  0
LINE
  8
0
 10
6.4826
 20
-3.15031
 11
6.28165
 21
-3.20793
  0
LINE
  8
0
 10
6.28165
 20
-3.20793
 11
6.07309
 21
-3.22252
  0
LINE
  8
0
 10
6.07309
 20
-3.22252
 11
5.86607
 21
-3.19342
  0
LINE
  8
0
 10
-5.22121
 20
-5.14841
 11
-5.41765
 21
-5.0769
  0
LINE
  8
0
 10
-5.41765
 20
-5.0769
 11
-5.59494
 21
-4.96613
  0
LINE
  8
0
 10
-5.59494
 20
-4.96613
 11
-5.74533
 21
-4.82089
  0
LINE
  8
0
 10
-5.74533
 20
-4.82089
 11
-5.86223
 21
-4.64758
  0
LINE
  8
0
 10
-5.86223
 20
-4.64758
 11
-5.94054
 21
-4.45375
  0
LINE
  8
0
 10
-5.94054
 20
-4.45375
 11
-5.97685
 21
-4.24786
  0
LINE
  8
0
 10
-5.97685
 20
-4.24786
 11
-5.96954
 21
-4.03894
  0
LINE
  8
0
 10
-5.96954
 20
-4.03894
 11
-5.91898
 21
-3.83609
  0
LINE
  8
0
 10
-5.91898
 20
-3.83609
 11
-5.82733
 21
-3.64819
  0
LINE
  8
0
 10
-5.82733
 20
-3.64819
 11
-5.69862
 21
-3.48346
  0
LINE
  8
0
 10
-5.69862
 20
-3.48346
 11
-5.53847
 21
-3.34908
  0
LINE
  8
0
 10
-5.53847
 20
-3.34908
 11
-5.35388
 21
-3.25093
  0
LINE
  8
0
 10
-5.35388
 20
-3.25093
 11
-5.15292
 21
-3.1933
  0
LINE
  8
0
 10
-5.15292
 20
-3.1933
 11
-4.94438
 21
-3.17873
  0
LINE
  8
0
 10
-4.94438
 20
-3.17873
 11
-4.73737
 21
-3.20781
  0
LINE
  8
0
 10
-4.73737
 20
-3.20781
 11
-4.54091
 21
-3.27931
  0
LINE
  8
0
 10
-4.54091
 20
-3.27931
 11
-4.36362
 21
-3.39011
  0
LINE
  8
0
 10
-4.36362
 20
-3.39011
 11
-4.21324
 21
-3.53532
  0
LINE
  8
0
 10
-4.21324
 20
-3.53532
 11
-4.09633
 21
-3.70863
  0
LINE
  8
0
 10
-4.09633
 20
-3.70863
 11
-4.01802
 21
-3.90248
  0
LINE
  8
0
 10
-4.01802
 20
-3.90248
 11
-3.98172
 21
-4.10835
  0
LINE
  8
0
 10
-3.98172
 20
-4.10835
 11
-3.98901
 21
-4.31729
  0
LINE
  8
0
 10
-3.98901
 20
-4.31729
 11
-4.03958
 21
-4.52013
  0
LINE
  8
0
 10
-4.03958
 20
-4.52013
 11
-4.13123
 21
-4.70804
  0
LINE
  8
0
 10
-4.13123
 20
-4.70804
 11
-4.25995
 21
-4.87277
  0
LINE
  8
0
 10
-4.25995
 20
-4.87277
 11
-4.42009
 21
-5.00716
  0
LINE
  8
0
 10
-4.42009
 20
-5.00716
 11
-4.60468
 21
-5.1053
  0
LINE
  8
0
 10
-4.60468
 20
-5.1053
 11
-4.80563
 21
-5.16292
  0
LINE
  8
0
 10
-4.80563
 20
-5.16292
 11
-5.01418
 21
-5.17751
  0
LINE
  8
0
 10
-5.01418
 20
-5.17751
 11
-5.22121
 21
-5.14841
  0
LINE
  8
0
 10
3.14546
 20
-6.62367
 11
2.94098
 21
-6.58022
  0
LINE
  8
0
 10
2.94098
 20
-6.58022
 11
2.75
 21
-6.49518
  0
LINE
  8
0
 10
2.75
 20
-6.49518
 11
2.58086
 21
-6.3723
  0
LINE
  8
0
 10
2.58086
 20
-6.3723
 11
2.44098
 21
-6.21695
  0
LINE
  8
0
 10
2.44098
 20
-6.21695
 11
2.33644
 21
-6.03589
  0
LINE
  8
0
 10
2.33644
 20
-6.03589
 11
2.27185
 21
-5.83707
  0
LINE
  8
0
 10
2.27185
 20
-5.83707
 11
2.25
 21
-5.62915
  0
LINE
  8
0
 10
2.25
 20
-5.62915
 11
2.27185
 21
-5.42125
  0
LINE
  8
0
 10
2.27185
 20
-5.42125
 11
2.33644
 21
-5.22243
  0
LINE
  8
0
 10
2.33644
 20
-5.22243
 11
2.44098
 21
-5.04137
  0
LINE
  8
0
 10
2.44098
 20
-5.04137
 11
2.58086
 21
-4.88602
  0
LINE
  8
0
 10
2.58086
 20
-4.88602
 11
2.75
 21
-4.76314
  0
LINE
  8
0
 10
2.75
 20
-4.76314
 11
2.94098
 21
-4.6781
  0
LINE
  8
0
 10
2.94098
 20
-4.6781
 11
3.14546
 21
-4.63463
  0
LINE
  8
0
 10
3.14546
 20
-4.63463
 11
3.35452
 21
-4.63463
  0
LINE
  8
0
 10
3.35452
 20
-4.63463
 11
3.55901
 21
-4.6781
  0
LINE
  8
0
 10
3.55901
 20
-4.6781
 11
3.75
 21
-4.76314
  0
LINE
  8
0
 10
3.75
 20
-4.76314
 11
3.91913
 21
-4.88602
  0
LINE
  8
0
 10
3.91913
 20
-4.88602
 11
4.05901
 21
-5.04137
  0
LINE
  8
0
 10
4.05901
 20
-5.04137
 11
4.16354
 21
-5.22243
  0
LINE
  8
0
 10
4.16354
 20
-5.22243
 11
4.22813
 21
-5.42125
  0
LINE
  8
0
 10
4.22813
 20
-5.42125
 11
4.25
 21
-5.62915
  0
LINE
  8
0
 10
4.25
 20
-5.62915
 11
4.22813
 21
-5.83707
  0
LINE
  8
0
 10
4.22813
 20
-5.83707
 11
4.16354
 21
-6.03589
  0
LINE
  8
0
 10
4.16354
 20
-6.03589
 11
4.05901
 21
-6.21695
  0
LINE
  8
0
 10
4.05901
 20
-6.21695
 11
3.91913
 21
-6.3723
  0
LINE
  8
0
 10
3.91913
 20
-6.3723
 11
3.75
 21
-6.49518
  0
LINE
  8
0
 10
3.75
 20
-6.49518
 11
3.55901
 21
-6.58022
  0
LINE
  8
0
 10
3.55901
 20
-6.58022
 11
3.35452
 21
-6.62367
  0
LINE
  8
0
 10
3.35452
 20
-6.62367
 11
3.14546
 21
-6.62367
  0
LINE
  8
0
 10
-1.30235
 20
-7.38605
 11
-1.50331
 21
-7.32843
  0
LINE
  8
0
 10
-1.50331
 20
-7.32843
 11
-1.6879
 21
-7.23029
  0
LINE
  8
0
 10
-1.6879
 20
-7.23029
 11
-1.84804
 21
-7.0959
  0
LINE
  8
0
 10
-1.84804
 20
-7.0959
 11
-1.97676
 21
-6.93117
  0
LINE
  8
0
 10
-1.97676
 20
-6.93117
 11
-2.06841
 21
-6.74326
  0
LINE
  8
0
 10
-2.06841
 20
-6.74326
 11
-2.11897
 21
-6.54042
  0
LINE
  8
0
 10
-2.11897
 20
-6.54042
 11
-2.12627
 21
-6.33148
  0
LINE
  8
0
 10
-2.12627
 20
-6.33148
 11
-2.08997
 21
-6.12561
  0
LINE
  8
0
 10
-2.08997
 20
-6.12561
 11
-2.01166
 21
-5.93178
  0
LINE
  8
0
 10
-2.01166
 20
-5.93178
 11
-1.89474
 21
-5.75845
  0
LINE
  8
0
 10
-1.89474
 20
-5.75845
 11
-1.74437
 21
-5.61324
  0
LINE
  8
0
 10
-1.74437
 20
-5.61324
 11
-1.56708
 21
-5.50244
  0
LINE
  8
0
 10
-1.56708
 20
-5.50244
 11
-1.37062
 21
-5.43095
  0
LINE
  8
0
 10
-1.37062
 20
-5.43095
 11
-1.1636
 21
-5.40186
  0
LINE
  8
0
 10
-1.1636
 20
-5.40186
 11
-0.955063
 21
-5.41643
  0
LINE
  8
0
 10
-0.955063
 20
-5.41643
 11
-0.754105
 21
-5.47406
  0
LINE
  8
0
 10
-0.754105
 20
-5.47406
 11
-0.569519
 21
-5.5722
  0
LINE
  8
0
 10
-0.569519
 20
-5.5722
 11
-0.409363
 21
-5.70659
  0
LINE
  8
0
 10
-0.409363
 20
-5.70659
 11
-0.280655
 21
-5.87132
  0
LINE
  8
0
 10
-0.280655
 20
-5.87132
 11
-0.189011
 21
-6.05922
  0
LINE
  8
0
 10
-0.189011
 20
-6.05922
 11
-0.138443
 21
-6.26207
  0
LINE
  8
0
 10
-0.138443
 20
-6.26207
 11
-0.131134
 21
-6.47099
  0
LINE
  8
0
 10
-0.131134
 20
-6.47099
 11
-0.16745
 21
-6.67688
  0
LINE
  8
0
 10
-0.16745
 20
-6.67688
 11
-0.245758
 21
-6.87071
  0
LINE
  8
0
 10
-0.245758
 20
-6.87071
 11
-0.362656
 21
-7.04404
  0
LINE
  8
0
 10
-0.362656
 20
-7.04404
 11
-0.513046
 21
-7.18925
  0
LINE
  8
0
 10
-0.513046
 20
-7.18925
 11
-0.690338
 21
-7.30003
  0
LINE
  8
0
 10
-0.690338
 20
-7.30003
 11
-0.88678
 21
-7.37154
  0
LINE
  8
0
 10
-0.88678
 20
-7.37154
 11
-1.09381
 21
-7.40063
  0
LINE
  8
0
 10
-1.09381
 20
-7.40063
 11
-1.30235
 21
-7.38605
  0
ENDSEC
  0
SECTION
  2
OBJECTS
  0
DICTIONARY
  0
ENDSEC
  0
EOF
