  0
SECTION
  2
BLOCKS
  0
ENDSEC
  0
SECTION
  2
ENTITIES
  0
LINE
  8
0
 10
1.04527
 20
-9.94521
 11
1.73648
 21
-9.84807
  0
LINE
  8
0
 10
1.73648
 20
-9.84807
 11
2.4192
 21
-9.70296
  0
LINE
  8
0
 10
2.4192
 20
-9.70296
 11
3.09016
 21
-9.51056
  0
LINE
  8
0
 10
3.09016
 20
-9.51056
 11
3.74606
 21
-9.27184
  0
LINE
  8
0
 10
3.74606
 20
-9.27184
 11
4.3837
 21
-8.98793
  0
LINE
  8
0
 10
4.3837
 20
-8.98793
 11
5
 21
-8.66025
  0
LINE
  8
0
 10
5
 20
-8.66025
 11
5.59192
 21
-8.29037
  0
LINE
  8
0
 10
5.59192
 20
-8.29037
 11
6.1566
 21
-7.8801
  0
LINE
  8
0
 10
6.1566
 20
-7.8801
 11
6.6913
 21
-7.43144
  0
LINE
  8
0
 10
6.6913
 20
-7.43144
 11
7.19339
 21
-6.94658
  0
LINE
  8
0
 10
7.19339
 20
-6.94658
 11
7.66043
 21
-6.42787
  0
LINE
  8
0
 10
7.66043
 20
-6.42787
 11
8.09016
 21
-5.87784
  0
LINE
  8
0
 10
8.09016
 20
-5.87784
 11
8.48047
 21
-5.29918
  0
LINE
  8
0
 10
8.48047
 20
-5.29918
 11
8.82947
 21
-4.6947
  0
LINE
  8
0
 10
8.82947
 20
-4.6947
 11
9.13545
 21
-4.06735
  0
LINE
  8
0
 10
9.13545
 20
-4.06735
 11
9.39691
 21
-3.4202
  0
LINE
  8
0
 10
9.39691
 20
-3.4202
 11
9.61261
 21
-2.75636
  0
LINE
  8
0
 10
9.61261
 20
-2.75636
 11
9.78146
 21
-2.07912
  0
LINE
  8
0
 10
9.78146
 20
-2.07912
 11
9.90268
 21
-1.39172
  0
LINE
  8
0
 10
9.90268
 20
-1.39172
 11
9.97563
 21
-0.697556
  0
LINE
  8
0
 10
9.97563
 20
-0.697556
 11
10
 21
0
  0
LINE
  8
0
 10
10
 20
0
 11
9.97563
 21
0.697556
  0
LINE
  8
0
 10
9.97563
 20
0.697556
 11
9.90268
 21
1.39172
  0
LINE
  8
0
 10
9.90268
 20
1.39172
 11
9.78146
 21
2.07912
  0
LINE
  8
0
 10
9.78146
 20
2.07912
 11
9.61261
 21
2.75636
  0
LINE
  8
0
 10
9.61261
 20
2.75636
 11
4.8063
 21
21.3782
  0
LINE
  8
0
 10
4.8063
 20
21.3782
 11
4.69846
 21
21.7101
  0
LINE
  8
0
 10
4.69846
 20
21.7101
 11
4.56772
 21
22.0337
  0
LINE
  8
0
 10
4.56772
 20
22.0337
 11
4.41473
 21
22.3474
  0
LINE
  8
0
 10
4.41473
 20
22.3474
 11
4.24023
 21
22.6496
  0
LINE
  8
0
 10
4.24023
 20
22.6496
 11
4.04507
 21
22.9389
  0
LINE
  8
0
 10
4.04507
 20
22.9389
 11
3.83022
 21
23.2139
  0
LINE
  8
0
 10
3.83022
 20
23.2139
 11
3.59669
 21
23.4733
  0
LINE
  8
0
 10
3.59669
 20
23.4733
 11
3.34564
 21
23.7157
  0
LINE
  8
0
 10
3.34564
 20
23.7157
 11
3.07829
 21
23.94
  0
LINE
  8
0
 10
3.07829
 20
23.94
 11
2.79596
 21
24.1452
  0
LINE
  8
0
 10
2.79596
 20
24.1452
 11
2.5
 21
24.3301
  0
LINE
  8
0
 10
2.5
 20
24.3301
 11
2.19185
 21
24.494
  0
LINE
  8
0
 10
2.19185
 20
24.494
 11
1.87303
 21
24.6359
  0
LINE
  8
0
 10
1.87303
 20
24.6359
 11
1.54507
 21
24.7553
  0
LINE
  8
0
 10
1.54507
 20
24.7553
 11
1.20959
 21
24.8515
  0
LINE
  8
0
 10
1.20959
 20
24.8515
 11
0.86824
 21
24.924
  0
LINE
  8
0
 10
0.86824
 20
24.924
 11
0.522629
 21
24.9726
  0
LINE
  8
0
 10
0.522629
 20
24.9726
 11
0.174484
 21
24.9969
  0
LINE
  8
0
 10
0.174484
 20
24.9969
 11
-0.174484
 21
24.9969
  0
LINE
  8
0
 10
-0.174484
 20
24.9969
 11
-0.522629
 21
24.9726
  0
LINE
  8
0
 10
-0.522629
 20
24.9726
 11
-0.86824
 21
24.924
  0
LINE
  8
0
 10
-0.86824
 20
24.924
 11
-1.20959
 21
24.8515
  0
LINE
  8
0
 10
-1.20959
 20
24.8515
 11
-1.54507
 21
24.7553
  0
LINE
  8
0
 10
-1.54507
 20
24.7553
 11
-1.87303
 21
24.6359
  0
LINE
  8
0
 10
-1.87303
 20
24.6359
 11
-2.19185
 21
24.494
  0
LINE
  8
0
 10
-2.19185
 20
24.494
 11
-2.49998
 21
24.3301
  0
LINE
  8
0
 10
-2.49998
 20
24.3301
 11
-2.79596
 21
24.1452
  0
LINE
  8
0
 10
-2.79596
 20
24.1452
 11
-3.07829
 21
23.94
  0
LINE
  8
0
 10
-3.07829
 20
23.94
 11
-3.34564
 21
23.7157
  0
LINE
  8
0
 10
-3.34564
 20
23.7157
 11
-3.59669
 21
23.4733
  0
LINE
  8
0
 10
-3.59669
 20
23.4733
 11
-3.83022
 21
23.2139
  0
LINE
  8
0
 10
-3.83022
 20
23.2139
 11
-4.04507
 21
22.9389
  0
LINE
  8
0
 10
-4.04507
 20
22.9389
 11
-4.24023
 21
22.6496
  0
LINE
  8
0
 10
-4.24023
 20
22.6496
 11
-4.41473
 21
22.3474
  0
LINE
  8
0
 10
-4.41473
 20
22.3474
 11
-4.56772
 21
22.0337
  0
LINE
  8
0
 10
-4.56772
 20
22.0337
 11
-4.69846
 21
21.7101
  0
LINE
  8
0
 10
-4.69846
 20
21.7101
 11
-4.8063
 21
21.3782
  0
LINE
  8
0
 10
-4.8063
 20
21.3782
 11
-9.61261
 21
2.75636
  0
LINE
  8
0
 10
-9.61261
 20
2.75636
 11
-9.78146
 21
2.07912
  0
LINE
  8
0
 10
-9.78146
 20
2.07912
 11
-9.90268
 21
1.39172
  0
LINE
  8
0
 10
-9.90268
 20
1.39172
 11
-9.97563
 21
0.697556
  0
LINE
  8
0
 10
-9.97563
 20
0.697556
 11
-10
 21
0
  0
LINE
  8
0
 10
-10
 20
0
 11
-9.97563
 21
-0.697556
  0
LINE
  8
0
 10
-9.97563
 20
-0.697556
 11
-9.90268
 21
-1.39172
  0
LINE
  8
0
 10
-9.90268
 20
-1.39172
 11
-9.78146
 21
-2.07912
  0
LINE
  8
0
 10
-9.78146
 20
-2.07912
 11
-9.61261
 21
-2.75636
  0
LINE
  8
0
 10
-9.61261
 20
-2.75636
 11
-9.39691
 21
-3.4202
  0
LINE
  8
0
 10
-9.39691
 20
-3.4202
 11
-9.13545
 21
-4.06735
  0
LINE
  8
0
 10
-9.13545
 20
-4.06735
 11
-8.82947
 21
-4.6947
  0
LINE
  8
0
 10
-8.82947
 20
-4.6947
 11
-8.48047
 21
-5.29918
  0
LINE
  8
0
 10
-8.48047
 20
-5.29918
 11
-8.09016
 21
-5.87784
  0
LINE
  8
0
 10
-8.09016
 20
-5.87784
 11
-7.66043
 21
-6.42787
  0
LINE
  8
0
 10
-7.66043
 20
-6.42787
 11
-7.19339
 21
-6.94658
  0
LINE
  8
0
 10
-7.19339
 20
-6.94658
 11
-6.6913
 21
-7.43144
  0
LINE
  8
0
 10
-6.6913
 20
-7.43144
 11
-6.1566
 21
-7.8801
  0
LINE
  8
0
 10
-6.1566
 20
-7.8801
 11
-5.59192
 21
-8.29037
  0
LINE
  8
0
 10
-5.59192
 20
-8.29037
 11
-5
 21
-8.66025
  0
LINE
  8
0
 10
-5
 20
-8.66025
 11
-4.3837
 21
-8.98793
  0
LINE
  8
0
 10
-4.3837
 20
-8.98793
 11
-3.74606
 21
-9.27184
  0
LINE
  8
0
 10
-3.74606
 20
-9.27184
 11
-3.09016
 21
-9.51056
  0
LINE
  8
0
 10
-3.09016
 20
-9.51056
 11
-2.4192
 21
-9.70296
  0
LINE
  8
0
 10
-2.4192
 20
-9.70296
 11
-1.73648
 21
-9.84807
  0
LINE
  8
0
 10
-1.73648
 20
-9.84807
 11
-1.04527
 21
-9.94521
  0
LINE
  8
0
 10
-1.04527
 20
-9.94521
 11
-0.348984
 21
-9.9939
  0
LINE
  8
0
 10
-0.348984
 20
-9.9939
 11
0.348984
 21
-9.9939
  0
LINE
  8
0
 10
0.348984
 20
-9.9939
 11
1.04527
 21
-9.94521
  0
LINE
  8
0
 10
-1.6311
 20
6.90816
 11
-1.82755
 21
6.97966
  0
LINE
  8
0
 10
-1.82755
 20
6.97966
 11
-2.00484
 21
7.09044
  0
LINE
  8
0
 10
-2.00484
 20
7.09044
 11
-2.15523
 21
7.23567
  0
LINE
  8
0
 10
-2.15523
 20
7.23567
 11
-2.27213
 21
7.40898
  0
LINE
  8
0
 10
-2.27213
 20
7.40898
 11
-2.35043
 21
7.60281
  0
LINE
  8
0
 10
-2.35043
 20
7.60281
 11
-2.38675
 21
7.8087
  0
LINE
  8
0
 10
-2.38675
 20
7.8087
 11
-2.37944
 21
8.01762
  0
LINE
  8
0
 10
-2.37944
 20
8.01762
 11
-2.32887
 21
8.22047
  0
LINE
  8
0
 10
-2.32887
 20
8.22047
 11
-2.23723
 21
8.40837
  0
LINE
  8
0
 10
-2.23723
 20
8.40837
 11
-2.10852
 21
8.57312
  0
LINE
  8
0
 10
-2.10852
 20
8.57312
 11
-1.94836
 21
8.70749
  0
LINE
  8
0
 10
-1.94836
 20
8.70749
 11
-1.76378
 21
8.80563
  0
LINE
  8
0
 10
-1.76378
 20
8.80563
 11
-1.56282
 21
8.86327
  0
LINE
  8
0
 10
-1.56282
 20
8.86327
 11
-1.35428
 21
8.87784
  0
LINE
  8
0
 10
-1.35428
 20
8.87784
 11
-1.14726
 21
8.84875
  0
LINE
  8
0
 10
-1.14726
 20
8.84875
 11
-0.950806
 21
8.77725
  0
LINE
  8
0
 10
-0.950806
 20
8.77725
 11
-0.773514
 21
8.66646
  0
LINE
  8
0
 10
-0.773514
 20
8.66646
 11
-0.623138
 21
8.52124
  0
LINE
  8
0
 10
-0.623138
 20
8.52124
 11
-0.506226
 21
8.34793
  0
LINE
  8
0
 10
-0.506226
 20
8.34793
 11
-0.427917
 21
8.1541
  0
LINE
  8
0
 10
-0.427917
 20
8.1541
 11
-0.391617
 21
7.94821
  0
LINE
  8
0
 10
-0.391617
 20
7.94821
 11
-0.398911
 21
7.73929
  0
LINE
  8
0
 10
-0.398911
 20
7.73929
 11
-0.449478
 21
7.53644
  0
LINE
  8
0
 10
-0.449478
 20
7.53644
 11
-0.541122
 21
7.34854
  0
LINE
  8
0
 10
-0.541122
 20
7.34854
 11
-0.669846
 21
7.18379
  0
LINE
  8
0
 10
-0.669846
 20
7.18379
 11
-0.829987
 21
7.04942
  0
LINE
  8
0
 10
-0.829987
 20
7.04942
 11
-1.01457
 21
6.95126
  0
LINE
  8
0
 10
-1.01457
 20
6.95126
 11
-1.21553
 21
6.89365
  0
LINE
  8
0
 10
-1.21553
 20
6.89365
 11
-1.42407
 21
6.87906
  0
LINE
  8
0
 10
-1.42407
 20
6.87906
 11
-1.6311
 21
6.90816
  0
LINE
  8
0
 10
3.89546
 20
5.93367
 11
3.69098
 21
5.97714
  0
LINE
  8
0
 10
3.69098
 20
5.97714
 11
3.5
 21
6.06216
  0
LINE
  8
0
 10
3.5
 20
6.06216
 11
3.33086
 21
6.18504
  0
LINE
  8
0
 10
3.33086
 20
6.18504
 11
3.19098
 21
6.34041
  0
LINE
  8
0
 10
3.19098
 20
6.34041
 11
3.08644
 21
6.52145
  0
LINE
  8
0
 10
3.08644
 20
6.52145
 11
3.02185
 21
6.72029
  0
LINE
  8
0
 10
3.02185
 20
6.72029
 11
3
 21
6.92819
  0
LINE
  8
0
 10
3
 20
6.92819
 11
3.02185
 21
7.13611
  0
LINE
  8
0
 10
3.02185
 20
7.13611
 11
3.08644
 21
7.33493
  0
LINE
  8
0
 10
3.08644
 20
7.33493
 11
3.19098
 21
7.51598
  0
LINE
  8
0
 10
3.19098
 20
7.51598
 11
3.33086
 21
7.67134
  0
LINE
  8
0
 10
3.33086
 20
7.67134
 11
3.5
 21
7.79422
  0
LINE
  8
0
 10
3.5
 20
7.79422
 11
3.69098
 21
7.87926
  0
LINE
  8
0
 10
3.69098
 20
7.87926
 11
3.89546
 21
7.92271
  0
LINE
  8
0
 10
3.89546
 20
7.92271
 11
4.10452
 21
7.92271
  0
LINE
  8
0
 10
4.10452
 20
7.92271
 11
4.30901
 21
7.87926
  0
LINE
  8
0
 10
4.30901
 20
7.87926
 11
4.5
 21
7.79422
  0
LINE
  8
0
 10
4.5
 20
7.79422
 11
4.66913
 21
7.67134
  0
LINE
  8
0
 10
4.66913
 20
7.67134
 11
4.80901
 21
7.51598
  0
LINE
  8
0
 10
4.80901
 20
7.51598
 11
4.91354
 21
7.33493
  0
LINE
  8
0
 10
4.91354
 20
7.33493
 11
4.97813
 21
7.13611
  0
LINE
  8
0
 10
4.97813
 20
7.13611
 11
5
 21
6.92819
  0
LINE
  8
0
 10
5
 20
6.92819
 11
4.97813
 21
6.72029
  0
LINE
  8
0
 10
4.97813
 20
6.72029
 11
4.91354
 21
6.52145
  0
LINE
  8
0
 10
4.91354
 20
6.52145
 11
4.80901
 21
6.34041
  0
LINE
  8
0
 10
4.80901
 20
6.34041
 11
4.66913
 21
6.18504
  0
LINE
  8
0
 10
4.66913
 20
6.18504
 11
4.5
 21
6.06216
  0
LINE
  8
0
 10
4.5
 20
6.06216
 11
4.30901
 21
5.97714
  0
LINE
  8
0
 10
4.30901
 20
5.97714
 11
4.10452
 21
5.93367
  0
LINE
  8
0
 10
4.10452
 20
5.93367
 11
3.89546
 21
5.93367
  0
LINE
  8
0
 10
0.781403
 20
4.43163
 11
0.580444
 21
4.48926
  0
LINE
  8
0
 10
0.580444
 20
4.48926
 11
0.395859
 21
4.5874
  0
LINE
  8
0
 10
0.395859
 20
4.5874
 11
0.235718
 21
4.72177
  0
LINE
  8
0
 10
0.235718
 20
4.72177
 11
0.10701
 21
4.88652
  0
LINE
  8
0
 10
0.10701
 20
4.88652
 11
0.0153656
 21
5.07442
  0
LINE
  8
0
 10
0.0153656
 20
5.07442
 11
-0.035202
 21
5.27727
  0
LINE
  8
0
 10
-0.035202
 20
5.27727
 11
-0.0424957
 21
5.48619
  0
LINE
  8
0
 10
-0.0424957
 20
5.48619
 11
-0.00619507
 21
5.69208
  0
LINE
  8
0
 10
-0.00619507
 20
5.69208
 11
0.072113
 21
5.88591
  0
LINE
  8
0
 10
0.072113
 20
5.88591
 11
0.189011
 21
6.05922
  0
LINE
  8
0
 10
0.189011
 20
6.05922
 11
0.339401
 21
6.20445
  0
LINE
  8
0
 10
0.339401
 20
6.20445
 11
0.516693
 21
6.31523
  0
LINE
  8
0
 10
0.516693
 20
6.31523
 11
0.713135
 21
6.38673
  0
LINE
  8
0
 10
0.713135
 20
6.38673
 11
0.920151
 21
6.41583
  0
LINE
  8
0
 10
0.920151
 20
6.41583
 11
1.12871
 21
6.40125
  0
LINE
  8
0
 10
1.12871
 20
6.40125
 11
1.32967
 21
6.34361
  0
LINE
  8
0
 10
1.32967
 20
6.34361
 11
1.51425
 21
6.24547
  0
LINE
  8
0
 10
1.51425
 20
6.24547
 11
1.67439
 21
6.1111
  0
LINE
  8
0
 10
1.67439
 20
6.1111
 11
1.8031
 21
5.94635
  0
LINE
  8
0
 10
1.8031
 20
5.94635
 11
1.89474
 21
5.75845
  0
LINE
  8
0
 10
1.89474
 20
5.75845
 11
1.94533
 21
5.5556
  0
LINE
  8
0
 10
1.94533
 20
5.5556
 11
1.95262
 21
5.34668
  0
LINE
  8
0
 10
1.95262
 20
5.34668
 11
1.91632
 21
5.14079
  0
LINE
  8
0
 10
1.91632
 20
5.14079
 11
1.838
 21
4.94696
  0
LINE
  8
0
 10
1.838
 20
4.94696
 11
1.7211
 21
4.77365
  0
LINE
  8
0
 10
1.7211
 20
4.77365
 11
1.57072
 21
4.62842
  0
LINE
  8
0
 10
1.57072
 20
4.62842
 11
1.39343
 21
4.51764
  0
LINE
  8
0
 10
1.39343
 20
4.51764
 11
1.19698
 21
4.44614
  0
LINE
  8
0
 10
1.19698
 20
4.44614
 11
0.98996
 21
4.41704
  0
LINE
  8
0
 10
0.98996
 20
4.41704
 11
0.781403
 21
4.43163
  0
LINE
  8
0
 10
-6.302
 20
4.15749
 11
-6.50296
 21
4.2151
  0
LINE
  8
0
 10
-6.50296
 20
4.2151
 11
-6.68755
 21
4.31326
  0
LINE
  8
0
 10
-6.68755
 20
4.31326
 11
-6.84769
 21
4.44763
  0
LINE
  8
0
 10
-6.84769
 20
4.44763
 11
-6.97639
 21
4.61238
  0
LINE
  8
0
 10
-6.97639
 20
4.61238
 11
-7.06804
 21
4.80028
  0
LINE
  8
0
 10
-7.06804
 20
4.80028
 11
-7.11862
 21
5.00311
  0
LINE
  8
0
 10
-7.11862
 20
5.00311
 11
-7.12592
 21
5.21205
  0
LINE
  8
0
 10
-7.12592
 20
5.21205
 11
-7.08961
 21
5.41794
  0
LINE
  8
0
 10
-7.08961
 20
5.41794
 11
-7.01129
 21
5.61177
  0
LINE
  8
0
 10
-7.01129
 20
5.61177
 11
-6.89439
 21
5.78508
  0
LINE
  8
0
 10
-6.89439
 20
5.78508
 11
-6.744
 21
5.9303
  0
LINE
  8
0
 10
-6.744
 20
5.9303
 11
-6.56673
 21
6.04109
  0
LINE
  8
0
 10
-6.56673
 20
6.04109
 11
-6.37027
 21
6.11259
  0
LINE
  8
0
 10
-6.37027
 20
6.11259
 11
-6.16325
 21
6.14168
  0
LINE
  8
0
 10
-6.16325
 20
6.14168
 11
-5.9547
 21
6.12711
  0
LINE
  8
0
 10
-5.9547
 20
6.12711
 11
-5.75374
 21
6.06947
  0
LINE
  8
0
 10
-5.75374
 20
6.06947
 11
-5.56915
 21
5.97133
  0
LINE
  8
0
 10
-5.56915
 20
5.97133
 11
-5.40901
 21
5.83694
  0
LINE
  8
0
 10
-5.40901
 20
5.83694
 11
-5.2803
 21
5.67221
  0
LINE
  8
0
 10
-5.2803
 20
5.67221
 11
-5.18866
 21
5.48431
  0
LINE
  8
0
 10
-5.18866
 20
5.48431
 11
-5.13808
 21
5.28146
  0
LINE
  8
0
 10
-5.13808
 20
5.28146
 11
-5.13078
 21
5.07254
  0
LINE
  8
0
 10
-5.13078
 20
5.07254
 11
-5.16708
 21
4.86665
  0
LINE
  8
0
 10
-5.16708
 20
4.86665
 11
-5.24541
 21
4.67282
  0
LINE
  8
0
 10
-5.24541
 20
4.67282
 11
-5.3623
 21
4.49951
  0
LINE
  8
0
 10
-5.3623
 20
4.49951
 11
-5.51268
 21
4.35428
  0
LINE
  8
0
 10
-5.51268
 20
4.35428
 11
-5.68997
 21
4.2435
  0
LINE
  8
0
 10
-5.68997
 20
4.2435
 11
-5.88643
 21
4.172
  0
LINE
  8
0
 10
-5.88643
 20
4.172
 11
-6.09344
 21
4.1429
  0
LINE
  8
0
 10
-6.09344
 20
4.1429
 11
-6.302
 21
4.15749
  0
LINE
  8
0
 10
-2.85452
 20
3.76862
 11
-3.05901
 21
3.81207
  0
LINE
  8
0
 10
-3.05901
 20
3.81207
 11
-3.24998
 21
3.89711
  0
LINE
  8
0
 10
-3.24998
 20
3.89711
 11
-3.41913
 21
4.01999
  0
LINE
  8
0
 10
-3.41913
 20
4.01999
 11
-3.55901
 21
4.17535
  0
LINE
  8
0
 10
-3.55901
 20
4.17535
 11
-3.66354
 21
4.3564
  0
LINE
  8
0
 10
-3.66354
 20
4.3564
 11
-3.72813
 21
4.55522
  0
LINE
  8
0
 10
-3.72813
 20
4.55522
 11
-3.74998
 21
4.76314
  0
LINE
  8
0
 10
-3.74998
 20
4.76314
 11
-3.72813
 21
4.97104
  0
LINE
  8
0
 10
-3.72813
 20
4.97104
 11
-3.66354
 21
5.16988
  0
LINE
  8
0
 10
-3.66354
 20
5.16988
 11
-3.55901
 21
5.35092
  0
LINE
  8
0
 10
-3.55901
 20
5.35092
 11
-3.41913
 21
5.50627
  0
LINE
  8
0
 10
-3.41913
 20
5.50627
 11
-3.24998
 21
5.62915
  0
LINE
  8
0
 10
-3.24998
 20
5.62915
 11
-3.05901
 21
5.71419
  0
LINE
  8
0
 10
-3.05901
 20
5.71419
 11
-2.85452
 21
5.75766
  0
LINE
  8
0
 10
-2.85452
 20
5.75766
 11
-2.64546
 21
5.75766
  0
LINE
  8
0
 10
-2.64546
 20
5.75766
 11
-2.44098
 21
5.71419
  0
LINE
  8
0
 10
-2.44098
 20
5.71419
 11
-2.24998
 21
5.62915
  0
LINE
  8
0
 10
-2.24998
 20
5.62915
 11
-2.08086
 21
5.50627
  0
LINE
  8
0
 10
-2.08086
 20
5.50627
 11
-1.94098
 21
5.35092
  0
LINE
  8
0
 10
-1.94098
 20
5.35092
 11
-1.83644
 21
5.16988
  0
LINE
  8
0
 10
-1.83644
 20
5.16988
 11
-1.77185
 21
4.97104
  0
LINE
  8
0
 10
-1.77185
 20
4.97104
 11
-1.74998
 21
4.76314
  0
LINE
  8
0
 10
-1.74998
 20
4.76314
 11
-1.77185
 21
4.55522
  0
LINE
  8
0
 10
-1.77185
 20
4.55522
 11
-1.83644
 21
4.3564
  0
LINE
  8
0
 10
-1.83644
 20
4.3564
 11
-1.94098
 21
4.17535
  0
LINE
  8
0
 10
-1.94098
 20
4.17535
 11
-2.08086
 21
4.01999
  0
LINE
  8
0
 10
-2.08086
 20
4.01999
 11
-2.24998
 21
3.89711
  0
LINE
  8
0
 10
-2.24998
 20
3.89711
 11
-2.44098
 21
3.81207
  0
LINE
  8
0
 10
-2.44098
 20
3.81207
 11
-2.64546
 21
3.76862
  0
LINE
  8
0
 10
-2.64546
 20
3.76862
 11
-2.85452
 21
3.76862
  0
LINE
  8
0
 10
3.97131
 20
2.56503
 11
3.77487
 21
2.63654
  0
LINE
  8
0
 10
3.77487
 20
2.63654
 11
3.59758
 21
2.74731
  0
LINE
  8
0
 10
3.59758
 20
2.74731
 11
3.44719
 21
2.89253
  0
LINE
  8
0
 10
3.44719
 20
2.89253
 11
3.33029
 21
3.06586
  0
LINE
  8
0
 10
3.33029
 20
3.06586
 11
3.25197
 21
3.25969
  0
LINE
  8
0
 10
3.25197
 20
3.25969
 11
3.21567
 21
3.46556
  0
LINE
  8
0
 10
3.21567
 20
3.46556
 11
3.22296
 21
3.6745
  0
LINE
  8
0
 10
3.22296
 20
3.6745
 11
3.27354
 21
3.87735
  0
LINE
  8
0
 10
3.27354
 20
3.87735
 11
3.36519
 21
4.06525
  0
LINE
  8
0
 10
3.36519
 20
4.06525
 11
3.4939
 21
4.22998
  0
LINE
  8
0
 10
3.4939
 20
4.22998
 11
3.65404
 21
4.36436
  0
LINE
  8
0
 10
3.65404
 20
4.36436
 11
3.83862
 21
4.46251
  0
LINE
  8
0
 10
3.83862
 20
4.46251
 11
4.03958
 21
4.52013
  0
LINE
  8
0
 10
4.03958
 20
4.52013
 11
4.24814
 21
4.53471
  0
LINE
  8
0
 10
4.24814
 20
4.53471
 11
4.45515
 21
4.50562
  0
LINE
  8
0
 10
4.45515
 20
4.50562
 11
4.65161
 21
4.43411
  0
LINE
  8
0
 10
4.65161
 20
4.43411
 11
4.8289
 21
4.32333
  0
LINE
  8
0
 10
4.8289
 20
4.32333
 11
4.97928
 21
4.17812
  0
LINE
  8
0
 10
4.97928
 20
4.17812
 11
5.09619
 21
4.00479
  0
LINE
  8
0
 10
5.09619
 20
4.00479
 11
5.1745
 21
3.81096
  0
LINE
  8
0
 10
5.1745
 20
3.81096
 11
5.2108
 21
3.60509
  0
LINE
  8
0
 10
5.2108
 20
3.60509
 11
5.20351
 21
3.39615
  0
LINE
  8
0
 10
5.20351
 20
3.39615
 11
5.15292
 21
3.1933
  0
LINE
  8
0
 10
5.15292
 20
3.1933
 11
5.06128
 21
3.0054
  0
LINE
  8
0
 10
5.06128
 20
3.0054
 11
4.93257
 21
2.84067
  0
LINE
  8
0
 10
4.93257
 20
2.84067
 11
4.77243
 21
2.70628
  0
LINE
  8
0
 10
4.77243
 20
2.70628
 11
4.58784
 21
2.60814
  0
LINE
  8
0
 10
4.58784
 20
2.60814
 11
4.38689
 21
2.55052
  0
LINE
  8
0
 10
4.38689
 20
2.55052
 11
4.17834
 21
2.53593
  0
LINE
  8
0
 10
4.17834
 20
2.53593
 11
3.97131
 21
2.56503
  0
LINE
  8
0
 10
7.34389
 20
1.75134
 11
7.14293
 21
1.80898
  0
LINE
  8
0
 10
7.14293
 20
1.80898
 11
6.95834
 21
1.90712
  0
LINE
  8
0
 10
6.95834
 20
1.90712
 11
6.79819
 21
2.04149
  0
LINE
  8
0
 10
6.79819
 20
2.04149
 11
6.66948
 21
2.20624
  0
LINE
  8
0
 10
6.66948
 20
2.20624
 11
6.57784
 21
2.39413
  0
LINE
  8
0
 10
6.57784
 20
2.39413
 11
6.52727
 21
2.59698
  0
LINE
  8
0
 10
6.52727
 20
2.59698
 11
6.51997
 21
2.80591
  0
LINE
  8
0
 10
6.51997
 20
2.80591
 11
6.55627
 21
3.0118
  0
LINE
  8
0
 10
6.55627
 20
3.0118
 11
6.63458
 21
3.20563
  0
LINE
  8
0
 10
6.63458
 20
3.20563
 11
6.7515
 21
3.37894
  0
LINE
  8
0
 10
6.7515
 20
3.37894
 11
6.90187
 21
3.52417
  0
LINE
  8
0
 10
6.90187
 20
3.52417
 11
7.07916
 21
3.63495
  0
LINE
  8
0
 10
7.07916
 20
3.63495
 11
7.2756
 21
3.70645
  0
LINE
  8
0
 10
7.2756
 20
3.70645
 11
7.48264
 21
3.73555
  0
LINE
  8
0
 10
7.48264
 20
3.73555
 11
7.69118
 21
3.72096
  0
LINE
  8
0
 10
7.69118
 20
3.72096
 11
7.89214
 21
3.66333
  0
LINE
  8
0
 10
7.89214
 20
3.66333
 11
8.07672
 21
3.56519
  0
LINE
  8
0
 10
8.07672
 20
3.56519
 11
8.23688
 21
3.43082
  0
LINE
  8
0
 10
8.23688
 20
3.43082
 11
8.36559
 21
3.26607
  0
LINE
  8
0
 10
8.36559
 20
3.26607
 11
8.45723
 21
3.07817
  0
LINE
  8
0
 10
8.45723
 20
3.07817
 11
8.5078
 21
2.87532
  0
LINE
  8
0
 10
8.5078
 20
2.87532
 11
8.51509
 21
2.6664
  0
LINE
  8
0
 10
8.51509
 20
2.6664
 11
8.47879
 21
2.46051
  0
LINE
  8
0
 10
8.47879
 20
2.46051
 11
8.40048
 21
2.26668
  0
LINE
  8
0
 10
8.40048
 20
2.26668
 11
8.28358
 21
2.09337
  0
LINE
  8
0
 10
8.28358
 20
2.09337
 11
8.13319
 21
1.94814
  0
LINE
  8
0
 10
8.13319
 20
1.94814
 11
7.9559
 21
1.83736
  0
LINE
  8
0
 10
7.9559
 20
1.83736
 11
7.75946
 21
1.76585
  0
LINE
  8
0
 10
7.75946
 20
1.76585
 11
7.55243
 21
1.73676
  0
LINE
  8
0
 10
7.55243
 20
1.73676
 11
7.34389
 21
1.75134
  0
LINE
  8
0
 10
-5.41022
 20
0.910812
 11
-5.60667
 21
0.982315
  0
LINE
  8
0
 10
-5.60667
 20
0.982315
 11
-5.78397
 21
1.09309
  0
LINE
  8
0
 10
-5.78397
 20
1.09309
 11
-5.93434
 21
1.23831
  0
LINE
  8
0
 10
-5.93434
 20
1.23831
 11
-6.05125
 21
1.41164
  0
LINE
  8
0
 10
-6.05125
 20
1.41164
 11
-6.12956
 21
1.60547
  0
LINE
  8
0
 10
-6.12956
 20
1.60547
 11
-6.16586
 21
1.81134
  0
LINE
  8
0
 10
-6.16586
 20
1.81134
 11
-6.15857
 21
2.02028
  0
LINE
  8
0
 10
-6.15857
 20
2.02028
 11
-6.108
 21
2.22313
  0
LINE
  8
0
 10
-6.108
 20
2.22313
 11
-6.01636
 21
2.41103
  0
LINE
  8
0
 10
-6.01636
 20
2.41103
 11
-5.88763
 21
2.57576
  0
LINE
  8
0
 10
-5.88763
 20
2.57576
 11
-5.72749
 21
2.71014
  0
LINE
  8
0
 10
-5.72749
 20
2.71014
 11
-5.54291
 21
2.80829
  0
LINE
  8
0
 10
-5.54291
 20
2.80829
 11
-5.34195
 21
2.86591
  0
LINE
  8
0
 10
-5.34195
 20
2.86591
 11
-5.13341
 21
2.88049
  0
LINE
  8
0
 10
-5.13341
 20
2.88049
 11
-4.92638
 21
2.85139
  0
LINE
  8
0
 10
-4.92638
 20
2.85139
 11
-4.72993
 21
2.77989
  0
LINE
  8
0
 10
-4.72993
 20
2.77989
 11
-4.55264
 21
2.66911
  0
LINE
  8
0
 10
-4.55264
 20
2.66911
 11
-4.40225
 21
2.5239
  0
LINE
  8
0
 10
-4.40225
 20
2.5239
 11
-4.28535
 21
2.35057
  0
LINE
  8
0
 10
-4.28535
 20
2.35057
 11
-4.20705
 21
2.15674
  0
LINE
  8
0
 10
-4.20705
 20
2.15674
 11
-4.17073
 21
1.95087
  0
LINE
  8
0
 10
-4.17073
 20
1.95087
 11
-4.17804
 21
1.74193
  0
LINE
  8
0
 10
-4.17804
 20
1.74193
 11
-4.22861
 21
1.53908
  0
LINE
  8
0
 10
-4.22861
 20
1.53908
 11
-4.32025
 21
1.35118
  0
LINE
  8
0
 10
-4.32025
 20
1.35118
 11
-4.44896
 21
1.18645
  0
LINE
  8
0
 10
-4.44896
 20
1.18645
 11
-4.60912
 21
1.05206
  0
LINE
  8
0
 10
-4.60912
 20
1.05206
 11
-4.7937
 21
0.953918
  0
LINE
  8
0
 10
-4.7937
 20
0.953918
 11
-4.99466
 21
0.896301
  0
LINE
  8
0
 10
-4.99466
 20
0.896301
 11
-5.2032
 21
0.881714
  0
LINE
  8
0
 10
-5.2032
 20
0.881714
 11
-5.41022
 21
0.910812
  0
LINE
  8
0
 10
-0.219498
 20
-2.08849
 11
-0.648926
 21
-1.99721
  0
LINE
  8
0
 10
-0.648926
 20
-1.99721
 11
-1.04999
 21
-1.81865
  0
LINE
  8
0
 10
-1.04999
 20
-1.81865
 11
-1.40517
 21
-1.56059
  0
LINE
  8
0
 10
-1.40517
 20
-1.56059
 11
-1.69893
 21
-1.23434
  0
LINE
  8
0
 10
-1.69893
 20
-1.23434
 11
-1.91844
 21
-0.854141
  0
LINE
  8
0
 10
-1.91844
 20
-0.854141
 11
-2.05411
 21
-0.4366
  0
LINE
  8
0
 10
-2.05411
 20
-0.4366
 11
-2.09999
 21
0
  0
LINE
  8
0
 10
-2.09999
 20
0
 11
-2.05411
 21
0.4366
  0
LINE
  8
0
 10
-2.05411
 20
0.4366
 11
-1.91844
 21
0.854141
  0
LINE
  8
0
 10
-1.91844
 20
0.854141
 11
-1.69893
 21
1.23434
  0
LINE
  8
0
 10
-1.69893
 20
1.23434
 11
-1.40517
 21
1.56059
  0
LINE
  8
0
 10
-1.40517
 20
1.56059
 11
-1.04999
 21
1.81865
  0
LINE
  8
0
 10
-1.04999
 20
1.81865
 11
-0.648926
 21
1.99721
  0
LINE
  8
0
 10
-0.648926
 20
1.99721
 11
-0.219498
 21
2.08849
  0
LINE
  8
0
 10
-0.219498
 20
2.08849
 11
0.219498
 21
2.08849
  0
LINE
  8
0
 10
0.219498
 20
2.08849
 11
0.648926
 21
1.99721
  0
LINE
  8
0
 10
0.648926
 20
1.99721
 11
1.04999
 21
1.81865
  0
LINE
  8
0
 10
1.04999
 20
1.81865
 11
1.40517
 21
1.56059
  0
LINE
  8
0
 10
1.40517
 20
1.56059
 11
1.69893
 21
1.23434
  0
LINE
  8
0
 10
1.69893
 20
1.23434
 11
1.91844
 21
0.854141
  0
LINE
  8
0
 10
1.91844
 20
0.854141
 11
2.05411
 21
0.4366
  0
LINE
  8
0
 10
2.05411
 20
0.4366
 11
2.09999
 21
0
  0
LINE
  8
0
 10
2.09999
 20
0
 11
2.05411
 21
-0.4366
  0
LINE
  8
0
 10
2.05411
 20
-0.4366
 11
1.91844
 21
-0.854141
  0
LINE
  8
0
 10
1.91844
 20
-0.854141
 11
1.69893
 21
-1.23434
  0
LINE
  8
0
 10
1.69893
 20
-1.23434
 11
1.40517
 21
-1.56059
  0
LINE
  8
0
 10
1.40517
 20
-1.56059
 11
1.04999
 21
-1.81865
  0
LINE
  8
0
 10
1.04999
 20
-1.81865
 11
0.648926
 21
-1.99721
  0
LINE
  8
0
 10
0.648926
 20
-1.99721
 11
0.219498
 21
-2.08849
  0
LINE
  8
0
 10
0.219498
 20
-2.08849
 11
-0.219498
 21
-2.08849
  0
LINE
  8
0
 10
5.39546
 20
-0.994507
 11
5.19098
 21
-0.95105
  0
LINE
  8
0
 10
5.19098
 20
-0.95105
 11
5
 21
-0.866013
  0
LINE
  8
0
 10
5
 20
-0.866013
 11
4.83086
 21
-0.743134
  0
LINE
  8
0
 10
4.83086
 20
-0.743134
 11
4.69098
 21
-0.587784
  0
LINE
  8
0
 10
4.69098
 20
-0.587784
 11
4.58644
 21
-0.406723
  0
LINE
  8
0
 10
4.58644
 20
-0.406723
 11
4.52185
 21
-0.207901
  0
LINE
  8
0
 10
4.52185
 20
-0.207901
 11
4.5
 21
0
  0
LINE
  8
0
 10
4.5
 20
0
 11
4.52185
 21
0.207901
  0
LINE
  8
0
 10
4.52185
 20
0.207901
 11
4.58644
 21
0.406723
  0
LINE
  8
0
 10
4.58644
 20
0.406723
 11
4.69098
 21
0.587784
  0
LINE
  8
0
 10
4.69098
 20
0.587784
 11
4.83086
 21
0.743134
  0
LINE
  8
0
 10
4.83086
 20
0.743134
 11
5
 21
0.866013
  0
LINE
  8
0
 10
5
 20
0.866013
 11
5.19098
 21
0.95105
  0
LINE
  8
0
 10
5.19098
 20
0.95105
 11
5.39546
 21
0.994507
  0
LINE
  8
0
 10
5.39546
 20
0.994507
 11
5.60452
 21
0.994507
  0
LINE
  8
0
 10
5.60452
 20
0.994507
 11
5.80901
 21
0.95105
  0
LINE
  8
0
 10
5.80901
 20
0.95105
 11
6
 21
0.866013
  0
LINE
  8
0
 10
6
 20
0.866013
 11
6.16913
 21
0.743134
  0
LINE
  8
0
 10
6.16913
 20
0.743134
 11
6.30901
 21
0.587784
  0
LINE
  8
0
 10
6.30901
 20
0.587784
 11
6.41354
 21
0.406723
  0
LINE
  8
0
 10
6.41354
 20
0.406723
 11
6.47813
 21
0.207901
  0
LINE
  8
0
 10
6.47813
 20
0.207901
 11
6.5
 21
0
  0
LINE
  8
0
 10
6.5
 20
0
 11
6.47813
 21
-0.207901
  0
LINE
  8
0
 10
6.47813
 20
-0.207901
 11
6.41354
 21
-0.406723
  0
LINE
  8
0
 10
6.41354
 20
-0.406723
 11
6.30901
 21
-0.587784
  0
LINE
  8
0
 10
6.30901
 20
-0.587784
 11
6.16913
 21
-0.743134
  0
LINE
  8
0
 10
6.16913
 20
-0.743134
 11
6
 21
-0.866013
  0
LINE
  8
0
 10
6
 20
-0.866013
 11
5.80901
 21
-0.95105
  0
LINE
  8
0
 10
5.80901
 20
-0.95105
 11
5.60452
 21
-0.994507
  0
LINE
  8
0
 10
5.60452
 20
-0.994507
 11
5.39546
 21
-0.994507
  0
LINE
  8
0
 10
-8.10452
 20
-0.994507
 11
-8.30901
 21
-0.95105
  0
LINE
  8
0
 10
-8.30901
 20
-0.95105
 11
-8.5
 21
-0.866013
  0
LINE
  8
0
 10
-8.5
 20
-0.866013
 11
-8.66913
 21
-0.743134
  0
LINE
  8
0
 10
-8.66913
 20
-0.743134
 11
-8.80901
 21
-0.587784
  0
LINE
  8
0
 10
-8.80901
 20
-0.587784
 11
-8.91354
 21
-0.406723
  0
LINE
  8
0
 10
-8.91354
 20
-0.406723
 11
-8.97813
 21
-0.207901
  0
LINE
  8
0
 10
-8.97813
 20
-0.207901
 11
-9
 21
0
  0
LINE
  8
0
 10
-9
 20
0
 11
-8.97813
 21
0.207901
  0
LINE
  8
0
 10
-8.97813
 20
0.207901
 11
-8.91354
 21
0.406723
  0
LINE
  8
0
 10
-8.91354
 20
0.406723
 11
-8.80901
 21
0.587784
  0
LINE
  8
0
 10
-8.80901
 20
0.587784
 11
-8.66913
 21
0.743134
  0
LINE
  8
0
 10
-8.66913
 20
0.743134
 11
-8.5
 21
0.866013
  0
LINE
  8
0
 10
-8.5
 20
0.866013
 11
-8.30901
 21
0.95105
  0
LINE
  8
0
 10
-8.30901
 20
0.95105
 11
-8.10452
 21
0.994507
  0
LINE
  8
0
 10
-8.10452
 20
0.994507
 11
-7.89546
 21
0.994507
  0
LINE
  8
0
 10
-7.89546
 20
0.994507
 11
-7.69098
 21
0.95105
  0
LINE
  8
0
 10
-7.69098
 20
0.95105
 11
-7.5
 21
0.866013
  0
LINE
  8
0
 10
-7.5
 20
0.866013
 11
-7.33086
 21
0.743134
  0
LINE
  8
0
 10
-7.33086
 20
0.743134
 11
-7.19098
 21
0.587784
  0
LINE
  8
0
 10
-7.19098
 20
0.587784
 11
-7.08644
 21
0.406723
  0
LINE
  8
0
 10
-7.08644
 20
0.406723
 11
-7.02185
 21
0.207901
  0
LINE
  8
0
 10
-7.02185
 20
0.207901
 11
-7
 21
0
  0
LINE
  8
0
 10
-7
 20
0
 11
-7.02185
 21
-0.207901
  0
LINE
  8
0
 10
-7.02185
 20
-0.207901
 11
-7.08644
 21
-0.406723
  0
LINE
  8
0
 10
-7.08644
 20
-0.406723
 11
-7.19098
 21
-0.587784
  0
LINE
  8
0
 10
-7.19098
 20
-0.587784
 11
-7.33086
 21
-0.743134
  0
LINE
  8
0
 10
-7.33086
 20
-0.743134
 11
-7.5
 21
-0.866013
  0
LINE
  8
0
 10
-7.5
 20
-0.866013
 11
-7.69098
 21
-0.95105
  0
LINE
  8
0
 10
-7.69098
 20
-0.95105
 11
-7.89546
 21
-0.994507
  0
LINE
  8
0
 10
-7.89546
 20
-0.994507
 11
-8.10452
 21
-0.994507
  0
LINE
  8
0
 10
-5.34195
 20
-2.86591
 11
-5.54291
 21
-2.80829
  0
LINE
  8
0
 10
-5.54291
 20
-2.80829
 11
-5.72749
 21
-2.71014
  0
LINE
  8
0
 10
-5.72749
 20
-2.71014
 11
-5.88763
 21
-2.57576
  0
LINE
  8
0
 10
-5.88763
 20
-2.57576
 11
-6.01636
 21
-2.41103
  0
LINE
  8
0
 10
-6.01636
 20
-2.41103
 11
-6.108
 21
-2.22313
  0
LINE
  8
0
 10
-6.108
 20
-2.22313
 11
-6.15857
 21
-2.02028
  0
LINE
  8
0
 10
-6.15857
 20
-2.02028
 11
-6.16586
 21
-1.81134
  0
LINE
  8
0
 10
-6.16586
 20
-1.81134
 11
-6.12956
 21
-1.60547
  0
LINE
  8
0
 10
-6.12956
 20
-1.60547
 11
-6.05125
 21
-1.41164
  0
LINE
  8
0
 10
-6.05125
 20
-1.41164
 11
-5.93434
 21
-1.23831
  0
LINE
  8
0
 10
-5.93434
 20
-1.23831
 11
-5.78397
 21
-1.09309
  0
LINE
  8
0
 10
-5.78397
 20
-1.09309
 11
-5.60667
 21
-0.982315
  0
LINE
  8
0
 10
-5.60667
 20
-0.982315
 11
-5.41022
 21
-0.910812
  0
LINE
  8
0
 10
-5.41022
 20
-0.910812
 11
-5.2032
 21
-0.881714
  0
LINE
  8
0
 10
-5.2032
 20
-0.881714
 11
-4.99466
 21
-0.896301
  0
LINE
  8
0
 10
-4.99466
 20
-0.896301
 11
-4.7937
 21
-0.953918
  0
LINE
  8
0
 10
-4.7937
 20
-0.953918
 11
-4.60912
 21
-1.05206
  0
LINE
  8
0
 10
-4.60912
 20
-1.05206
 11
-4.44896
 21
-1.18645
  0
LINE
  8
0
 10
-4.44896
 20
-1.18645
 11
-4.32025
 21
-1.35118
  0
LINE
  8
0
 10
-4.32025
 20
-1.35118
 11
-4.22861
 21
-1.53908
  0
LINE
  8
0
 10
-4.22861
 20
-1.53908
 11
-4.17804
 21
-1.74193
  0
LINE
  8
0
 10
-4.17804
 20
-1.74193
 11
-4.17073
 21
-1.95087
  0
LINE
  8
0
 10
-4.17073
 20
-1.95087
 11
-4.20705
 21
-2.15674
  0
LINE
  8
0
 10
-4.20705
 20
-2.15674
 11
-4.28535
 21
-2.35057
  0
LINE
  8
0
 10
-4.28535
 20
-2.35057
 11
-4.40225
 21
-2.5239
  0
LINE
  8
0
 10
-4.40225
 20
-2.5239
 11
-4.55264
 21
-2.66911
  0
LINE
  8
0
 10
-4.55264
 20
-2.66911
 11
-4.72993
 21
-2.77989
  0
LINE
  8
0
 10
-4.72993
 20
-2.77989
 11
-4.92638
 21
-2.85139
  0
LINE
  8
0
 10
-4.92638
 20
-2.85139
 11
-5.13341
 21
-2.88049
  0
LINE
  8
0
 10
-5.13341
 20
-2.88049
 11
-5.34195
 21
-2.86591
  0
LINE
  8
0
 10
7.2756
 20
-3.70645
 11
7.07916
 21
-3.63495
  0
LINE
  8
0
 10
7.07916
 20
-3.63495
 11
6.90187
 21
-3.52417
  0
LINE
  8
0
 10
6.90187
 20
-3.52417
 11
6.7515
 21
-3.37894
  0
LINE
  8
0
 10
6.7515
 20
-3.37894
 11
6.63458
 21
-3.20563
  0
LINE
  8
0
 10
6.63458
 20
-3.20563
 11
6.55627
 21
-3.0118
  0
LINE
  8
0
 10
6.55627
 20
-3.0118
 11
6.51997
 21
-2.80591
  0
LINE
  8
0
 10
6.51997
 20
-2.80591
 11
6.52727
 21
-2.59698
  0
LINE
  8
0
 10
6.52727
 20
-2.59698
 11
6.57784
 21
-2.39413
  0
LINE
  8
0
 10
6.57784
 20
-2.39413
 11
6.66948
 21
-2.20624
  0
LINE
  8
0
 10
6.66948
 20
-2.20624
 11
6.79819
 21
-2.04149
  0
LINE
  8
0
 10
6.79819
 20
-2.04149
 11
6.95834
 21
-1.90712
  0
LINE
  8
0
 10
6.95834
 20
-1.90712
 11
7.14293
 21
-1.80898
  0
LINE
  8
0
 10
7.14293
 20
-1.80898
 11
7.34389
 21
-1.75134
  0
LINE
  8
0
 10
7.34389
 20
-1.75134
 11
7.55243
 21
-1.73676
  0
LINE
  8
0
 10
7.55243
 20
-1.73676
 11
7.75946
 21
-1.76585
  0
LINE
  8
0
 10
7.75946
 20
-1.76585
 11
7.9559
 21
-1.83736
  0
LINE
  8
0
 10
7.9559
 20
-1.83736
 11
8.13319
 21
-1.94814
  0
LINE
  8
0
 10
8.13319
 20
-1.94814
 11
8.28358
 21
-2.09337
  0
LINE
  8
0
 10
8.28358
 20
-2.09337
 11
8.40048
 21
-2.26668
  0
LINE
  8
0
 10
8.40048
 20
-2.26668
 11
8.47879
 21
-2.46051
  0
LINE
  8
0
 10
8.47879
 20
-2.46051
 11
8.51509
 21
-2.6664
  0
LINE
  8
0
 10
8.51509
 20
-2.6664
 11
8.5078
 21
-2.87532
  0
LINE
  8
0
 10
8.5078
 20
-2.87532
 11
8.45723
 21
-3.07817
  0
LINE
  8
0
 10
8.45723
 20
-3.07817
 11
8.36559
 21
-3.26607
  0
LINE
  8
0
 10
8.36559
 20
-3.26607
 11
8.23688
 21
-3.43082
  0
LINE
  8
0
 10
8.23688
 20
-3.43082
 11
8.07672
 21
-3.56519
  0
LINE
  8
0
 10
8.07672
 20
-3.56519
 11
7.89214
 21
-3.66333
  0
LINE
  8
0
 10
7.89214
 20
-3.66333
 11
7.69118
 21
-3.72096
  0
LINE
  8
0
 10
7.69118
 20
-3.72096
 11
7.48264
 21
-3.73555
  0
LINE
  8
0
 10
7.48264
 20
-3.73555
 11
7.2756
 21
-3.70645
  0
LINE
  8
0
 10
4.03958
 20
-4.52013
 11
3.83862
 21
-4.46251
  0
LINE
  8
0
 10
3.83862
 20
-4.46251
 11
3.65404
 21
-4.36436
  0
LINE
  8
0
 10
3.65404
 20
-4.36436
 11
3.4939
 21
-4.22998
  0
LINE
  8
0
 10
3.4939
 20
-4.22998
 11
3.36519
 21
-4.06525
  0
LINE
  8
0
 10
3.36519
 20
-4.06525
 11
3.27354
 21
-3.87735
  0
LINE
  8
0
 10
3.27354
 20
-3.87735
 11
3.22296
 21
-3.6745
  0
LINE
  8
0
 10
3.22296
 20
-3.6745
 11
3.21567
 21
-3.46556
  0
LINE
  8
0
 10
3.21567
 20
-3.46556
 11
3.25197
 21
-3.25969
  0
LINE
  8
0
 10
3.25197
 20
-3.25969
 11
3.33029
 21
-3.06586
  0
LINE
  8
0
 10
3.33029
 20
-3.06586
 11
3.44719
 21
-2.89253
  0
LINE
  8
0
 10
3.44719
 20
-2.89253
 11
3.59758
 21
-2.74731
  0
LINE
  8
0
 10
3.59758
 20
-2.74731
 11
3.77487
 21
-2.63654
  0
LINE
  8
0
 10
3.77487
 20
-2.63654
 11
3.97131
 21
-2.56503
  0
LINE
  8
0
 10
3.97131
 20
-2.56503
 11
4.17834
 21
-2.53593
  0
LINE
  8
0
 10
4.17834
 20
-2.53593
 11
4.38689
 21
-2.55052
  0
LINE
  8
0
 10
4.38689
 20
-2.55052
 11
4.58784
 21
-2.60814
  0
LINE
  8
0
 10
4.58784
 20
-2.60814
 11
4.77243
 21
-2.70628
  0
LINE
  8
0
 10
4.77243
 20
-2.70628
 11
4.93257
 21
-2.84067
  0
LINE
  8
0
 10
4.93257
 20
-2.84067
 11
5.06128
 21
-3.0054
  0
LINE
  8
0
 10
5.06128
 20
-3.0054
 11
5.15292
 21
-3.1933
  0
LINE
  8
0
 10
5.15292
 20
-3.1933
 11
5.20351
 21
-3.39615
  0
LINE
  8
0
 10
5.20351
 20
-3.39615
 11
5.2108
 21
-3.60509
  0
LINE
  8
0
 10
5.2108
 20
-3.60509
 11
5.1745
 21
-3.81096
  0
LINE
  8
0
 10
5.1745
 20
-3.81096
 11
5.09619
 21
-4.00479
  0
LINE
  8
0
 10
5.09619
 20
-4.00479
 11
4.97928
 21
-4.17812
  0
LINE
  8
0
 10
4.97928
 20
-4.17812
 11
4.8289
 21
-4.32333
  0
LINE
  8
0
 10
4.8289
 20
-4.32333
 11
4.65161
 21
-4.43411
  0
LINE
  8
0
 10
4.65161
 20
-4.43411
 11
4.45515
 21
-4.50562
  0
LINE
  8
0
 10
4.45515
 20
-4.50562
 11
4.24814
 21
-4.53471
  0
LINE
  8
0
 10
4.24814
 20
-4.53471
 11
4.03958
 21
-4.52013
  0
LINE
  8
0
 10
-2.85452
 20
-5.75766
 11
-3.05901
 21
-5.71419
  0
LINE
  8
0
 10
-3.05901
 20
-5.71419
 11
-3.25
 21
-5.62915
  0
LINE
  8
0
 10
-3.25
 20
-5.62915
 11
-3.41913
 21
-5.50627
  0
LINE
  8
0
 10
-3.41913
 20
-5.50627
 11
-3.55901
 21
-5.35092
  0
LINE
  8
0
 10
-3.55901
 20
-5.35092
 11
-3.66354
 21
-5.16988
  0
LINE
  8
0
 10
-3.66354
 20
-5.16988
 11
-3.72813
 21
-4.97104
  0
LINE
  8
0
 10
-3.72813
 20
-4.97104
 11
-3.75
 21
-4.76314
  0
LINE
  8
0
 10
-3.75
 20
-4.76314
 11
-3.72813
 21
-4.55522
  0
LINE
  8
0
 10
-3.72813
 20
-4.55522
 11
-3.66354
 21
-4.3564
  0
LINE
  8
0
 10
-3.66354
 20
-4.3564
 11
-3.55901
 21
-4.17535
  0
LINE
  8
0
 10
-3.55901
 20
-4.17535
 11
-3.41913
 21
-4.01999
  0
LINE
  8
0
 10
-3.41913
 20
-4.01999
 11
-3.25
 21
-3.89711
  0
LINE
  8
0
 10
-3.25
 20
-3.89711
 11
-3.05901
 21
-3.81207
  0
LINE
  8
0
 10
-3.05901
 20
-3.81207
 11
-2.85452
 21
-3.76862
  0
LINE
  8
0
 10
-2.85452
 20
-3.76862
 11
-2.64546
 21
-3.76862
  0
LINE
  8
0
 10
-2.64546
 20
-3.76862
 11
-2.44098
 21
-3.81207
  0
LINE
  8
0
 10
-2.44098
 20
-3.81207
 11
-2.25
 21
-3.89711
  0
LINE
  8
0
 10
-2.25
 20
-3.89711
 11
-2.08086
 21
-4.01999
  0
LINE
  8
0
 10
-2.08086
 20
-4.01999
 11
-1.94098
 21
-4.17535
  0
LINE
  8
0
 10
-1.94098
 20
-4.17535
 11
-1.83644
 21
-4.3564
  0
LINE
  8
0
 10
-1.83644
 20
-4.3564
 11
-1.77185
 21
-4.55522
  0
LINE
  8
0
 10
-1.77185
 20
-4.55522
 11
-1.75
 21
-4.76314
  0
LINE
  8
0
 10
-1.75
 20
-4.76314
 11
-1.77185
 21
-4.97104
  0
LINE
  8
0
 10
-1.77185
 20
-4.97104
 11
-1.83644
 21
-5.16988
  0
LINE
  8
0
 10
-1.83644
 20
-5.16988
 11
-1.94098
 21
-5.35092
  0
LINE
  8
0
 10
-1.94098
 20
-5.35092
 11
-2.08086
 21
-5.50627
  0
LINE
  8
0
 10
-2.08086
 20
-5.50627
 11
-2.25
 21
-5.62915
  0
LINE
  8
0
 10
-2.25
 20
-5.62915
 11
-2.44098
 21
-5.71419
  0
LINE
  8
0
 10
-2.44098
 20
-5.71419
 11
-2.64546
 21
-5.75766
  0
LINE
  8
0
 10
-2.64546
 20
-5.75766
 11
-2.85452
 21
-5.75766
  0
LINE
  8
0
 10
-6.37027
 20
-6.11259
 11
-6.56673
 21
-6.04109
  0
LINE
  8
0
 10
-6.56673
 20
-6.04109
 11
-6.744
 21
-5.9303
  0
LINE
  8
0
 10
-6.744
 20
-5.9303
 11
-6.89439
 21
-5.78508
  0
LINE
  8
0
 10
-6.89439
 20
-5.78508
 11
-7.01129
 21
-5.61177
  0
LINE
  8
0
 10
-7.01129
 20
-5.61177
 11
-7.08961
 21
-5.41794
  0
LINE
  8
0
 10
-7.08961
 20
-5.41794
 11
-7.12592
 21
-5.21205
  0
LINE
  8
0
 10
-7.12592
 20
-5.21205
 11
-7.11862
 21
-5.00311
  0
LINE
  8
0
 10
-7.11862
 20
-5.00311
 11
-7.06804
 21
-4.80028
  0
LINE
  8
0
 10
-7.06804
 20
-4.80028
 11
-6.97639
 21
-4.61238
  0
LINE
  8
0
 10
-6.97639
 20
-4.61238
 11
-6.84769
 21
-4.44763
  0
LINE
  8
0
 10
-6.84769
 20
-4.44763
 11
-6.68755
 21
-4.31326
  0
LINE
  8
0
 10
-6.68755
 20
-4.31326
 11
-6.50296
 21
-4.2151
  0
LINE
  8
0
 10
-6.50296
 20
-4.2151
 11
-6.302
 21
-4.15749
  0
LINE
  8
0
 10
-6.302
 20
-4.15749
 11
-6.09344
 21
-4.1429
  0
LINE
  8
0
 10
-6.09344
 20
-4.1429
 11
-5.88643
 21
-4.172
  0
LINE
  8
0
 10
-5.88643
 20
-4.172
 11
-5.68997
 21
-4.2435
  0
LINE
  8
0
 10
-5.68997
 20
-4.2435
 11
-5.51268
 21
-4.35428
  0
LINE
  8
0
 10
-5.51268
 20
-4.35428
 11
-5.3623
 21
-4.49951
  0
LINE
  8
0
 10
-5.3623
 20
-4.49951
 11
-5.24541
 21
-4.67282
  0
LINE
  8
0
 10
-5.24541
 20
-4.67282
 11
-5.16708
 21
-4.86665
  0
LINE
  8
0
 10
-5.16708
 20
-4.86665
 11
-5.13078
 21
-5.07254
  0
LINE
  8
0
 10
-5.13078
 20
-5.07254
 11
-5.13808
 21
-5.28146
  0
LINE
  8
0
 10
-5.13808
 20
-5.28146
 11
-5.18866
 21
-5.48431
  0
LINE
  8
0
 10
-5.18866
 20
-5.48431
 11
-5.2803
 21
-5.67221
  0
LINE
  8
0
 10
-5.2803
 20
-5.67221
 11
-5.40901
 21
-5.83694
  0
LINE
  8
0
 10
-5.40901
 20
-5.83694
 11
-5.56915
 21
-5.97133
  0
LINE
  8
0
 10
-5.56915
 20
-5.97133
 11
-5.75374
 21
-6.06947
  0
LINE
  8
0
 10
-5.75374
 20
-6.06947
 11
-5.9547
 21
-6.12711
  0
LINE
  8
0
 10
-5.9547
 20
-6.12711
 11
-6.16325
 21
-6.14168
  0
LINE
  8
0
 10
-6.16325
 20
-6.14168
 11
-6.37027
 21
-6.11259
  0
LINE
  8
0
 10
0.713135
 20
-6.38673
 11
0.516693
 21
-6.31523
  0
LINE
  8
0
 10
0.516693
 20
-6.31523
 11
0.339401
 21
-6.20445
  0
LINE
  8
0
 10
0.339401
 20
-6.20445
 11
0.189011
 21
-6.05922
  0
LINE
  8
0
 10
0.189011
 20
-6.05922
 11
0.072113
 21
-5.88591
  0
LINE
  8
0
 10
0.072113
 20
-5.88591
 11
-0.00619507
 21
-5.69208
  0
LINE
  8
0
 10
-0.00619507
 20
-5.69208
 11
-0.0424957
 21
-5.48619
  0
LINE
  8
0
 10
-0.0424957
 20
-5.48619
 11
-0.035202
 21
-5.27727
  0
LINE
  8
0
 10
-0.035202
 20
-5.27727
 11
0.0153656
 21
-5.07442
  0
LINE
  8
0
 10
0.0153656
 20
-5.07442
 11
0.10701
 21
-4.88652
  0
LINE
  8
0
 10
0.10701
 20
-4.88652
 11
0.235718
 21
-4.72177
  0
LINE
  8
0
 10
0.235718
 20
-4.72177
 11
0.395859
 21
-4.5874
  0
LINE
  8
0
 10
0.395859
 20
-4.5874
 11
0.580444
 21
-4.48926
  0
LINE
  8
0
 10
0.580444
 20
-4.48926
 11
0.781403
 21
-4.43163
  0
LINE
  8
0
 10
0.781403
 20
-4.43163
 11
0.98996
 21
-4.41704
  0
LINE
  8
0
 10
0.98996
 20
-4.41704
 11
1.19698
 21
-4.44614
  0
LINE
  8
0
 10
1.19698
 20
-4.44614
 11
1.39343
 21
-4.51764
  0
LINE
  8
0
 10
1.39343
 20
-4.51764
 11
1.57072
 21
-4.62842
  0
LINE
  8
0
 10
1.57072
 20
-4.62842
 11
1.7211
 21
-4.77365
  0
LINE
  8
0
 10
1.7211
 20
-4.77365
 11
1.838
 21
-4.94696
  0
LINE
  8
0
 10
1.838
 20
-4.94696
 11
1.91632
 21
-5.14079
  0
LINE
  8
0
 10
1.91632
 20
-5.14079
 11
1.95262
 21
-5.34668
  0
LINE
  8
0
 10
1.95262
 20
-5.34668
 11
1.94533
 21
-5.5556
  0
LINE
  8
0
 10
1.94533
 20
-5.5556
 11
1.89474
 21
-5.75845
  0
LINE
  8
0
 10
1.89474
 20
-5.75845
 11
1.8031
 21
-5.94635
  0
LINE
  8
0
 10
1.8031
 20
-5.94635
 11
1.67439
 21
-6.1111
  0
LINE
  8
0
 10
1.67439
 20
-6.1111
 11
1.51425
 21
-6.24547
  0
LINE
  8
0
 10
1.51425
 20
-6.24547
 11
1.32967
 21
-6.34361
  0
LINE
  8
0
 10
1.32967
 20
-6.34361
 11
1.12871
 21
-6.40125
  0
LINE
  8
0
 10
1.12871
 20
-6.40125
 11
0.920151
 21
-6.41583
  0
LINE
  8
0
 10
0.920151
 20
-6.41583
 11
0.713135
 21
-6.38673
  0
LINE
  8
0
 10
3.89546
 20
-7.92271
 11
3.69098
 21
-7.87926
  0
LINE
  8
0
 10
3.69098
 20
-7.87926
 11
3.5
 21
-7.79422
  0
LINE
  8
0
 10
3.5
 20
-7.79422
 11
3.33086
 21
-7.67134
  0
LINE
  8
0
 10
3.33086
 20
-7.67134
 11
3.19098
 21
-7.51598
  0
LINE
  8
0
 10
3.19098
 20
-7.51598
 11
3.08644
 21
-7.33493
  0
LINE
  8
0
 10
3.08644
 20
-7.33493
 11
3.02185
 21
-7.13611
  0
LINE
  8
0
 10
3.02185
 20
-7.13611
 11
3
 21
-6.92819
  0
LINE
  8
0
 10
3
 20
-6.92819
 11
3.02185
 21
-6.72029
  0
LINE
  8
0
 10
3.02185
 20
-6.72029
 11
3.08644
 21
-6.52145
  0
LINE
  8
0
 10
3.08644
 20
-6.52145
 11
3.19098
 21
-6.34041
  0
LINE
  8
0
 10
3.19098
 20
-6.34041
 11
3.33086
 21
-6.18504
  0
LINE
  8
0
 10
3.33086
 20
-6.18504
 11
3.5
 21
-6.06216
  0
LINE
  8
0
 10
3.5
 20
-6.06216
 11
3.69098
 21
-5.97714
  0
LINE
  8
0
 10
3.69098
 20
-5.97714
 11
3.89546
 21
-5.93367
  0
LINE
  8
0
 10
3.89546
 20
-5.93367
 11
4.10452
 21
-5.93367
  0
LINE
  8
0
 10
4.10452
 20
-5.93367
 11
4.30901
 21
-5.97714
  0
LINE
  8
0
 10
4.30901
 20
-5.97714
 11
4.5
 21
-6.06216
  0
LINE
  8
0
 10
4.5
 20
-6.06216
 11
4.66913
 21
-6.18504
  0
LINE
  8
0
 10
4.66913
 20
-6.18504
 11
4.80901
 21
-6.34041
  0
LINE
  8
0
 10
4.80901
 20
-6.34041
 11
4.91354
 21
-6.52145
  0
LINE
  8
0
 10
4.91354
 20
-6.52145
 11
4.97813
 21
-6.72029
  0
LINE
  8
0
 10
4.97813
 20
-6.72029
 11
5
 21
-6.92819
  0
LINE
  8
0
 10
5
 20
-6.92819
 11
4.97813
 21
-7.13611
  0
LINE
  8
0
 10
4.97813
 20
-7.13611
 11
4.91354
 21
-7.33493
  0
LINE
  8
0
 10
4.91354
 20
-7.33493
 11
4.80901
 21
-7.51598
  0
LINE
  8
0
 10
4.80901
 20
-7.51598
 11
4.66913
 21
-7.67134
  0
LINE
  8
0
 10
4.66913
 20
-7.67134
 11
4.5
 21
-7.79422
  0
LINE
  8
0
 10
4.5
 20
-7.79422
 11
4.30901
 21
-7.87926
  0
LINE
  8
0
 10
4.30901
 20
-7.87926
 11
4.10452
 21
-7.92271
  0
LINE
  8
0
 10
4.10452
 20
-7.92271
 11
3.89546
 21
-7.92271
  0
LINE
  8
0
 10
-1.56282
 20
-8.86327
 11
-1.76378
 21
-8.80563
  0
LINE
  8
0
 10
-1.76378
 20
-8.80563
 11
-1.94836
 21
-8.70749
  0
LINE
  8
0
 10
-1.94836
 20
-8.70749
 11
-2.10852
 21
-8.57312
  0
LINE
  8
0
 10
-2.10852
 20
-8.57312
 11
-2.23723
 21
-8.40837
  0
LINE
  8
0
 10
-2.23723
 20
-8.40837
 11
-2.32887
 21
-8.22047
  0
LINE
  8
0
 10
-2.32887
 20
-8.22047
 11
-2.37944
 21
-8.01762
  0
LINE
  8
0
 10
-2.37944
 20
-8.01762
 11
-2.38675
 21
-7.8087
  0
LINE
  8
0
 10
-2.38675
 20
-7.8087
 11
-2.35043
 21
-7.60281
  0
LINE
  8
0
 10
-2.35043
 20
-7.60281
 11
-2.27213
 21
-7.40898
  0
LINE
  8
0
 10
-2.27213
 20
-7.40898
 11
-2.15523
 21
-7.23567
  0
LINE
  8
0
 10
-2.15523
 20
-7.23567
 11
-2.00484
 21
-7.09044
  0
LINE
  8
0
 10
-2.00484
 20
-7.09044
 11
-1.82755
 21
-6.97966
  0
LINE
  8
0
 10
-1.82755
 20
-6.97966
 11
-1.6311
 21
-6.90816
  0
LINE
  8
0
 10
-1.6311
 20
-6.90816
 11
-1.42407
 21
-6.87906
  0
LINE
  8
0
 10
-1.42407
 20
-6.87906
 11
-1.21553
 21
-6.89365
  0
LINE
  8
0
 10
-1.21553
 20
-6.89365
 11
-1.01457
 21
-6.95126
  0
LINE
  8
0
 10
-1.01457
 20
-6.95126
 11
-0.829987
 21
-7.04942
  0
LINE
  8
0
 10
-0.829987
 20
-7.04942
 11
-0.669846
 21
-7.18379
  0
LINE
  8
0
 10
-0.669846
 20
-7.18379
 11
-0.541122
 21
-7.34854
  0
LINE
  8
0
 10
-0.541122
 20
-7.34854
 11
-0.449478
 21
-7.53644
  0
LINE
  8
0
 10
-0.449478
 20
-7.53644
 11
-0.398911
 21
-7.73929
  0
LINE
  8
0
 10
-0.398911
 20
-7.73929
 11
-0.391617
 21
-7.94821
  0
LINE
  8
0
 10
-0.391617
 20
-7.94821
 11
-0.427917
 21
-8.1541
  0
LINE
  8
0
 10
-0.427917
 20
-8.1541
 11
-0.506226
 21
-8.34793
  0
LINE
  8
0
 10
-0.506226
 20
-8.34793
 11
-0.623138
 21
-8.52124
  0
LINE
  8
0
 10
-0.623138
 20
-8.52124
 11
-0.773514
 21
-8.66646
  0
LINE
  8
0
 10
-0.773514
 20
-8.66646
 11
-0.950806
 21
-8.77725
  0
LINE
  8
0
 10
-0.950806
 20
-8.77725
 11
-1.14726
 21
-8.84875
  0
LINE
  8
0
 10
-1.14726
 20
-8.84875
 11
-1.35428
 21
-8.87784
  0
LINE
  8
0
 10
-1.35428
 20
-8.87784
 11
-1.56282
 21
-8.86327
  0
ENDSEC
  0
SECTION
  2
OBJECTS
  0
DICTIONARY
  0
ENDSEC
  0
EOF
